<mxfile host="Electron" modified="2024-06-27T05:45:54.593Z" agent="Mozilla/5.0 (Windows NT 10.0; Win64; x64) AppleWebKit/537.36 (KHTML, like Gecko) draw.io/24.5.3 Chrome/124.0.6367.207 Electron/30.0.6 Safari/537.36" etag="rXFoPKJjkMNlvtxjXzJa" version="24.5.3" type="device">
  <diagram id="C5RBs43oDa-KdzZeNtuy" name="Page-1">
    <mxGraphModel dx="2856" dy="3607" grid="1" gridSize="10" guides="1" tooltips="1" connect="1" arrows="1" fold="1" page="1" pageScale="1" pageWidth="1169" pageHeight="827" math="0" shadow="0">
      <root>
        <mxCell id="WIyWlLk6GJQsqaUBKTNV-0" />
        <mxCell id="WIyWlLk6GJQsqaUBKTNV-1" parent="WIyWlLk6GJQsqaUBKTNV-0" />
        <mxCell id="eGYr3inBb00eLCrS8vDI-142" value="DAO" style="shape=folder;fontStyle=1;tabWidth=110;tabHeight=30;tabPosition=left;html=1;boundedLbl=1;labelInHeader=1;container=1;collapsible=0;whiteSpace=wrap;fontFamily=Helvetica;fontSize=11;fontColor=default;labelBackgroundColor=default;" vertex="1" parent="WIyWlLk6GJQsqaUBKTNV-1">
          <mxGeometry x="1190" y="-870" width="280" height="500" as="geometry" />
        </mxCell>
        <mxCell id="eGYr3inBb00eLCrS8vDI-143" value="" style="html=1;strokeColor=none;resizeWidth=1;resizeHeight=1;fillColor=none;part=1;connectable=0;allowArrows=0;deletable=0;whiteSpace=wrap;fontFamily=Helvetica;fontSize=11;fontColor=default;labelBackgroundColor=default;" vertex="1" parent="eGYr3inBb00eLCrS8vDI-142">
          <mxGeometry width="340" height="483" relative="1" as="geometry">
            <mxPoint y="30" as="offset" />
          </mxGeometry>
        </mxCell>
        <mxCell id="eGYr3inBb00eLCrS8vDI-55" value="&amp;lt;&amp;lt;interface&amp;gt;&amp;gt;&lt;br&gt;&lt;b&gt;LevelDAO&lt;/b&gt;" style="swimlane;fontStyle=0;align=center;verticalAlign=top;childLayout=stackLayout;horizontal=1;startSize=40;horizontalStack=0;resizeParent=1;resizeParentMax=0;resizeLast=0;collapsible=0;marginBottom=0;html=1;whiteSpace=wrap;" vertex="1" parent="eGYr3inBb00eLCrS8vDI-142">
          <mxGeometry x="30" y="100" width="200" height="110" as="geometry" />
        </mxCell>
        <mxCell id="eGYr3inBb00eLCrS8vDI-56" value="attributes" style="text;html=1;strokeColor=none;fillColor=none;align=center;verticalAlign=middle;spacingLeft=4;spacingRight=4;overflow=hidden;rotatable=0;points=[[0,0.5],[1,0.5]];portConstraint=eastwest;whiteSpace=wrap;" vertex="1" parent="eGYr3inBb00eLCrS8vDI-55">
          <mxGeometry y="40" width="200" height="20" as="geometry" />
        </mxCell>
        <mxCell id="eGYr3inBb00eLCrS8vDI-57" value="" style="line;strokeWidth=1;fillColor=none;align=left;verticalAlign=middle;spacingTop=-1;spacingLeft=3;spacingRight=3;rotatable=0;labelPosition=right;points=[];portConstraint=eastwest;" vertex="1" parent="eGYr3inBb00eLCrS8vDI-55">
          <mxGeometry y="60" width="200" height="8" as="geometry" />
        </mxCell>
        <mxCell id="eGYr3inBb00eLCrS8vDI-58" value="operations" style="text;html=1;strokeColor=none;fillColor=none;align=center;verticalAlign=middle;spacingLeft=4;spacingRight=4;overflow=hidden;rotatable=0;points=[[0,0.5],[1,0.5]];portConstraint=eastwest;whiteSpace=wrap;" vertex="1" parent="eGYr3inBb00eLCrS8vDI-55">
          <mxGeometry y="68" width="200" height="20" as="geometry" />
        </mxCell>
        <mxCell id="eGYr3inBb00eLCrS8vDI-59" value="&lt;div&gt;+insert(level: Level):void&lt;/div&gt;" style="text;html=1;strokeColor=none;fillColor=none;align=left;verticalAlign=middle;spacingLeft=4;spacingRight=4;overflow=hidden;rotatable=0;points=[[0,0.5],[1,0.5]];portConstraint=eastwest;whiteSpace=wrap;" vertex="1" parent="eGYr3inBb00eLCrS8vDI-55">
          <mxGeometry y="88" width="200" height="22" as="geometry" />
        </mxCell>
        <mxCell id="eGYr3inBb00eLCrS8vDI-60" value="&amp;lt;&amp;lt;interface&amp;gt;&amp;gt;&lt;br&gt;&lt;b&gt;ScoreDAO&lt;/b&gt;" style="swimlane;fontStyle=0;align=center;verticalAlign=top;childLayout=stackLayout;horizontal=1;startSize=40;horizontalStack=0;resizeParent=1;resizeParentMax=0;resizeLast=0;collapsible=0;marginBottom=0;html=1;whiteSpace=wrap;" vertex="1" parent="eGYr3inBb00eLCrS8vDI-142">
          <mxGeometry x="30" y="220" width="200" height="110" as="geometry" />
        </mxCell>
        <mxCell id="eGYr3inBb00eLCrS8vDI-61" value="attributes" style="text;html=1;strokeColor=none;fillColor=none;align=center;verticalAlign=middle;spacingLeft=4;spacingRight=4;overflow=hidden;rotatable=0;points=[[0,0.5],[1,0.5]];portConstraint=eastwest;whiteSpace=wrap;" vertex="1" parent="eGYr3inBb00eLCrS8vDI-60">
          <mxGeometry y="40" width="200" height="20" as="geometry" />
        </mxCell>
        <mxCell id="eGYr3inBb00eLCrS8vDI-62" value="" style="line;strokeWidth=1;fillColor=none;align=left;verticalAlign=middle;spacingTop=-1;spacingLeft=3;spacingRight=3;rotatable=0;labelPosition=right;points=[];portConstraint=eastwest;" vertex="1" parent="eGYr3inBb00eLCrS8vDI-60">
          <mxGeometry y="60" width="200" height="8" as="geometry" />
        </mxCell>
        <mxCell id="eGYr3inBb00eLCrS8vDI-63" value="operations" style="text;html=1;strokeColor=none;fillColor=none;align=center;verticalAlign=middle;spacingLeft=4;spacingRight=4;overflow=hidden;rotatable=0;points=[[0,0.5],[1,0.5]];portConstraint=eastwest;whiteSpace=wrap;" vertex="1" parent="eGYr3inBb00eLCrS8vDI-60">
          <mxGeometry y="68" width="200" height="20" as="geometry" />
        </mxCell>
        <mxCell id="eGYr3inBb00eLCrS8vDI-64" value="&lt;div&gt;+insert(score: Score):void&lt;/div&gt;" style="text;html=1;strokeColor=none;fillColor=none;align=left;verticalAlign=middle;spacingLeft=4;spacingRight=4;overflow=hidden;rotatable=0;points=[[0,0.5],[1,0.5]];portConstraint=eastwest;whiteSpace=wrap;" vertex="1" parent="eGYr3inBb00eLCrS8vDI-60">
          <mxGeometry y="88" width="200" height="22" as="geometry" />
        </mxCell>
        <mxCell id="eGYr3inBb00eLCrS8vDI-45" value="&amp;lt;&amp;lt;interface&amp;gt;&amp;gt;&lt;br&gt;&lt;b&gt;UserDAO&lt;/b&gt;" style="swimlane;fontStyle=0;align=center;verticalAlign=top;childLayout=stackLayout;horizontal=1;startSize=40;horizontalStack=0;resizeParent=1;resizeParentMax=0;resizeLast=0;collapsible=0;marginBottom=0;html=1;whiteSpace=wrap;" vertex="1" parent="eGYr3inBb00eLCrS8vDI-142">
          <mxGeometry x="30" y="340" width="200" height="140" as="geometry" />
        </mxCell>
        <mxCell id="eGYr3inBb00eLCrS8vDI-46" value="attributes" style="text;html=1;strokeColor=none;fillColor=none;align=center;verticalAlign=middle;spacingLeft=4;spacingRight=4;overflow=hidden;rotatable=0;points=[[0,0.5],[1,0.5]];portConstraint=eastwest;whiteSpace=wrap;" vertex="1" parent="eGYr3inBb00eLCrS8vDI-45">
          <mxGeometry y="40" width="200" height="20" as="geometry" />
        </mxCell>
        <mxCell id="eGYr3inBb00eLCrS8vDI-48" value="" style="line;strokeWidth=1;fillColor=none;align=left;verticalAlign=middle;spacingTop=-1;spacingLeft=3;spacingRight=3;rotatable=0;labelPosition=right;points=[];portConstraint=eastwest;" vertex="1" parent="eGYr3inBb00eLCrS8vDI-45">
          <mxGeometry y="60" width="200" height="8" as="geometry" />
        </mxCell>
        <mxCell id="eGYr3inBb00eLCrS8vDI-49" value="operations" style="text;html=1;strokeColor=none;fillColor=none;align=center;verticalAlign=middle;spacingLeft=4;spacingRight=4;overflow=hidden;rotatable=0;points=[[0,0.5],[1,0.5]];portConstraint=eastwest;whiteSpace=wrap;" vertex="1" parent="eGYr3inBb00eLCrS8vDI-45">
          <mxGeometry y="68" width="200" height="20" as="geometry" />
        </mxCell>
        <mxCell id="eGYr3inBb00eLCrS8vDI-50" value="&lt;div&gt;+insert(user: User):void&lt;/div&gt;&lt;div&gt;+delete(user: User):void&lt;/div&gt;&lt;div&gt;+getUserByName(name):int, int&lt;/div&gt;" style="text;html=1;strokeColor=none;fillColor=none;align=left;verticalAlign=middle;spacingLeft=4;spacingRight=4;overflow=hidden;rotatable=0;points=[[0,0.5],[1,0.5]];portConstraint=eastwest;whiteSpace=wrap;" vertex="1" parent="eGYr3inBb00eLCrS8vDI-45">
          <mxGeometry y="88" width="200" height="52" as="geometry" />
        </mxCell>
        <mxCell id="eGYr3inBb00eLCrS8vDI-123" value="Entity" style="shape=folder;fontStyle=1;tabWidth=110;tabHeight=30;tabPosition=left;html=1;boundedLbl=1;labelInHeader=1;container=1;collapsible=0;whiteSpace=wrap;fontFamily=Helvetica;fontSize=11;fontColor=default;labelBackgroundColor=default;" vertex="1" parent="WIyWlLk6GJQsqaUBKTNV-1">
          <mxGeometry x="-120" y="-1700" width="1310" height="683" as="geometry" />
        </mxCell>
        <mxCell id="eGYr3inBb00eLCrS8vDI-124" value="" style="html=1;strokeColor=none;resizeWidth=1;resizeHeight=1;fillColor=none;part=1;connectable=0;allowArrows=0;deletable=0;whiteSpace=wrap;fontFamily=Helvetica;fontSize=11;fontColor=default;labelBackgroundColor=default;" vertex="1" parent="eGYr3inBb00eLCrS8vDI-123">
          <mxGeometry width="1310" height="478.09999999999997" relative="1" as="geometry">
            <mxPoint y="30" as="offset" />
          </mxGeometry>
        </mxCell>
        <mxCell id="eGYr3inBb00eLCrS8vDI-99" value="&amp;lt;&amp;lt;entity&amp;gt;&amp;gt;&lt;br&gt;&lt;b&gt;PlayLevel&lt;/b&gt;" style="swimlane;fontStyle=0;align=center;verticalAlign=top;childLayout=stackLayout;horizontal=1;startSize=40;horizontalStack=0;resizeParent=1;resizeParentMax=0;resizeLast=0;collapsible=0;marginBottom=0;html=1;whiteSpace=wrap;" vertex="1" parent="eGYr3inBb00eLCrS8vDI-123">
          <mxGeometry x="20" y="150" width="200" height="110" as="geometry" />
        </mxCell>
        <mxCell id="eGYr3inBb00eLCrS8vDI-100" value="attributes" style="text;html=1;strokeColor=none;fillColor=none;align=center;verticalAlign=middle;spacingLeft=4;spacingRight=4;overflow=hidden;rotatable=0;points=[[0,0.5],[1,0.5]];portConstraint=eastwest;whiteSpace=wrap;" vertex="1" parent="eGYr3inBb00eLCrS8vDI-99">
          <mxGeometry y="40" width="200" height="20" as="geometry" />
        </mxCell>
        <mxCell id="eGYr3inBb00eLCrS8vDI-102" value="" style="line;strokeWidth=1;fillColor=none;align=left;verticalAlign=middle;spacingTop=-1;spacingLeft=3;spacingRight=3;rotatable=0;labelPosition=right;points=[];portConstraint=eastwest;" vertex="1" parent="eGYr3inBb00eLCrS8vDI-99">
          <mxGeometry y="60" width="200" height="8" as="geometry" />
        </mxCell>
        <mxCell id="eGYr3inBb00eLCrS8vDI-103" value="operations" style="text;html=1;strokeColor=none;fillColor=none;align=center;verticalAlign=middle;spacingLeft=4;spacingRight=4;overflow=hidden;rotatable=0;points=[[0,0.5],[1,0.5]];portConstraint=eastwest;whiteSpace=wrap;" vertex="1" parent="eGYr3inBb00eLCrS8vDI-99">
          <mxGeometry y="68" width="200" height="20" as="geometry" />
        </mxCell>
        <mxCell id="eGYr3inBb00eLCrS8vDI-104" value="&lt;div&gt;+requestSolution():int[size][size]&lt;/div&gt;" style="text;html=1;strokeColor=none;fillColor=none;align=left;verticalAlign=middle;spacingLeft=4;spacingRight=4;overflow=hidden;rotatable=0;points=[[0,0.5],[1,0.5]];portConstraint=eastwest;whiteSpace=wrap;" vertex="1" parent="eGYr3inBb00eLCrS8vDI-99">
          <mxGeometry y="88" width="200" height="22" as="geometry" />
        </mxCell>
        <mxCell id="eGYr3inBb00eLCrS8vDI-106" value="&amp;lt;&amp;lt;entity&amp;gt;&amp;gt;&lt;br&gt;&lt;b&gt;EditorLevel&lt;/b&gt;" style="swimlane;fontStyle=0;align=center;verticalAlign=top;childLayout=stackLayout;horizontal=1;startSize=40;horizontalStack=0;resizeParent=1;resizeParentMax=0;resizeLast=0;collapsible=0;marginBottom=0;html=1;whiteSpace=wrap;" vertex="1" parent="eGYr3inBb00eLCrS8vDI-123">
          <mxGeometry x="240" y="40" width="200" height="190" as="geometry" />
        </mxCell>
        <mxCell id="eGYr3inBb00eLCrS8vDI-107" value="attributes" style="text;html=1;strokeColor=none;fillColor=none;align=center;verticalAlign=middle;spacingLeft=4;spacingRight=4;overflow=hidden;rotatable=0;points=[[0,0.5],[1,0.5]];portConstraint=eastwest;whiteSpace=wrap;" vertex="1" parent="eGYr3inBb00eLCrS8vDI-106">
          <mxGeometry y="40" width="200" height="20" as="geometry" />
        </mxCell>
        <mxCell id="eGYr3inBb00eLCrS8vDI-111" value="&lt;div&gt;-levelName: char[20]&lt;/div&gt;" style="text;html=1;strokeColor=none;fillColor=none;align=left;verticalAlign=middle;spacingLeft=4;spacingRight=4;overflow=hidden;rotatable=0;points=[[0,0.5],[1,0.5]];portConstraint=eastwest;whiteSpace=wrap;" vertex="1" parent="eGYr3inBb00eLCrS8vDI-106">
          <mxGeometry y="60" width="200" height="22" as="geometry" />
        </mxCell>
        <mxCell id="eGYr3inBb00eLCrS8vDI-108" value="" style="line;strokeWidth=1;fillColor=none;align=left;verticalAlign=middle;spacingTop=-1;spacingLeft=3;spacingRight=3;rotatable=0;labelPosition=right;points=[];portConstraint=eastwest;" vertex="1" parent="eGYr3inBb00eLCrS8vDI-106">
          <mxGeometry y="82" width="200" height="8" as="geometry" />
        </mxCell>
        <mxCell id="eGYr3inBb00eLCrS8vDI-109" value="operations" style="text;html=1;strokeColor=none;fillColor=none;align=center;verticalAlign=middle;spacingLeft=4;spacingRight=4;overflow=hidden;rotatable=0;points=[[0,0.5],[1,0.5]];portConstraint=eastwest;whiteSpace=wrap;" vertex="1" parent="eGYr3inBb00eLCrS8vDI-106">
          <mxGeometry y="90" width="200" height="20" as="geometry" />
        </mxCell>
        <mxCell id="eGYr3inBb00eLCrS8vDI-110" value="&lt;div&gt;+setStatus(flag):void&lt;/div&gt;&lt;div&gt;+createLevel(&lt;/div&gt;&lt;div&gt;&lt;span style=&quot;white-space: pre;&quot;&gt;&#x9;&lt;/span&gt;levelName: char[20]&lt;br&gt;&lt;/div&gt;&lt;div&gt;&lt;span style=&quot;white-space: pre;&quot;&gt;&#x9;&lt;/span&gt;level: Level&lt;br&gt;&lt;/div&gt;&lt;div&gt;&amp;nbsp; ):void&lt;/div&gt;" style="text;html=1;strokeColor=none;fillColor=none;align=left;verticalAlign=middle;spacingLeft=4;spacingRight=4;overflow=hidden;rotatable=0;points=[[0,0.5],[1,0.5]];portConstraint=eastwest;whiteSpace=wrap;" vertex="1" parent="eGYr3inBb00eLCrS8vDI-106">
          <mxGeometry y="110" width="200" height="80" as="geometry" />
        </mxCell>
        <mxCell id="eGYr3inBb00eLCrS8vDI-88" value="&amp;lt;&amp;lt;entity&amp;gt;&amp;gt;&lt;br&gt;&lt;b&gt;Level&lt;/b&gt;" style="swimlane;fontStyle=0;align=center;verticalAlign=top;childLayout=stackLayout;horizontal=1;startSize=40;horizontalStack=0;resizeParent=1;resizeParentMax=0;resizeLast=0;collapsible=0;marginBottom=0;html=1;whiteSpace=wrap;" vertex="1" parent="eGYr3inBb00eLCrS8vDI-123">
          <mxGeometry x="170" y="360" width="200" height="290" as="geometry" />
        </mxCell>
        <mxCell id="eGYr3inBb00eLCrS8vDI-89" value="attributes" style="text;html=1;strokeColor=none;fillColor=none;align=center;verticalAlign=middle;spacingLeft=4;spacingRight=4;overflow=hidden;rotatable=0;points=[[0,0.5],[1,0.5]];portConstraint=eastwest;whiteSpace=wrap;" vertex="1" parent="eGYr3inBb00eLCrS8vDI-88">
          <mxGeometry y="40" width="200" height="20" as="geometry" />
        </mxCell>
        <mxCell id="eGYr3inBb00eLCrS8vDI-90" value="-solution: int[size[0]][size[1]]&lt;div&gt;-current: int[size[0]][size[1]]&lt;/div&gt;&lt;div&gt;-difficulty: int&lt;/div&gt;&lt;div&gt;-size: int[2]&lt;/div&gt;&lt;div&gt;-gameProgress: int&lt;/div&gt;&lt;div&gt;-rowHint: size[0]&lt;/div&gt;&lt;div&gt;-colHint: size[1]&lt;/div&gt;" style="text;html=1;strokeColor=none;fillColor=none;align=left;verticalAlign=middle;spacingLeft=4;spacingRight=4;overflow=hidden;rotatable=0;points=[[0,0.5],[1,0.5]];portConstraint=eastwest;whiteSpace=wrap;" vertex="1" parent="eGYr3inBb00eLCrS8vDI-88">
          <mxGeometry y="60" width="200" height="110" as="geometry" />
        </mxCell>
        <mxCell id="eGYr3inBb00eLCrS8vDI-91" value="" style="line;strokeWidth=1;fillColor=none;align=left;verticalAlign=middle;spacingTop=-1;spacingLeft=3;spacingRight=3;rotatable=0;labelPosition=right;points=[];portConstraint=eastwest;" vertex="1" parent="eGYr3inBb00eLCrS8vDI-88">
          <mxGeometry y="170" width="200" height="8" as="geometry" />
        </mxCell>
        <mxCell id="eGYr3inBb00eLCrS8vDI-92" value="operations" style="text;html=1;strokeColor=none;fillColor=none;align=center;verticalAlign=middle;spacingLeft=4;spacingRight=4;overflow=hidden;rotatable=0;points=[[0,0.5],[1,0.5]];portConstraint=eastwest;whiteSpace=wrap;" vertex="1" parent="eGYr3inBb00eLCrS8vDI-88">
          <mxGeometry y="178" width="200" height="20" as="geometry" />
        </mxCell>
        <mxCell id="eGYr3inBb00eLCrS8vDI-93" value="&lt;div&gt;+updateCurrentState(&lt;/div&gt;&lt;div&gt;&lt;span style=&quot;white-space: pre;&quot;&gt;&#x9;&lt;/span&gt;row, col): void&lt;br&gt;&lt;/div&gt;&lt;div&gt;+setDifficulty(difficulty: int)&lt;/div&gt;" style="text;html=1;strokeColor=none;fillColor=none;align=left;verticalAlign=middle;spacingLeft=4;spacingRight=4;overflow=hidden;rotatable=0;points=[[0,0.5],[1,0.5]];portConstraint=eastwest;whiteSpace=wrap;" vertex="1" parent="eGYr3inBb00eLCrS8vDI-88">
          <mxGeometry y="198" width="200" height="92" as="geometry" />
        </mxCell>
        <mxCell id="eGYr3inBb00eLCrS8vDI-105" style="edgeStyle=orthogonalEdgeStyle;rounded=0;orthogonalLoop=1;jettySize=auto;html=1;strokeColor=default;align=center;verticalAlign=middle;fontFamily=Helvetica;fontSize=11;fontColor=default;labelBackgroundColor=default;startArrow=none;startFill=0;endArrow=block;endFill=0;" edge="1" parent="eGYr3inBb00eLCrS8vDI-123" source="eGYr3inBb00eLCrS8vDI-99" target="eGYr3inBb00eLCrS8vDI-88">
          <mxGeometry relative="1" as="geometry" />
        </mxCell>
        <mxCell id="eGYr3inBb00eLCrS8vDI-112" value="" style="edgeStyle=orthogonalEdgeStyle;rounded=0;orthogonalLoop=1;jettySize=auto;html=1;strokeColor=default;align=center;verticalAlign=middle;fontFamily=Helvetica;fontSize=11;fontColor=default;labelBackgroundColor=default;startArrow=none;startFill=0;endArrow=block;endFill=0;" edge="1" parent="eGYr3inBb00eLCrS8vDI-123" source="eGYr3inBb00eLCrS8vDI-106" target="eGYr3inBb00eLCrS8vDI-88">
          <mxGeometry relative="1" as="geometry">
            <Array as="points">
              <mxPoint x="350" y="310" />
              <mxPoint x="270" y="310" />
            </Array>
          </mxGeometry>
        </mxCell>
        <mxCell id="eGYr3inBb00eLCrS8vDI-76" value="&amp;lt;&amp;lt;entity&amp;gt;&amp;gt;&lt;br&gt;&lt;b&gt;Score&lt;/b&gt;" style="swimlane;fontStyle=0;align=center;verticalAlign=top;childLayout=stackLayout;horizontal=1;startSize=40;horizontalStack=0;resizeParent=1;resizeParentMax=0;resizeLast=0;collapsible=0;marginBottom=0;html=1;whiteSpace=wrap;" vertex="1" parent="eGYr3inBb00eLCrS8vDI-123">
          <mxGeometry x="740" y="375" width="200" height="240" as="geometry" />
        </mxCell>
        <mxCell id="eGYr3inBb00eLCrS8vDI-77" value="attributes" style="text;html=1;strokeColor=none;fillColor=none;align=center;verticalAlign=middle;spacingLeft=4;spacingRight=4;overflow=hidden;rotatable=0;points=[[0,0.5],[1,0.5]];portConstraint=eastwest;whiteSpace=wrap;" vertex="1" parent="eGYr3inBb00eLCrS8vDI-76">
          <mxGeometry y="40" width="200" height="20" as="geometry" />
        </mxCell>
        <mxCell id="eGYr3inBb00eLCrS8vDI-78" value="-scoreId: int&lt;div&gt;-playerName: char[20]&lt;/div&gt;&lt;div&gt;-completionTime: int&lt;/div&gt;&lt;div&gt;-levelDifficulty: int&lt;/div&gt;" style="text;html=1;strokeColor=none;fillColor=none;align=left;verticalAlign=middle;spacingLeft=4;spacingRight=4;overflow=hidden;rotatable=0;points=[[0,0.5],[1,0.5]];portConstraint=eastwest;whiteSpace=wrap;" vertex="1" parent="eGYr3inBb00eLCrS8vDI-76">
          <mxGeometry y="60" width="200" height="60" as="geometry" />
        </mxCell>
        <mxCell id="eGYr3inBb00eLCrS8vDI-79" value="" style="line;strokeWidth=1;fillColor=none;align=left;verticalAlign=middle;spacingTop=-1;spacingLeft=3;spacingRight=3;rotatable=0;labelPosition=right;points=[];portConstraint=eastwest;" vertex="1" parent="eGYr3inBb00eLCrS8vDI-76">
          <mxGeometry y="120" width="200" height="8" as="geometry" />
        </mxCell>
        <mxCell id="eGYr3inBb00eLCrS8vDI-80" value="operations" style="text;html=1;strokeColor=none;fillColor=none;align=center;verticalAlign=middle;spacingLeft=4;spacingRight=4;overflow=hidden;rotatable=0;points=[[0,0.5],[1,0.5]];portConstraint=eastwest;whiteSpace=wrap;" vertex="1" parent="eGYr3inBb00eLCrS8vDI-76">
          <mxGeometry y="128" width="200" height="20" as="geometry" />
        </mxCell>
        <mxCell id="eGYr3inBb00eLCrS8vDI-81" value="&lt;div&gt;+createScore(&lt;/div&gt;&lt;div&gt;&lt;span style=&quot;white-space: pre;&quot;&gt;&#x9;&lt;/span&gt;name:char[20],&lt;br&gt;&lt;/div&gt;&lt;div&gt;&lt;span style=&quot;white-space: pre;&quot;&gt;&#x9;&lt;/span&gt;time:int,&lt;br&gt;&lt;/div&gt;&lt;div&gt;&lt;span style=&quot;white-space: pre;&quot;&gt;&#x9;&lt;/span&gt;difficulty:int&lt;br&gt;&lt;/div&gt;&lt;div&gt;&amp;nbsp; ):void&lt;/div&gt;" style="text;html=1;strokeColor=none;fillColor=none;align=left;verticalAlign=middle;spacingLeft=4;spacingRight=4;overflow=hidden;rotatable=0;points=[[0,0.5],[1,0.5]];portConstraint=eastwest;whiteSpace=wrap;" vertex="1" parent="eGYr3inBb00eLCrS8vDI-76">
          <mxGeometry y="148" width="200" height="92" as="geometry" />
        </mxCell>
        <mxCell id="eGYr3inBb00eLCrS8vDI-118" style="edgeStyle=orthogonalEdgeStyle;rounded=0;orthogonalLoop=1;jettySize=auto;html=1;strokeColor=default;align=center;verticalAlign=middle;fontFamily=Helvetica;fontSize=11;fontColor=default;labelBackgroundColor=default;startArrow=none;startFill=0;endArrow=open;endFill=0;dashed=1;" edge="1" parent="eGYr3inBb00eLCrS8vDI-123" source="eGYr3inBb00eLCrS8vDI-88" target="eGYr3inBb00eLCrS8vDI-76">
          <mxGeometry relative="1" as="geometry" />
        </mxCell>
        <mxCell id="eGYr3inBb00eLCrS8vDI-119" value="&amp;lt;&amp;lt;create&amp;gt;&amp;gt;" style="edgeLabel;html=1;align=center;verticalAlign=middle;resizable=0;points=[];fontFamily=Helvetica;fontSize=11;fontColor=default;labelBackgroundColor=default;" vertex="1" connectable="0" parent="eGYr3inBb00eLCrS8vDI-118">
          <mxGeometry x="0.2191" y="2" relative="1" as="geometry">
            <mxPoint x="-60" y="25" as="offset" />
          </mxGeometry>
        </mxCell>
        <mxCell id="eGYr3inBb00eLCrS8vDI-67" value="&amp;lt;&amp;lt;entity&amp;gt;&amp;gt;&lt;br&gt;&lt;b&gt;User&lt;/b&gt;" style="swimlane;fontStyle=0;align=center;verticalAlign=top;childLayout=stackLayout;horizontal=1;startSize=40;horizontalStack=0;resizeParent=1;resizeParentMax=0;resizeLast=0;collapsible=0;marginBottom=0;html=1;whiteSpace=wrap;" vertex="1" parent="eGYr3inBb00eLCrS8vDI-123">
          <mxGeometry x="1070" y="360" width="200" height="270" as="geometry" />
        </mxCell>
        <mxCell id="eGYr3inBb00eLCrS8vDI-68" value="attributes" style="text;html=1;strokeColor=none;fillColor=none;align=center;verticalAlign=middle;spacingLeft=4;spacingRight=4;overflow=hidden;rotatable=0;points=[[0,0.5],[1,0.5]];portConstraint=eastwest;whiteSpace=wrap;" vertex="1" parent="eGYr3inBb00eLCrS8vDI-67">
          <mxGeometry y="40" width="200" height="20" as="geometry" />
        </mxCell>
        <mxCell id="eGYr3inBb00eLCrS8vDI-69" value="-userId: int&lt;div&gt;-name: char[20]&lt;/div&gt;&lt;div&gt;-imageId: int&lt;/div&gt;&lt;div&gt;-levelCompleted: int&lt;/div&gt;&lt;div&gt;-fastestLevel: int&lt;/div&gt;&lt;div&gt;-totalTimePlayed: int&lt;/div&gt;" style="text;html=1;strokeColor=none;fillColor=none;align=left;verticalAlign=middle;spacingLeft=4;spacingRight=4;overflow=hidden;rotatable=0;points=[[0,0.5],[1,0.5]];portConstraint=eastwest;whiteSpace=wrap;" vertex="1" parent="eGYr3inBb00eLCrS8vDI-67">
          <mxGeometry y="60" width="200" height="90" as="geometry" />
        </mxCell>
        <mxCell id="eGYr3inBb00eLCrS8vDI-70" value="" style="line;strokeWidth=1;fillColor=none;align=left;verticalAlign=middle;spacingTop=-1;spacingLeft=3;spacingRight=3;rotatable=0;labelPosition=right;points=[];portConstraint=eastwest;" vertex="1" parent="eGYr3inBb00eLCrS8vDI-67">
          <mxGeometry y="150" width="200" height="8" as="geometry" />
        </mxCell>
        <mxCell id="eGYr3inBb00eLCrS8vDI-71" value="operations" style="text;html=1;strokeColor=none;fillColor=none;align=center;verticalAlign=middle;spacingLeft=4;spacingRight=4;overflow=hidden;rotatable=0;points=[[0,0.5],[1,0.5]];portConstraint=eastwest;whiteSpace=wrap;" vertex="1" parent="eGYr3inBb00eLCrS8vDI-67">
          <mxGeometry y="158" width="200" height="20" as="geometry" />
        </mxCell>
        <mxCell id="eGYr3inBb00eLCrS8vDI-72" value="&lt;div&gt;+getName(name: char[20]):int&lt;/div&gt;&lt;div&gt;+createUser(&lt;/div&gt;&lt;div&gt;&lt;span style=&quot;white-space: pre;&quot;&gt;&#x9;&lt;/span&gt;name: char[20],&lt;/div&gt;&lt;div&gt;&lt;span style=&quot;background-color: initial;&quot;&gt;&lt;span style=&quot;white-space: pre;&quot;&gt;&#x9;&lt;/span&gt;imageId:int&lt;/span&gt;&lt;/div&gt;&lt;div&gt;&lt;span style=&quot;background-color: initial;&quot;&gt;&amp;nbsp; ):void&lt;/span&gt;&lt;/div&gt;&lt;div&gt;&lt;span style=&quot;background-color: initial;&quot;&gt;+deleteUser(name:char[20]):void&lt;/span&gt;&lt;/div&gt;" style="text;html=1;strokeColor=none;fillColor=none;align=left;verticalAlign=middle;spacingLeft=4;spacingRight=4;overflow=hidden;rotatable=0;points=[[0,0.5],[1,0.5]];portConstraint=eastwest;whiteSpace=wrap;" vertex="1" parent="eGYr3inBb00eLCrS8vDI-67">
          <mxGeometry y="178" width="200" height="92" as="geometry" />
        </mxCell>
        <mxCell id="eGYr3inBb00eLCrS8vDI-82" style="edgeStyle=none;rounded=0;orthogonalLoop=1;jettySize=auto;html=1;endArrow=none;endFill=0;startSize=14;endSize=14;sourcePerimeterSpacing=0;targetPerimeterSpacing=0;" edge="1" parent="eGYr3inBb00eLCrS8vDI-123" source="eGYr3inBb00eLCrS8vDI-67" target="eGYr3inBb00eLCrS8vDI-76">
          <mxGeometry relative="1" as="geometry">
            <mxPoint x="940" y="269" as="sourcePoint" />
            <Array as="points" />
            <mxPoint x="1140" y="269" as="targetPoint" />
          </mxGeometry>
        </mxCell>
        <mxCell id="eGYr3inBb00eLCrS8vDI-83" value="Highscore" style="edgeLabel;html=1;align=center;verticalAlign=middle;resizable=0;points=[];" vertex="1" connectable="0" parent="eGYr3inBb00eLCrS8vDI-82">
          <mxGeometry x="0.0729" y="-3" relative="1" as="geometry">
            <mxPoint x="1" y="-12" as="offset" />
          </mxGeometry>
        </mxCell>
        <mxCell id="eGYr3inBb00eLCrS8vDI-84" value="1" style="edgeLabel;html=1;align=center;verticalAlign=middle;resizable=0;points=[];" vertex="1" connectable="0" parent="eGYr3inBb00eLCrS8vDI-82">
          <mxGeometry x="-0.9792" relative="1" as="geometry">
            <mxPoint x="-17" y="10" as="offset" />
          </mxGeometry>
        </mxCell>
        <mxCell id="eGYr3inBb00eLCrS8vDI-85" value="0..*" style="edgeLabel;html=1;align=center;verticalAlign=middle;resizable=0;points=[];" vertex="1" connectable="0" parent="eGYr3inBb00eLCrS8vDI-82">
          <mxGeometry x="0.9213" y="-1" relative="1" as="geometry">
            <mxPoint x="24" y="10" as="offset" />
          </mxGeometry>
        </mxCell>
        <mxCell id="eGYr3inBb00eLCrS8vDI-113" value="" style="edgeStyle=orthogonalEdgeStyle;rounded=0;orthogonalLoop=1;jettySize=auto;html=1;endArrow=none;endFill=0;startSize=14;endSize=14;sourcePerimeterSpacing=0;targetPerimeterSpacing=0;startArrow=open;startFill=0;" edge="1" parent="eGYr3inBb00eLCrS8vDI-123" source="eGYr3inBb00eLCrS8vDI-88" target="eGYr3inBb00eLCrS8vDI-67">
          <mxGeometry relative="1" as="geometry">
            <mxPoint x="660" y="455" as="sourcePoint" />
            <mxPoint x="460" y="290" as="targetPoint" />
            <Array as="points">
              <mxPoint x="540" y="450" />
              <mxPoint x="540" y="280" />
              <mxPoint x="1189" y="280" />
            </Array>
          </mxGeometry>
        </mxCell>
        <mxCell id="eGYr3inBb00eLCrS8vDI-114" value="1" style="edgeLabel;html=1;align=center;verticalAlign=middle;resizable=0;points=[];" vertex="1" connectable="0" parent="eGYr3inBb00eLCrS8vDI-113">
          <mxGeometry x="0.5548" y="-3" relative="1" as="geometry">
            <mxPoint x="149" y="47" as="offset" />
          </mxGeometry>
        </mxCell>
        <mxCell id="eGYr3inBb00eLCrS8vDI-115" value="1" style="edgeLabel;html=1;align=center;verticalAlign=middle;resizable=0;points=[];" vertex="1" connectable="0" parent="eGYr3inBb00eLCrS8vDI-113">
          <mxGeometry x="-0.3916" relative="1" as="geometry">
            <mxPoint x="-140" y="165" as="offset" />
          </mxGeometry>
        </mxCell>
        <mxCell id="eGYr3inBb00eLCrS8vDI-116" value="Selector" style="edgeLabel;html=1;align=center;verticalAlign=middle;resizable=0;points=[];rotation=0;" vertex="1" connectable="0" parent="eGYr3inBb00eLCrS8vDI-113">
          <mxGeometry x="0.2987" y="-2" relative="1" as="geometry">
            <mxPoint x="316" y="48" as="offset" />
          </mxGeometry>
        </mxCell>
        <mxCell id="eGYr3inBb00eLCrS8vDI-117" value="Creator" style="edgeLabel;html=1;align=center;verticalAlign=middle;resizable=0;points=[];rotation=0;" vertex="1" connectable="0" parent="eGYr3inBb00eLCrS8vDI-113">
          <mxGeometry x="-0.0953" y="1" relative="1" as="geometry">
            <mxPoint x="-274" y="161" as="offset" />
          </mxGeometry>
        </mxCell>
        <mxCell id="eGYr3inBb00eLCrS8vDI-121" value="Control" style="shape=folder;fontStyle=1;tabWidth=110;tabHeight=30;tabPosition=left;html=1;boundedLbl=1;labelInHeader=1;container=1;collapsible=0;whiteSpace=wrap;fontFamily=Helvetica;fontSize=11;fontColor=default;labelBackgroundColor=default;" vertex="1" parent="WIyWlLk6GJQsqaUBKTNV-1">
          <mxGeometry x="30" y="-827" width="1070" height="807" as="geometry" />
        </mxCell>
        <mxCell id="eGYr3inBb00eLCrS8vDI-122" value="" style="html=1;strokeColor=none;resizeWidth=1;resizeHeight=1;fillColor=none;part=1;connectable=0;allowArrows=0;deletable=0;whiteSpace=wrap;fontFamily=Helvetica;fontSize=11;fontColor=default;labelBackgroundColor=default;" vertex="1" parent="eGYr3inBb00eLCrS8vDI-121">
          <mxGeometry width="1070" height="564.9" relative="1" as="geometry">
            <mxPoint y="30" as="offset" />
          </mxGeometry>
        </mxCell>
        <mxCell id="eGYr3inBb00eLCrS8vDI-28" value="&amp;lt;&amp;lt;controller&amp;gt;&amp;gt;&lt;br&gt;&lt;b&gt;ProfileController&lt;/b&gt;" style="swimlane;fontStyle=0;align=center;verticalAlign=top;childLayout=stackLayout;horizontal=1;startSize=40;horizontalStack=0;resizeParent=1;resizeParentMax=0;resizeLast=0;collapsible=0;marginBottom=0;html=1;whiteSpace=wrap;" vertex="1" parent="eGYr3inBb00eLCrS8vDI-121">
          <mxGeometry x="770" y="497" width="200" height="180" as="geometry" />
        </mxCell>
        <mxCell id="eGYr3inBb00eLCrS8vDI-29" value="attributes" style="text;html=1;strokeColor=none;fillColor=none;align=center;verticalAlign=middle;spacingLeft=4;spacingRight=4;overflow=hidden;rotatable=0;points=[[0,0.5],[1,0.5]];portConstraint=eastwest;whiteSpace=wrap;" vertex="1" parent="eGYr3inBb00eLCrS8vDI-28">
          <mxGeometry y="40" width="200" height="20" as="geometry" />
        </mxCell>
        <mxCell id="eGYr3inBb00eLCrS8vDI-30" value="-name: char[20]&lt;div&gt;-imageId: int&lt;/div&gt;" style="text;html=1;strokeColor=none;fillColor=none;align=left;verticalAlign=middle;spacingLeft=4;spacingRight=4;overflow=hidden;rotatable=0;points=[[0,0.5],[1,0.5]];portConstraint=eastwest;whiteSpace=wrap;" vertex="1" parent="eGYr3inBb00eLCrS8vDI-28">
          <mxGeometry y="60" width="200" height="30" as="geometry" />
        </mxCell>
        <mxCell id="eGYr3inBb00eLCrS8vDI-31" value="" style="line;strokeWidth=1;fillColor=none;align=left;verticalAlign=middle;spacingTop=-1;spacingLeft=3;spacingRight=3;rotatable=0;labelPosition=right;points=[];portConstraint=eastwest;" vertex="1" parent="eGYr3inBb00eLCrS8vDI-28">
          <mxGeometry y="90" width="200" height="8" as="geometry" />
        </mxCell>
        <mxCell id="eGYr3inBb00eLCrS8vDI-32" value="operations" style="text;html=1;strokeColor=none;fillColor=none;align=center;verticalAlign=middle;spacingLeft=4;spacingRight=4;overflow=hidden;rotatable=0;points=[[0,0.5],[1,0.5]];portConstraint=eastwest;whiteSpace=wrap;" vertex="1" parent="eGYr3inBb00eLCrS8vDI-28">
          <mxGeometry y="98" width="200" height="20" as="geometry" />
        </mxCell>
        <mxCell id="eGYr3inBb00eLCrS8vDI-33" value="&lt;div&gt;+registerUser(): void&lt;/div&gt;&lt;div&gt;+&lt;span style=&quot;background-color: initial;&quot;&gt;confirmUserDeletion():void&lt;/span&gt;&lt;/div&gt;&lt;div&gt;-verifyInput(name):void&lt;/div&gt;&lt;div&gt;-findUser(name):void&lt;/div&gt;" style="text;html=1;strokeColor=none;fillColor=none;align=left;verticalAlign=middle;spacingLeft=4;spacingRight=4;overflow=hidden;rotatable=0;points=[[0,0.5],[1,0.5]];portConstraint=eastwest;whiteSpace=wrap;" vertex="1" parent="eGYr3inBb00eLCrS8vDI-28">
          <mxGeometry y="118" width="200" height="62" as="geometry" />
        </mxCell>
        <mxCell id="eGYr3inBb00eLCrS8vDI-37" value="&amp;lt;&amp;lt;controller&amp;gt;&amp;gt;&lt;br&gt;&lt;b&gt;GameController&lt;/b&gt;" style="swimlane;fontStyle=0;align=center;verticalAlign=top;childLayout=stackLayout;horizontal=1;startSize=40;horizontalStack=0;resizeParent=1;resizeParentMax=0;resizeLast=0;collapsible=0;marginBottom=0;html=1;whiteSpace=wrap;" vertex="1" parent="eGYr3inBb00eLCrS8vDI-121">
          <mxGeometry x="300" y="77" width="200" height="600" as="geometry" />
        </mxCell>
        <mxCell id="eGYr3inBb00eLCrS8vDI-38" value="attributes" style="text;html=1;strokeColor=none;fillColor=none;align=center;verticalAlign=middle;spacingLeft=4;spacingRight=4;overflow=hidden;rotatable=0;points=[[0,0.5],[1,0.5]];portConstraint=eastwest;whiteSpace=wrap;" vertex="1" parent="eGYr3inBb00eLCrS8vDI-37">
          <mxGeometry y="40" width="200" height="20" as="geometry" />
        </mxCell>
        <mxCell id="eGYr3inBb00eLCrS8vDI-39" value="-level: int[n][n]&lt;div&gt;-gameState: int = 0&lt;/div&gt;&lt;div&gt;-difficulty: int&lt;/div&gt;&lt;div&gt;-editorFlag: flag&lt;/div&gt;&lt;div&gt;-levelName: char[20] = NULL&lt;/div&gt;&lt;div&gt;-map&amp;lt;int, int&amp;gt;difficultyTable{&lt;/div&gt;&lt;div&gt;&lt;span style=&quot;white-space: pre;&quot;&gt;&#x9;&lt;/span&gt;{1, 5},{2,10},{3,15},&lt;/div&gt;&lt;div&gt;&lt;span style=&quot;white-space: pre;&quot;&gt;&#x9;&lt;/span&gt;{4,20},{5,30}&lt;span style=&quot;background-color: initial;&quot;&gt;}&lt;/span&gt;&lt;/div&gt;&lt;div&gt;&lt;span style=&quot;background-color: initial;&quot;&gt;-result: int&lt;/span&gt;&lt;/div&gt;" style="text;html=1;strokeColor=none;fillColor=none;align=left;verticalAlign=middle;spacingLeft=4;spacingRight=4;overflow=hidden;rotatable=0;points=[[0,0.5],[1,0.5]];portConstraint=eastwest;whiteSpace=wrap;" vertex="1" parent="eGYr3inBb00eLCrS8vDI-37">
          <mxGeometry y="60" width="200" height="130" as="geometry" />
        </mxCell>
        <mxCell id="eGYr3inBb00eLCrS8vDI-40" value="" style="line;strokeWidth=1;fillColor=none;align=left;verticalAlign=middle;spacingTop=-1;spacingLeft=3;spacingRight=3;rotatable=0;labelPosition=right;points=[];portConstraint=eastwest;" vertex="1" parent="eGYr3inBb00eLCrS8vDI-37">
          <mxGeometry y="190" width="200" height="8" as="geometry" />
        </mxCell>
        <mxCell id="eGYr3inBb00eLCrS8vDI-41" value="operations" style="text;html=1;strokeColor=none;fillColor=none;align=center;verticalAlign=middle;spacingLeft=4;spacingRight=4;overflow=hidden;rotatable=0;points=[[0,0.5],[1,0.5]];portConstraint=eastwest;whiteSpace=wrap;" vertex="1" parent="eGYr3inBb00eLCrS8vDI-37">
          <mxGeometry y="198" width="200" height="20" as="geometry" />
        </mxCell>
        <mxCell id="eGYr3inBb00eLCrS8vDI-42" value="&lt;div&gt;+registerDifficulty(difficulty):void&lt;/div&gt;&lt;div&gt;+registerCurrentState(&lt;/div&gt;&lt;div&gt;&lt;span style=&quot;white-space: pre;&quot;&gt;&#x9;&lt;/span&gt;row,&amp;nbsp;&lt;/div&gt;&lt;div&gt;&lt;span style=&quot;white-space: pre;&quot;&gt;&#x9;&lt;/span&gt;col,&amp;nbsp;&lt;/div&gt;&lt;div&gt;&lt;span style=&quot;white-space: pre;&quot;&gt;&#x9;&lt;/span&gt;state = 1&lt;/div&gt;&lt;div&gt;&amp;nbsp; ):void&lt;/div&gt;&lt;div&gt;+registerInput(&lt;/div&gt;&lt;div&gt;&lt;span style=&quot;white-space: pre;&quot;&gt;&#x9;&lt;/span&gt;button,&amp;nbsp;&lt;/div&gt;&lt;div&gt;&lt;span style=&quot;white-space: pre;&quot;&gt;&#x9;&lt;/span&gt;row,&amp;nbsp;&lt;/div&gt;&lt;div&gt;&lt;span style=&quot;white-space: pre;&quot;&gt;&#x9;&lt;/span&gt;col&lt;/div&gt;&lt;div&gt;&amp;nbsp; ):void&lt;/div&gt;&lt;div&gt;+registerEditorFlag(flag):void&lt;/div&gt;&lt;div&gt;+registerLevelName(&lt;br&gt;&lt;span style=&quot;white-space: pre;&quot;&gt;&#x9;&lt;/span&gt;levelName&lt;/div&gt;&lt;div&gt;&amp;nbsp; ):void&lt;/div&gt;&lt;div&gt;+registerLevelData(&lt;/div&gt;&lt;div&gt;&lt;span style=&quot;white-space: pre;&quot;&gt;&#x9;&lt;/span&gt;level: Level&lt;/div&gt;&lt;div&gt;&amp;nbsp; ):void&lt;/div&gt;&lt;div&gt;+getLevelData(): levelName, level, &lt;span style=&quot;white-space: pre;&quot;&gt;&#x9;&lt;/span&gt;difficulty&lt;/div&gt;&lt;div&gt;-buildLevel(difficulty):void&lt;/div&gt;&lt;div&gt;-compareLevel(&lt;/div&gt;&lt;div&gt;&lt;span style=&quot;white-space: pre;&quot;&gt;&#x9;&lt;/span&gt;level: Level, level: Solution&lt;/div&gt;&lt;div&gt;&amp;nbsp; ):result&lt;/div&gt;" style="text;html=1;strokeColor=none;fillColor=none;align=left;verticalAlign=middle;spacingLeft=4;spacingRight=4;overflow=hidden;rotatable=0;points=[[0,0.5],[1,0.5]];portConstraint=eastwest;whiteSpace=wrap;" vertex="1" parent="eGYr3inBb00eLCrS8vDI-37">
          <mxGeometry y="218" width="200" height="382" as="geometry" />
        </mxCell>
        <mxCell id="eGYr3inBb00eLCrS8vDI-51" value="&amp;lt;&amp;lt;enumeration&amp;gt;&amp;gt;&lt;br&gt;&lt;b&gt;flag&lt;/b&gt;" style="swimlane;fontStyle=0;align=center;verticalAlign=top;childLayout=stackLayout;horizontal=1;startSize=40;horizontalStack=0;resizeParent=1;resizeParentMax=0;resizeLast=0;collapsible=0;marginBottom=0;html=1;whiteSpace=wrap;fontFamily=Helvetica;fontSize=11;fontColor=default;labelBackgroundColor=default;" vertex="1" parent="eGYr3inBb00eLCrS8vDI-121">
          <mxGeometry x="30" y="414" width="200" height="90" as="geometry" />
        </mxCell>
        <mxCell id="eGYr3inBb00eLCrS8vDI-52" value="EDITING = 1&lt;div&gt;DEFAULT = 0&lt;/div&gt;&lt;div&gt;CANCEL = -1&lt;/div&gt;" style="text;html=1;strokeColor=none;fillColor=none;align=left;verticalAlign=middle;spacingLeft=4;spacingRight=4;overflow=hidden;rotatable=0;points=[[0,0.5],[1,0.5]];portConstraint=eastwest;whiteSpace=wrap;fontFamily=Helvetica;fontSize=11;fontColor=default;labelBackgroundColor=default;" vertex="1" parent="eGYr3inBb00eLCrS8vDI-51">
          <mxGeometry y="40" width="200" height="50" as="geometry" />
        </mxCell>
        <mxCell id="eGYr3inBb00eLCrS8vDI-53" value="" style="html=1;verticalAlign=bottom;labelBackgroundColor=none;endArrow=open;endFill=0;dashed=1;rounded=0;strokeColor=default;align=center;fontFamily=Helvetica;fontSize=11;fontColor=default;edgeStyle=orthogonalEdgeStyle;" edge="1" parent="eGYr3inBb00eLCrS8vDI-121" source="eGYr3inBb00eLCrS8vDI-37" target="eGYr3inBb00eLCrS8vDI-51">
          <mxGeometry width="160" relative="1" as="geometry">
            <mxPoint x="170" y="337" as="sourcePoint" />
            <mxPoint x="330" y="337" as="targetPoint" />
          </mxGeometry>
        </mxCell>
        <mxCell id="n43T59U6szoglEBWc39S-182" value="Boundary" style="shape=folder;fontStyle=1;tabWidth=110;tabHeight=30;tabPosition=left;html=1;boundedLbl=1;labelInHeader=1;container=1;collapsible=0;whiteSpace=wrap;labelBackgroundColor=none;" vertex="1" parent="WIyWlLk6GJQsqaUBKTNV-1">
          <mxGeometry x="-970" width="2920" height="1630" as="geometry" />
        </mxCell>
        <mxCell id="n43T59U6szoglEBWc39S-183" value="" style="html=1;strokeColor=none;resizeWidth=1;resizeHeight=1;fillColor=none;part=1;connectable=0;allowArrows=0;deletable=0;whiteSpace=wrap;fontColor=none;noLabel=1;labelBackgroundColor=none;" vertex="1" parent="n43T59U6szoglEBWc39S-182">
          <mxGeometry width="2920" height="1141" relative="1" as="geometry">
            <mxPoint y="30" as="offset" />
          </mxGeometry>
        </mxCell>
        <mxCell id="n43T59U6szoglEBWc39S-184" value="" style="rounded=0;orthogonalLoop=1;jettySize=auto;html=1;endArrow=block;endFill=0;edgeStyle=orthogonalEdgeStyle;" edge="1" parent="n43T59U6szoglEBWc39S-182" source="7mrXc6vzGn_HgA6qBizn-0" target="n43T59U6szoglEBWc39S-10">
          <mxGeometry relative="1" as="geometry">
            <Array as="points">
              <mxPoint x="875" y="315" />
              <mxPoint x="1040" y="315" />
            </Array>
          </mxGeometry>
        </mxCell>
        <mxCell id="eGYr3inBb00eLCrS8vDI-13" style="edgeStyle=orthogonalEdgeStyle;rounded=0;orthogonalLoop=1;jettySize=auto;html=1;strokeColor=default;align=center;verticalAlign=middle;fontFamily=Helvetica;fontSize=11;fontColor=default;labelBackgroundColor=default;startArrow=cross;startFill=0;endArrow=open;endFill=0;" edge="1" parent="n43T59U6szoglEBWc39S-182" source="n43T59U6szoglEBWc39S-0" target="7mrXc6vzGn_HgA6qBizn-8">
          <mxGeometry relative="1" as="geometry">
            <Array as="points">
              <mxPoint x="875" y="565" />
              <mxPoint x="1100" y="565" />
              <mxPoint x="1100" y="395" />
            </Array>
          </mxGeometry>
        </mxCell>
        <mxCell id="eGYr3inBb00eLCrS8vDI-14" style="edgeStyle=orthogonalEdgeStyle;rounded=0;orthogonalLoop=1;jettySize=auto;html=1;strokeColor=default;align=center;verticalAlign=middle;fontFamily=Helvetica;fontSize=11;fontColor=default;labelBackgroundColor=default;startArrow=cross;startFill=0;endArrow=open;endFill=0;" edge="1" parent="n43T59U6szoglEBWc39S-182" source="n43T59U6szoglEBWc39S-5" target="n43T59U6szoglEBWc39S-158">
          <mxGeometry relative="1" as="geometry">
            <Array as="points">
              <mxPoint x="700" y="805" />
              <mxPoint x="700" y="455" />
            </Array>
          </mxGeometry>
        </mxCell>
        <mxCell id="7mrXc6vzGn_HgA6qBizn-0" value="&amp;lt;&amp;lt;boundary&amp;gt;&amp;gt;&lt;br&gt;&lt;b&gt;MainMenu&lt;/b&gt;" style="swimlane;fontStyle=0;align=center;verticalAlign=top;childLayout=stackLayout;horizontal=1;startSize=40;horizontalStack=0;resizeParent=1;resizeParentMax=0;resizeLast=0;collapsible=0;marginBottom=0;html=1;whiteSpace=wrap;" parent="n43T59U6szoglEBWc39S-182" vertex="1">
          <mxGeometry x="775" y="335" width="200" height="110" as="geometry" />
        </mxCell>
        <mxCell id="7mrXc6vzGn_HgA6qBizn-1" value="attributes" style="text;html=1;strokeColor=none;fillColor=none;align=center;verticalAlign=middle;spacingLeft=4;spacingRight=4;overflow=hidden;rotatable=0;points=[[0,0.5],[1,0.5]];portConstraint=eastwest;whiteSpace=wrap;" parent="7mrXc6vzGn_HgA6qBizn-0" vertex="1">
          <mxGeometry y="40" width="200" height="20" as="geometry" />
        </mxCell>
        <mxCell id="7mrXc6vzGn_HgA6qBizn-5" value="" style="line;strokeWidth=1;fillColor=none;align=left;verticalAlign=middle;spacingTop=-1;spacingLeft=3;spacingRight=3;rotatable=0;labelPosition=right;points=[];portConstraint=eastwest;" parent="7mrXc6vzGn_HgA6qBizn-0" vertex="1">
          <mxGeometry y="60" width="200" height="8" as="geometry" />
        </mxCell>
        <mxCell id="7mrXc6vzGn_HgA6qBizn-6" value="operations" style="text;html=1;strokeColor=none;fillColor=none;align=center;verticalAlign=middle;spacingLeft=4;spacingRight=4;overflow=hidden;rotatable=0;points=[[0,0.5],[1,0.5]];portConstraint=eastwest;whiteSpace=wrap;" parent="7mrXc6vzGn_HgA6qBizn-0" vertex="1">
          <mxGeometry y="68" width="200" height="20" as="geometry" />
        </mxCell>
        <mxCell id="7mrXc6vzGn_HgA6qBizn-7" value="&lt;div&gt;+restartInstance():void&lt;/div&gt;" style="text;html=1;strokeColor=none;fillColor=none;align=left;verticalAlign=middle;spacingLeft=4;spacingRight=4;overflow=hidden;rotatable=0;points=[[0,0.5],[1,0.5]];portConstraint=eastwest;whiteSpace=wrap;" parent="7mrXc6vzGn_HgA6qBizn-0" vertex="1">
          <mxGeometry y="88" width="200" height="22" as="geometry" />
        </mxCell>
        <mxCell id="n43T59U6szoglEBWc39S-193" style="edgeStyle=orthogonalEdgeStyle;rounded=0;orthogonalLoop=1;jettySize=auto;html=1;strokeColor=default;align=center;verticalAlign=middle;fontFamily=Helvetica;fontSize=11;fontColor=default;labelBackgroundColor=default;endArrow=block;endFill=0;" edge="1" parent="n43T59U6szoglEBWc39S-182" source="7mrXc6vzGn_HgA6qBizn-8" target="n43T59U6szoglEBWc39S-10">
          <mxGeometry relative="1" as="geometry">
            <Array as="points">
              <mxPoint x="1400" y="315" />
              <mxPoint x="1180" y="315" />
            </Array>
          </mxGeometry>
        </mxCell>
        <mxCell id="eGYr3inBb00eLCrS8vDI-11" value="" style="edgeStyle=orthogonalEdgeStyle;rounded=0;orthogonalLoop=1;jettySize=auto;html=1;strokeColor=default;align=center;verticalAlign=middle;fontFamily=Helvetica;fontSize=11;fontColor=default;labelBackgroundColor=default;startArrow=cross;startFill=0;endArrow=open;endFill=0;" edge="1" parent="n43T59U6szoglEBWc39S-182" source="n43T59U6szoglEBWc39S-18" target="n43T59U6szoglEBWc39S-35">
          <mxGeometry relative="1" as="geometry">
            <Array as="points">
              <mxPoint x="1260" y="545" />
              <mxPoint x="1490" y="545" />
            </Array>
          </mxGeometry>
        </mxCell>
        <mxCell id="eGYr3inBb00eLCrS8vDI-15" style="edgeStyle=orthogonalEdgeStyle;rounded=0;orthogonalLoop=1;jettySize=auto;html=1;strokeColor=default;align=center;verticalAlign=middle;fontFamily=Helvetica;fontSize=11;fontColor=default;labelBackgroundColor=default;startArrow=cross;startFill=0;endArrow=open;endFill=0;" edge="1" parent="n43T59U6szoglEBWc39S-182" source="n43T59U6szoglEBWc39S-28" target="n43T59U6szoglEBWc39S-45">
          <mxGeometry relative="1" as="geometry">
            <Array as="points">
              <mxPoint x="1400" y="855" />
              <mxPoint x="1400" y="295" />
              <mxPoint x="2320" y="295" />
            </Array>
          </mxGeometry>
        </mxCell>
        <mxCell id="7mrXc6vzGn_HgA6qBizn-8" value="&amp;lt;&amp;lt;boundary&amp;gt;&amp;gt;&lt;br&gt;&lt;b&gt;ProfileSelectionScreen&lt;/b&gt;" style="swimlane;fontStyle=0;align=center;verticalAlign=top;childLayout=stackLayout;horizontal=1;startSize=40;horizontalStack=0;resizeParent=1;resizeParentMax=0;resizeLast=0;collapsible=0;marginBottom=0;html=1;whiteSpace=wrap;" parent="n43T59U6szoglEBWc39S-182" vertex="1">
          <mxGeometry x="1160" y="335" width="200" height="120" as="geometry" />
        </mxCell>
        <mxCell id="7mrXc6vzGn_HgA6qBizn-9" value="attributes" style="text;html=1;strokeColor=none;fillColor=none;align=center;verticalAlign=middle;spacingLeft=4;spacingRight=4;overflow=hidden;rotatable=0;points=[[0,0.5],[1,0.5]];portConstraint=eastwest;whiteSpace=wrap;" parent="7mrXc6vzGn_HgA6qBizn-8" vertex="1">
          <mxGeometry y="40" width="200" height="20" as="geometry" />
        </mxCell>
        <mxCell id="7mrXc6vzGn_HgA6qBizn-10" value="" style="line;strokeWidth=1;fillColor=none;align=left;verticalAlign=middle;spacingTop=-1;spacingLeft=3;spacingRight=3;rotatable=0;labelPosition=right;points=[];portConstraint=eastwest;" parent="7mrXc6vzGn_HgA6qBizn-8" vertex="1">
          <mxGeometry y="60" width="200" height="8" as="geometry" />
        </mxCell>
        <mxCell id="7mrXc6vzGn_HgA6qBizn-11" value="operations" style="text;html=1;strokeColor=none;fillColor=none;align=center;verticalAlign=middle;spacingLeft=4;spacingRight=4;overflow=hidden;rotatable=0;points=[[0,0.5],[1,0.5]];portConstraint=eastwest;whiteSpace=wrap;" parent="7mrXc6vzGn_HgA6qBizn-8" vertex="1">
          <mxGeometry y="68" width="200" height="20" as="geometry" />
        </mxCell>
        <mxCell id="7mrXc6vzGn_HgA6qBizn-12" value="&lt;div&gt;+destroyOverlay():void&lt;/div&gt;&lt;div&gt;+showProfileSelectionScreen():void&lt;/div&gt;" style="text;html=1;strokeColor=none;fillColor=none;align=left;verticalAlign=middle;spacingLeft=4;spacingRight=4;overflow=hidden;rotatable=0;points=[[0,0.5],[1,0.5]];portConstraint=eastwest;whiteSpace=wrap;" parent="7mrXc6vzGn_HgA6qBizn-8" vertex="1">
          <mxGeometry y="88" width="200" height="32" as="geometry" />
        </mxCell>
        <mxCell id="n43T59U6szoglEBWc39S-0" value="&amp;lt;&amp;lt;interface&amp;gt;&amp;gt;&lt;br&gt;&lt;b&gt;PlayButton&lt;/b&gt;" style="swimlane;fontStyle=0;align=center;verticalAlign=top;childLayout=stackLayout;horizontal=1;startSize=40;horizontalStack=0;resizeParent=1;resizeParentMax=0;resizeLast=0;collapsible=0;marginBottom=0;html=1;whiteSpace=wrap;" parent="n43T59U6szoglEBWc39S-182" vertex="1">
          <mxGeometry x="775" y="595" width="200" height="110" as="geometry" />
        </mxCell>
        <mxCell id="n43T59U6szoglEBWc39S-1" value="attributes" style="text;html=1;strokeColor=none;fillColor=none;align=center;verticalAlign=middle;spacingLeft=4;spacingRight=4;overflow=hidden;rotatable=0;points=[[0,0.5],[1,0.5]];portConstraint=eastwest;whiteSpace=wrap;" parent="n43T59U6szoglEBWc39S-0" vertex="1">
          <mxGeometry y="40" width="200" height="20" as="geometry" />
        </mxCell>
        <mxCell id="n43T59U6szoglEBWc39S-2" value="" style="line;strokeWidth=1;fillColor=none;align=left;verticalAlign=middle;spacingTop=-1;spacingLeft=3;spacingRight=3;rotatable=0;labelPosition=right;points=[];portConstraint=eastwest;" parent="n43T59U6szoglEBWc39S-0" vertex="1">
          <mxGeometry y="60" width="200" height="8" as="geometry" />
        </mxCell>
        <mxCell id="n43T59U6szoglEBWc39S-3" value="operations" style="text;html=1;strokeColor=none;fillColor=none;align=center;verticalAlign=middle;spacingLeft=4;spacingRight=4;overflow=hidden;rotatable=0;points=[[0,0.5],[1,0.5]];portConstraint=eastwest;whiteSpace=wrap;" parent="n43T59U6szoglEBWc39S-0" vertex="1">
          <mxGeometry y="68" width="200" height="20" as="geometry" />
        </mxCell>
        <mxCell id="n43T59U6szoglEBWc39S-4" value="+pressPlay():void" style="text;html=1;strokeColor=none;fillColor=none;align=left;verticalAlign=middle;spacingLeft=4;spacingRight=4;overflow=hidden;rotatable=0;points=[[0,0.5],[1,0.5]];portConstraint=eastwest;whiteSpace=wrap;" parent="n43T59U6szoglEBWc39S-0" vertex="1">
          <mxGeometry y="88" width="200" height="22" as="geometry" />
        </mxCell>
        <mxCell id="n43T59U6szoglEBWc39S-204" style="edgeStyle=orthogonalEdgeStyle;rounded=0;orthogonalLoop=1;jettySize=auto;html=1;strokeColor=default;align=center;verticalAlign=middle;fontFamily=Helvetica;fontSize=11;fontColor=default;labelBackgroundColor=default;endArrow=block;endFill=0;" edge="1" parent="n43T59U6szoglEBWc39S-182" source="n43T59U6szoglEBWc39S-5" target="n43T59U6szoglEBWc39S-34">
          <mxGeometry relative="1" as="geometry">
            <Array as="points">
              <mxPoint x="990" y="770" />
              <mxPoint x="990" y="965" />
            </Array>
          </mxGeometry>
        </mxCell>
        <mxCell id="n43T59U6szoglEBWc39S-233" style="edgeStyle=orthogonalEdgeStyle;rounded=0;orthogonalLoop=1;jettySize=auto;html=1;strokeColor=default;align=center;verticalAlign=middle;fontFamily=Helvetica;fontSize=11;fontColor=default;labelBackgroundColor=default;endArrow=diamondThin;endFill=0;endSize=24;" edge="1" parent="n43T59U6szoglEBWc39S-182" source="n43T59U6szoglEBWc39S-5" target="7mrXc6vzGn_HgA6qBizn-0">
          <mxGeometry relative="1" as="geometry">
            <Array as="points">
              <mxPoint x="750" y="770" />
              <mxPoint x="750" y="555" />
              <mxPoint x="875" y="555" />
            </Array>
          </mxGeometry>
        </mxCell>
        <mxCell id="n43T59U6szoglEBWc39S-5" value="&amp;lt;&amp;lt;interface&amp;gt;&amp;gt;&lt;br&gt;&lt;b&gt;LevelEditorButton&lt;/b&gt;" style="swimlane;fontStyle=0;align=center;verticalAlign=top;childLayout=stackLayout;horizontal=1;startSize=40;horizontalStack=0;resizeParent=1;resizeParentMax=0;resizeLast=0;collapsible=0;marginBottom=0;html=1;whiteSpace=wrap;" parent="n43T59U6szoglEBWc39S-182" vertex="1">
          <mxGeometry x="775" y="715" width="200" height="110" as="geometry" />
        </mxCell>
        <mxCell id="n43T59U6szoglEBWc39S-6" value="attributes" style="text;html=1;strokeColor=none;fillColor=none;align=center;verticalAlign=middle;spacingLeft=4;spacingRight=4;overflow=hidden;rotatable=0;points=[[0,0.5],[1,0.5]];portConstraint=eastwest;whiteSpace=wrap;" parent="n43T59U6szoglEBWc39S-5" vertex="1">
          <mxGeometry y="40" width="200" height="20" as="geometry" />
        </mxCell>
        <mxCell id="n43T59U6szoglEBWc39S-7" value="" style="line;strokeWidth=1;fillColor=none;align=left;verticalAlign=middle;spacingTop=-1;spacingLeft=3;spacingRight=3;rotatable=0;labelPosition=right;points=[];portConstraint=eastwest;" parent="n43T59U6szoglEBWc39S-5" vertex="1">
          <mxGeometry y="60" width="200" height="8" as="geometry" />
        </mxCell>
        <mxCell id="n43T59U6szoglEBWc39S-8" value="operations" style="text;html=1;strokeColor=none;fillColor=none;align=center;verticalAlign=middle;spacingLeft=4;spacingRight=4;overflow=hidden;rotatable=0;points=[[0,0.5],[1,0.5]];portConstraint=eastwest;whiteSpace=wrap;" parent="n43T59U6szoglEBWc39S-5" vertex="1">
          <mxGeometry y="68" width="200" height="20" as="geometry" />
        </mxCell>
        <mxCell id="n43T59U6szoglEBWc39S-9" value="+pressLevelEditor():void" style="text;html=1;strokeColor=none;fillColor=none;align=left;verticalAlign=middle;spacingLeft=4;spacingRight=4;overflow=hidden;rotatable=0;points=[[0,0.5],[1,0.5]];portConstraint=eastwest;whiteSpace=wrap;" parent="n43T59U6szoglEBWc39S-5" vertex="1">
          <mxGeometry y="88" width="200" height="22" as="geometry" />
        </mxCell>
        <mxCell id="n43T59U6szoglEBWc39S-202" style="edgeStyle=orthogonalEdgeStyle;rounded=0;orthogonalLoop=1;jettySize=auto;html=1;strokeColor=default;align=center;verticalAlign=middle;fontFamily=Helvetica;fontSize=11;fontColor=default;labelBackgroundColor=default;endArrow=block;endFill=0;" edge="1" parent="n43T59U6szoglEBWc39S-182" source="n43T59U6szoglEBWc39S-10" target="eGYr3inBb00eLCrS8vDI-0">
          <mxGeometry relative="1" as="geometry">
            <mxPoint x="1040" y="65" as="targetPoint" />
            <Array as="points" />
          </mxGeometry>
        </mxCell>
        <mxCell id="n43T59U6szoglEBWc39S-10" value="&amp;lt;&amp;lt;interface&amp;gt;&amp;gt;&lt;br&gt;&lt;b&gt;Frame&lt;/b&gt;" style="swimlane;fontStyle=0;align=center;verticalAlign=top;childLayout=stackLayout;horizontal=1;startSize=40;horizontalStack=0;resizeParent=1;resizeParentMax=0;resizeLast=0;collapsible=0;marginBottom=0;html=1;whiteSpace=wrap;" parent="n43T59U6szoglEBWc39S-182" vertex="1">
          <mxGeometry x="940" y="155" width="200" height="108" as="geometry" />
        </mxCell>
        <mxCell id="n43T59U6szoglEBWc39S-11" value="attributes" style="text;html=1;strokeColor=none;fillColor=none;align=center;verticalAlign=middle;spacingLeft=4;spacingRight=4;overflow=hidden;rotatable=0;points=[[0,0.5],[1,0.5]];portConstraint=eastwest;whiteSpace=wrap;" parent="n43T59U6szoglEBWc39S-10" vertex="1">
          <mxGeometry y="40" width="200" height="20" as="geometry" />
        </mxCell>
        <mxCell id="n43T59U6szoglEBWc39S-15" value="" style="line;strokeWidth=1;fillColor=none;align=left;verticalAlign=middle;spacingTop=-1;spacingLeft=3;spacingRight=3;rotatable=0;labelPosition=right;points=[];portConstraint=eastwest;" parent="n43T59U6szoglEBWc39S-10" vertex="1">
          <mxGeometry y="60" width="200" height="8" as="geometry" />
        </mxCell>
        <mxCell id="n43T59U6szoglEBWc39S-16" value="operations" style="text;html=1;strokeColor=none;fillColor=none;align=center;verticalAlign=middle;spacingLeft=4;spacingRight=4;overflow=hidden;rotatable=0;points=[[0,0.5],[1,0.5]];portConstraint=eastwest;whiteSpace=wrap;" parent="n43T59U6szoglEBWc39S-10" vertex="1">
          <mxGeometry y="68" width="200" height="20" as="geometry" />
        </mxCell>
        <mxCell id="n43T59U6szoglEBWc39S-17" value="+hideScreen():void" style="text;html=1;strokeColor=none;fillColor=none;align=left;verticalAlign=middle;spacingLeft=4;spacingRight=4;overflow=hidden;rotatable=0;points=[[0,0.5],[1,0.5]];portConstraint=eastwest;whiteSpace=wrap;" parent="n43T59U6szoglEBWc39S-10" vertex="1">
          <mxGeometry y="88" width="200" height="20" as="geometry" />
        </mxCell>
        <mxCell id="n43T59U6szoglEBWc39S-205" style="edgeStyle=orthogonalEdgeStyle;rounded=0;orthogonalLoop=1;jettySize=auto;html=1;strokeColor=default;align=center;verticalAlign=middle;fontFamily=Helvetica;fontSize=11;fontColor=default;labelBackgroundColor=default;endArrow=block;endFill=0;" edge="1" parent="n43T59U6szoglEBWc39S-182" source="n43T59U6szoglEBWc39S-18" target="n43T59U6szoglEBWc39S-34">
          <mxGeometry relative="1" as="geometry">
            <Array as="points">
              <mxPoint x="1370" y="650" />
              <mxPoint x="1370" y="965" />
            </Array>
          </mxGeometry>
        </mxCell>
        <mxCell id="n43T59U6szoglEBWc39S-235" style="edgeStyle=orthogonalEdgeStyle;rounded=0;orthogonalLoop=1;jettySize=auto;html=1;strokeColor=default;align=center;verticalAlign=middle;fontFamily=Helvetica;fontSize=11;fontColor=default;labelBackgroundColor=default;endArrow=diamondThin;endFill=0;endSize=24;" edge="1" parent="n43T59U6szoglEBWc39S-182" source="n43T59U6szoglEBWc39S-18" target="7mrXc6vzGn_HgA6qBizn-8">
          <mxGeometry relative="1" as="geometry">
            <Array as="points">
              <mxPoint x="1140" y="650" />
              <mxPoint x="1140" y="525" />
              <mxPoint x="1260" y="525" />
            </Array>
          </mxGeometry>
        </mxCell>
        <mxCell id="n43T59U6szoglEBWc39S-18" value="&amp;lt;&amp;lt;interface&amp;gt;&amp;gt;&lt;br&gt;&lt;b&gt;CreateProfileButton&lt;/b&gt;" style="swimlane;fontStyle=0;align=center;verticalAlign=top;childLayout=stackLayout;horizontal=1;startSize=40;horizontalStack=0;resizeParent=1;resizeParentMax=0;resizeLast=0;collapsible=0;marginBottom=0;html=1;whiteSpace=wrap;" parent="n43T59U6szoglEBWc39S-182" vertex="1">
          <mxGeometry x="1160" y="595" width="200" height="110" as="geometry" />
        </mxCell>
        <mxCell id="n43T59U6szoglEBWc39S-19" value="attributes" style="text;html=1;strokeColor=none;fillColor=none;align=center;verticalAlign=middle;spacingLeft=4;spacingRight=4;overflow=hidden;rotatable=0;points=[[0,0.5],[1,0.5]];portConstraint=eastwest;whiteSpace=wrap;" parent="n43T59U6szoglEBWc39S-18" vertex="1">
          <mxGeometry y="40" width="200" height="20" as="geometry" />
        </mxCell>
        <mxCell id="n43T59U6szoglEBWc39S-20" value="" style="line;strokeWidth=1;fillColor=none;align=left;verticalAlign=middle;spacingTop=-1;spacingLeft=3;spacingRight=3;rotatable=0;labelPosition=right;points=[];portConstraint=eastwest;" parent="n43T59U6szoglEBWc39S-18" vertex="1">
          <mxGeometry y="60" width="200" height="8" as="geometry" />
        </mxCell>
        <mxCell id="n43T59U6szoglEBWc39S-21" value="operations" style="text;html=1;strokeColor=none;fillColor=none;align=center;verticalAlign=middle;spacingLeft=4;spacingRight=4;overflow=hidden;rotatable=0;points=[[0,0.5],[1,0.5]];portConstraint=eastwest;whiteSpace=wrap;" parent="n43T59U6szoglEBWc39S-18" vertex="1">
          <mxGeometry y="68" width="200" height="20" as="geometry" />
        </mxCell>
        <mxCell id="n43T59U6szoglEBWc39S-22" value="+pressCreateProfile():void" style="text;html=1;strokeColor=none;fillColor=none;align=left;verticalAlign=middle;spacingLeft=4;spacingRight=4;overflow=hidden;rotatable=0;points=[[0,0.5],[1,0.5]];portConstraint=eastwest;whiteSpace=wrap;" parent="n43T59U6szoglEBWc39S-18" vertex="1">
          <mxGeometry y="88" width="200" height="22" as="geometry" />
        </mxCell>
        <mxCell id="n43T59U6szoglEBWc39S-206" style="edgeStyle=orthogonalEdgeStyle;rounded=0;orthogonalLoop=1;jettySize=auto;html=1;strokeColor=default;align=center;verticalAlign=middle;fontFamily=Helvetica;fontSize=11;fontColor=default;labelBackgroundColor=default;endArrow=block;endFill=0;" edge="1" parent="n43T59U6szoglEBWc39S-182" source="n43T59U6szoglEBWc39S-23" target="n43T59U6szoglEBWc39S-34">
          <mxGeometry relative="1" as="geometry">
            <Array as="points">
              <mxPoint x="1370" y="770" />
              <mxPoint x="1370" y="965" />
            </Array>
          </mxGeometry>
        </mxCell>
        <mxCell id="n43T59U6szoglEBWc39S-236" style="edgeStyle=orthogonalEdgeStyle;rounded=0;orthogonalLoop=1;jettySize=auto;html=1;strokeColor=default;align=center;verticalAlign=middle;fontFamily=Helvetica;fontSize=11;fontColor=default;labelBackgroundColor=default;endArrow=diamondThin;endFill=0;endSize=24;" edge="1" parent="n43T59U6szoglEBWc39S-182" source="n43T59U6szoglEBWc39S-23" target="7mrXc6vzGn_HgA6qBizn-8">
          <mxGeometry relative="1" as="geometry">
            <Array as="points">
              <mxPoint x="1140" y="770" />
              <mxPoint x="1140" y="525" />
              <mxPoint x="1260" y="525" />
            </Array>
          </mxGeometry>
        </mxCell>
        <mxCell id="eGYr3inBb00eLCrS8vDI-34" style="edgeStyle=orthogonalEdgeStyle;rounded=0;orthogonalLoop=1;jettySize=auto;html=1;strokeColor=default;align=center;verticalAlign=middle;fontFamily=Helvetica;fontSize=11;fontColor=default;labelBackgroundColor=default;startArrow=cross;startFill=0;endArrow=open;endFill=0;" edge="1" parent="n43T59U6szoglEBWc39S-182" source="n43T59U6szoglEBWc39S-23" target="n43T59U6szoglEBWc39S-40">
          <mxGeometry relative="1" as="geometry">
            <Array as="points">
              <mxPoint x="1390" y="735" />
              <mxPoint x="1390" y="555" />
              <mxPoint x="1770" y="555" />
            </Array>
          </mxGeometry>
        </mxCell>
        <mxCell id="n43T59U6szoglEBWc39S-23" value="&amp;lt;&amp;lt;interface&amp;gt;&amp;gt;&lt;br&gt;&lt;b&gt;DeleteProfileButton&lt;/b&gt;" style="swimlane;fontStyle=0;align=center;verticalAlign=top;childLayout=stackLayout;horizontal=1;startSize=40;horizontalStack=0;resizeParent=1;resizeParentMax=0;resizeLast=0;collapsible=0;marginBottom=0;html=1;whiteSpace=wrap;" parent="n43T59U6szoglEBWc39S-182" vertex="1">
          <mxGeometry x="1160" y="715" width="200" height="110" as="geometry" />
        </mxCell>
        <mxCell id="n43T59U6szoglEBWc39S-24" value="attributes" style="text;html=1;strokeColor=none;fillColor=none;align=center;verticalAlign=middle;spacingLeft=4;spacingRight=4;overflow=hidden;rotatable=0;points=[[0,0.5],[1,0.5]];portConstraint=eastwest;whiteSpace=wrap;" parent="n43T59U6szoglEBWc39S-23" vertex="1">
          <mxGeometry y="40" width="200" height="20" as="geometry" />
        </mxCell>
        <mxCell id="n43T59U6szoglEBWc39S-25" value="" style="line;strokeWidth=1;fillColor=none;align=left;verticalAlign=middle;spacingTop=-1;spacingLeft=3;spacingRight=3;rotatable=0;labelPosition=right;points=[];portConstraint=eastwest;" parent="n43T59U6szoglEBWc39S-23" vertex="1">
          <mxGeometry y="60" width="200" height="8" as="geometry" />
        </mxCell>
        <mxCell id="n43T59U6szoglEBWc39S-26" value="operations" style="text;html=1;strokeColor=none;fillColor=none;align=center;verticalAlign=middle;spacingLeft=4;spacingRight=4;overflow=hidden;rotatable=0;points=[[0,0.5],[1,0.5]];portConstraint=eastwest;whiteSpace=wrap;" parent="n43T59U6szoglEBWc39S-23" vertex="1">
          <mxGeometry y="68" width="200" height="20" as="geometry" />
        </mxCell>
        <mxCell id="n43T59U6szoglEBWc39S-27" value="+pressDeleteProfile():void" style="text;html=1;strokeColor=none;fillColor=none;align=left;verticalAlign=middle;spacingLeft=4;spacingRight=4;overflow=hidden;rotatable=0;points=[[0,0.5],[1,0.5]];portConstraint=eastwest;whiteSpace=wrap;" parent="n43T59U6szoglEBWc39S-23" vertex="1">
          <mxGeometry y="88" width="200" height="22" as="geometry" />
        </mxCell>
        <mxCell id="n43T59U6szoglEBWc39S-237" style="edgeStyle=orthogonalEdgeStyle;rounded=0;orthogonalLoop=1;jettySize=auto;html=1;strokeColor=default;align=center;verticalAlign=middle;fontFamily=Helvetica;fontSize=11;fontColor=default;labelBackgroundColor=default;endArrow=diamondThin;endFill=0;endSize=24;" edge="1" parent="n43T59U6szoglEBWc39S-182" source="n43T59U6szoglEBWc39S-28" target="7mrXc6vzGn_HgA6qBizn-8">
          <mxGeometry relative="1" as="geometry">
            <Array as="points">
              <mxPoint x="1140" y="890" />
              <mxPoint x="1140" y="525" />
              <mxPoint x="1260" y="525" />
            </Array>
          </mxGeometry>
        </mxCell>
        <mxCell id="n43T59U6szoglEBWc39S-28" value="&amp;lt;&amp;lt;interface&amp;gt;&amp;gt;&lt;br&gt;&lt;b&gt;ProfileButton&lt;/b&gt;" style="swimlane;fontStyle=0;align=center;verticalAlign=top;childLayout=stackLayout;horizontal=1;startSize=40;horizontalStack=0;resizeParent=1;resizeParentMax=0;resizeLast=0;collapsible=0;marginBottom=0;html=1;whiteSpace=wrap;" parent="n43T59U6szoglEBWc39S-182" vertex="1">
          <mxGeometry x="1160" y="835" width="200" height="110" as="geometry" />
        </mxCell>
        <mxCell id="n43T59U6szoglEBWc39S-29" value="attributes" style="text;html=1;strokeColor=none;fillColor=none;align=center;verticalAlign=middle;spacingLeft=4;spacingRight=4;overflow=hidden;rotatable=0;points=[[0,0.5],[1,0.5]];portConstraint=eastwest;whiteSpace=wrap;" parent="n43T59U6szoglEBWc39S-28" vertex="1">
          <mxGeometry y="40" width="200" height="20" as="geometry" />
        </mxCell>
        <mxCell id="n43T59U6szoglEBWc39S-30" value="" style="line;strokeWidth=1;fillColor=none;align=left;verticalAlign=middle;spacingTop=-1;spacingLeft=3;spacingRight=3;rotatable=0;labelPosition=right;points=[];portConstraint=eastwest;" parent="n43T59U6szoglEBWc39S-28" vertex="1">
          <mxGeometry y="60" width="200" height="8" as="geometry" />
        </mxCell>
        <mxCell id="n43T59U6szoglEBWc39S-31" value="operations" style="text;html=1;strokeColor=none;fillColor=none;align=center;verticalAlign=middle;spacingLeft=4;spacingRight=4;overflow=hidden;rotatable=0;points=[[0,0.5],[1,0.5]];portConstraint=eastwest;whiteSpace=wrap;" parent="n43T59U6szoglEBWc39S-28" vertex="1">
          <mxGeometry y="68" width="200" height="20" as="geometry" />
        </mxCell>
        <mxCell id="n43T59U6szoglEBWc39S-32" value="+pressProfile():void" style="text;html=1;strokeColor=none;fillColor=none;align=left;verticalAlign=middle;spacingLeft=4;spacingRight=4;overflow=hidden;rotatable=0;points=[[0,0.5],[1,0.5]];portConstraint=eastwest;whiteSpace=wrap;" parent="n43T59U6szoglEBWc39S-28" vertex="1">
          <mxGeometry y="88" width="200" height="22" as="geometry" />
        </mxCell>
        <mxCell id="n43T59U6szoglEBWc39S-34" value="QPushButton&lt;br&gt;&lt;b&gt;Button&lt;/b&gt;" style="html=1;whiteSpace=wrap;" parent="n43T59U6szoglEBWc39S-182" vertex="1">
          <mxGeometry x="770" y="945" width="110" height="50" as="geometry" />
        </mxCell>
        <mxCell id="n43T59U6szoglEBWc39S-194" style="edgeStyle=orthogonalEdgeStyle;rounded=0;orthogonalLoop=1;jettySize=auto;html=1;strokeColor=default;align=center;verticalAlign=middle;fontFamily=Helvetica;fontSize=11;fontColor=default;labelBackgroundColor=default;endArrow=block;endFill=0;" edge="1" parent="n43T59U6szoglEBWc39S-182" source="n43T59U6szoglEBWc39S-35" target="n43T59U6szoglEBWc39S-10">
          <mxGeometry relative="1" as="geometry">
            <Array as="points">
              <mxPoint x="1620" y="315" />
              <mxPoint x="1040" y="315" />
            </Array>
          </mxGeometry>
        </mxCell>
        <mxCell id="eGYr3inBb00eLCrS8vDI-12" value="" style="edgeStyle=orthogonalEdgeStyle;rounded=0;orthogonalLoop=1;jettySize=auto;html=1;strokeColor=default;align=center;verticalAlign=middle;fontFamily=Helvetica;fontSize=11;fontColor=default;labelBackgroundColor=default;startArrow=cross;startFill=0;endArrow=open;endFill=0;" edge="1" parent="n43T59U6szoglEBWc39S-182" source="n43T59U6szoglEBWc39S-35" target="n43T59U6szoglEBWc39S-40">
          <mxGeometry relative="1" as="geometry" />
        </mxCell>
        <mxCell id="n43T59U6szoglEBWc39S-35" value="&amp;lt;&amp;lt;boundary&amp;gt;&amp;gt;&lt;br&gt;&lt;b&gt;ProfileCreationOverlay&lt;/b&gt;" style="swimlane;fontStyle=0;align=center;verticalAlign=top;childLayout=stackLayout;horizontal=1;startSize=40;horizontalStack=0;resizeParent=1;resizeParentMax=0;resizeLast=0;collapsible=0;marginBottom=0;html=1;whiteSpace=wrap;" parent="n43T59U6szoglEBWc39S-182" vertex="1">
          <mxGeometry x="1460" y="335" width="200" height="180" as="geometry" />
        </mxCell>
        <mxCell id="n43T59U6szoglEBWc39S-36" value="attributes" style="text;html=1;strokeColor=none;fillColor=none;align=center;verticalAlign=middle;spacingLeft=4;spacingRight=4;overflow=hidden;rotatable=0;points=[[0,0.5],[1,0.5]];portConstraint=eastwest;whiteSpace=wrap;" parent="n43T59U6szoglEBWc39S-35" vertex="1">
          <mxGeometry y="40" width="200" height="20" as="geometry" />
        </mxCell>
        <mxCell id="n43T59U6szoglEBWc39S-180" value="-imageId: int = 1&lt;div&gt;-name: char[20]&lt;/div&gt;" style="text;html=1;strokeColor=none;fillColor=none;align=left;verticalAlign=middle;spacingLeft=4;spacingRight=4;overflow=hidden;rotatable=0;points=[[0,0.5],[1,0.5]];portConstraint=eastwest;whiteSpace=wrap;" vertex="1" parent="n43T59U6szoglEBWc39S-35">
          <mxGeometry y="60" width="200" height="30" as="geometry" />
        </mxCell>
        <mxCell id="n43T59U6szoglEBWc39S-37" value="" style="line;strokeWidth=1;fillColor=none;align=left;verticalAlign=middle;spacingTop=-1;spacingLeft=3;spacingRight=3;rotatable=0;labelPosition=right;points=[];portConstraint=eastwest;" parent="n43T59U6szoglEBWc39S-35" vertex="1">
          <mxGeometry y="90" width="200" height="8" as="geometry" />
        </mxCell>
        <mxCell id="n43T59U6szoglEBWc39S-38" value="operations" style="text;html=1;strokeColor=none;fillColor=none;align=center;verticalAlign=middle;spacingLeft=4;spacingRight=4;overflow=hidden;rotatable=0;points=[[0,0.5],[1,0.5]];portConstraint=eastwest;whiteSpace=wrap;" parent="n43T59U6szoglEBWc39S-35" vertex="1">
          <mxGeometry y="98" width="200" height="20" as="geometry" />
        </mxCell>
        <mxCell id="n43T59U6szoglEBWc39S-39" value="&lt;div&gt;&lt;span style=&quot;background-color: initial;&quot;&gt;+showProfileCreationOverlay():void&lt;/span&gt;&lt;/div&gt;&lt;div&gt;&lt;span style=&quot;background-color: initial;&quot;&gt;+setUser(name, imgId):void&lt;/span&gt;&lt;/div&gt;&lt;div&gt;+getUser():char[20], int&lt;/div&gt;&lt;div&gt;&lt;span style=&quot;background-color: initial;&quot;&gt;-userError():void&lt;/span&gt;&lt;/div&gt;" style="text;html=1;strokeColor=none;fillColor=none;align=left;verticalAlign=middle;spacingLeft=4;spacingRight=4;overflow=hidden;rotatable=0;points=[[0,0.5],[1,0.5]];portConstraint=eastwest;whiteSpace=wrap;" parent="n43T59U6szoglEBWc39S-35" vertex="1">
          <mxGeometry y="118" width="200" height="62" as="geometry" />
        </mxCell>
        <mxCell id="n43T59U6szoglEBWc39S-195" style="edgeStyle=orthogonalEdgeStyle;rounded=0;orthogonalLoop=1;jettySize=auto;html=1;strokeColor=default;align=center;verticalAlign=middle;fontFamily=Helvetica;fontSize=11;fontColor=default;labelBackgroundColor=default;endArrow=block;endFill=0;" edge="1" parent="n43T59U6szoglEBWc39S-182" source="n43T59U6szoglEBWc39S-40" target="n43T59U6szoglEBWc39S-10">
          <mxGeometry relative="1" as="geometry">
            <Array as="points">
              <mxPoint x="1840" y="315" />
              <mxPoint x="1040" y="315" />
            </Array>
          </mxGeometry>
        </mxCell>
        <mxCell id="eGYr3inBb00eLCrS8vDI-18" style="edgeStyle=orthogonalEdgeStyle;rounded=0;orthogonalLoop=1;jettySize=auto;html=1;strokeColor=default;align=center;verticalAlign=middle;fontFamily=Helvetica;fontSize=11;fontColor=default;labelBackgroundColor=default;startArrow=cross;startFill=0;endArrow=open;endFill=0;" edge="1" parent="n43T59U6szoglEBWc39S-182" source="n43T59U6szoglEBWc39S-94" target="7mrXc6vzGn_HgA6qBizn-8">
          <mxGeometry relative="1" as="geometry">
            <Array as="points">
              <mxPoint x="1980" y="615" />
              <mxPoint x="1980" y="275" />
              <mxPoint x="1100" y="275" />
              <mxPoint x="1100" y="355" />
            </Array>
          </mxGeometry>
        </mxCell>
        <mxCell id="n43T59U6szoglEBWc39S-40" value="&amp;lt;&amp;lt;boundary&amp;gt;&amp;gt;&lt;br&gt;&lt;b&gt;ConfirmationOverlay&lt;/b&gt;" style="swimlane;fontStyle=0;align=center;verticalAlign=top;childLayout=stackLayout;horizontal=1;startSize=40;horizontalStack=0;resizeParent=1;resizeParentMax=0;resizeLast=0;collapsible=0;marginBottom=0;html=1;whiteSpace=wrap;" parent="n43T59U6szoglEBWc39S-182" vertex="1">
          <mxGeometry x="1740" y="335" width="200" height="110" as="geometry" />
        </mxCell>
        <mxCell id="n43T59U6szoglEBWc39S-41" value="attributes" style="text;html=1;strokeColor=none;fillColor=none;align=center;verticalAlign=middle;spacingLeft=4;spacingRight=4;overflow=hidden;rotatable=0;points=[[0,0.5],[1,0.5]];portConstraint=eastwest;whiteSpace=wrap;" parent="n43T59U6szoglEBWc39S-40" vertex="1">
          <mxGeometry y="40" width="200" height="20" as="geometry" />
        </mxCell>
        <mxCell id="n43T59U6szoglEBWc39S-42" value="" style="line;strokeWidth=1;fillColor=none;align=left;verticalAlign=middle;spacingTop=-1;spacingLeft=3;spacingRight=3;rotatable=0;labelPosition=right;points=[];portConstraint=eastwest;" parent="n43T59U6szoglEBWc39S-40" vertex="1">
          <mxGeometry y="60" width="200" height="8" as="geometry" />
        </mxCell>
        <mxCell id="n43T59U6szoglEBWc39S-43" value="operations" style="text;html=1;strokeColor=none;fillColor=none;align=center;verticalAlign=middle;spacingLeft=4;spacingRight=4;overflow=hidden;rotatable=0;points=[[0,0.5],[1,0.5]];portConstraint=eastwest;whiteSpace=wrap;" parent="n43T59U6szoglEBWc39S-40" vertex="1">
          <mxGeometry y="68" width="200" height="20" as="geometry" />
        </mxCell>
        <mxCell id="n43T59U6szoglEBWc39S-44" value="&lt;div&gt;+showConfirmationOverlay():void&lt;/div&gt;" style="text;html=1;strokeColor=none;fillColor=none;align=left;verticalAlign=middle;spacingLeft=4;spacingRight=4;overflow=hidden;rotatable=0;points=[[0,0.5],[1,0.5]];portConstraint=eastwest;whiteSpace=wrap;" parent="n43T59U6szoglEBWc39S-40" vertex="1">
          <mxGeometry y="88" width="200" height="22" as="geometry" />
        </mxCell>
        <mxCell id="n43T59U6szoglEBWc39S-196" style="edgeStyle=orthogonalEdgeStyle;rounded=0;orthogonalLoop=1;jettySize=auto;html=1;strokeColor=default;align=center;verticalAlign=middle;fontFamily=Helvetica;fontSize=11;fontColor=default;labelBackgroundColor=default;endArrow=block;endFill=0;" edge="1" parent="n43T59U6szoglEBWc39S-182" source="n43T59U6szoglEBWc39S-45" target="n43T59U6szoglEBWc39S-10">
          <mxGeometry relative="1" as="geometry">
            <Array as="points">
              <mxPoint x="2360" y="215" />
            </Array>
          </mxGeometry>
        </mxCell>
        <mxCell id="eGYr3inBb00eLCrS8vDI-16" style="edgeStyle=orthogonalEdgeStyle;rounded=0;orthogonalLoop=1;jettySize=auto;html=1;strokeColor=default;align=center;verticalAlign=middle;fontFamily=Helvetica;fontSize=11;fontColor=default;labelBackgroundColor=default;startArrow=cross;startFill=0;endArrow=open;endFill=0;" edge="1" parent="n43T59U6szoglEBWc39S-182" source="n43T59U6szoglEBWc39S-104" target="n43T59U6szoglEBWc39S-121">
          <mxGeometry relative="1" as="geometry">
            <Array as="points">
              <mxPoint x="2290" y="765" />
              <mxPoint x="2290" y="765" />
            </Array>
          </mxGeometry>
        </mxCell>
        <mxCell id="n43T59U6szoglEBWc39S-45" value="&amp;lt;&amp;lt;boundary&amp;gt;&amp;gt;&lt;br&gt;&lt;b&gt;DifficultySelectionScreen&lt;/b&gt;" style="swimlane;fontStyle=0;align=center;verticalAlign=top;childLayout=stackLayout;horizontal=1;startSize=40;horizontalStack=0;resizeParent=1;resizeParentMax=0;resizeLast=0;collapsible=0;marginBottom=0;html=1;whiteSpace=wrap;" parent="n43T59U6szoglEBWc39S-182" vertex="1">
          <mxGeometry x="2260" y="335" width="200" height="110" as="geometry" />
        </mxCell>
        <mxCell id="n43T59U6szoglEBWc39S-46" value="attributes" style="text;html=1;strokeColor=none;fillColor=none;align=center;verticalAlign=middle;spacingLeft=4;spacingRight=4;overflow=hidden;rotatable=0;points=[[0,0.5],[1,0.5]];portConstraint=eastwest;whiteSpace=wrap;" parent="n43T59U6szoglEBWc39S-45" vertex="1">
          <mxGeometry y="40" width="200" height="20" as="geometry" />
        </mxCell>
        <mxCell id="n43T59U6szoglEBWc39S-47" value="" style="line;strokeWidth=1;fillColor=none;align=left;verticalAlign=middle;spacingTop=-1;spacingLeft=3;spacingRight=3;rotatable=0;labelPosition=right;points=[];portConstraint=eastwest;" parent="n43T59U6szoglEBWc39S-45" vertex="1">
          <mxGeometry y="60" width="200" height="8" as="geometry" />
        </mxCell>
        <mxCell id="n43T59U6szoglEBWc39S-48" value="operations" style="text;html=1;strokeColor=none;fillColor=none;align=center;verticalAlign=middle;spacingLeft=4;spacingRight=4;overflow=hidden;rotatable=0;points=[[0,0.5],[1,0.5]];portConstraint=eastwest;whiteSpace=wrap;" parent="n43T59U6szoglEBWc39S-45" vertex="1">
          <mxGeometry y="68" width="200" height="20" as="geometry" />
        </mxCell>
        <mxCell id="n43T59U6szoglEBWc39S-49" value="&lt;div style=&quot;font-size: 11px;&quot;&gt;&lt;span style=&quot;background-color: initial; font-size: 11px;&quot;&gt;+showDifficultySelectionScreen():void&lt;/span&gt;&lt;br style=&quot;font-size: 11px;&quot;&gt;&lt;/div&gt;" style="text;html=1;strokeColor=none;fillColor=none;align=left;verticalAlign=middle;spacingLeft=4;spacingRight=4;overflow=hidden;rotatable=0;points=[[0,0.5],[1,0.5]];portConstraint=eastwest;whiteSpace=wrap;fontSize=11;" parent="n43T59U6szoglEBWc39S-45" vertex="1">
          <mxGeometry y="88" width="200" height="22" as="geometry" />
        </mxCell>
        <mxCell id="n43T59U6szoglEBWc39S-198" style="edgeStyle=orthogonalEdgeStyle;rounded=0;orthogonalLoop=1;jettySize=auto;html=1;strokeColor=default;align=center;verticalAlign=middle;fontFamily=Helvetica;fontSize=11;fontColor=default;labelBackgroundColor=default;endArrow=block;endFill=0;" edge="1" parent="n43T59U6szoglEBWc39S-182" source="n43T59U6szoglEBWc39S-55" target="n43T59U6szoglEBWc39S-10">
          <mxGeometry relative="1" as="geometry">
            <Array as="points">
              <mxPoint x="2500" y="1015" />
              <mxPoint x="1900" y="1015" />
              <mxPoint x="1900" y="215" />
            </Array>
          </mxGeometry>
        </mxCell>
        <mxCell id="n43T59U6szoglEBWc39S-55" value="&amp;lt;&amp;lt;boundary&amp;gt;&amp;gt;&lt;br&gt;&lt;b&gt;WinOverlay&lt;/b&gt;" style="swimlane;fontStyle=0;align=center;verticalAlign=top;childLayout=stackLayout;horizontal=1;startSize=40;horizontalStack=0;resizeParent=1;resizeParentMax=0;resizeLast=0;collapsible=0;marginBottom=0;html=1;whiteSpace=wrap;" parent="n43T59U6szoglEBWc39S-182" vertex="1">
          <mxGeometry x="2400" y="1065" width="200" height="110" as="geometry" />
        </mxCell>
        <mxCell id="n43T59U6szoglEBWc39S-56" value="attributes" style="text;html=1;strokeColor=none;fillColor=none;align=center;verticalAlign=middle;spacingLeft=4;spacingRight=4;overflow=hidden;rotatable=0;points=[[0,0.5],[1,0.5]];portConstraint=eastwest;whiteSpace=wrap;" parent="n43T59U6szoglEBWc39S-55" vertex="1">
          <mxGeometry y="40" width="200" height="20" as="geometry" />
        </mxCell>
        <mxCell id="n43T59U6szoglEBWc39S-57" value="" style="line;strokeWidth=1;fillColor=none;align=left;verticalAlign=middle;spacingTop=-1;spacingLeft=3;spacingRight=3;rotatable=0;labelPosition=right;points=[];portConstraint=eastwest;" parent="n43T59U6szoglEBWc39S-55" vertex="1">
          <mxGeometry y="60" width="200" height="8" as="geometry" />
        </mxCell>
        <mxCell id="n43T59U6szoglEBWc39S-58" value="operations" style="text;html=1;strokeColor=none;fillColor=none;align=center;verticalAlign=middle;spacingLeft=4;spacingRight=4;overflow=hidden;rotatable=0;points=[[0,0.5],[1,0.5]];portConstraint=eastwest;whiteSpace=wrap;" parent="n43T59U6szoglEBWc39S-55" vertex="1">
          <mxGeometry y="68" width="200" height="20" as="geometry" />
        </mxCell>
        <mxCell id="n43T59U6szoglEBWc39S-59" value="&lt;div&gt;+showWinOverlay():void&lt;/div&gt;" style="text;html=1;strokeColor=none;fillColor=none;align=left;verticalAlign=middle;spacingLeft=4;spacingRight=4;overflow=hidden;rotatable=0;points=[[0,0.5],[1,0.5]];portConstraint=eastwest;whiteSpace=wrap;" parent="n43T59U6szoglEBWc39S-55" vertex="1">
          <mxGeometry y="88" width="200" height="22" as="geometry" />
        </mxCell>
        <mxCell id="n43T59U6szoglEBWc39S-199" style="edgeStyle=orthogonalEdgeStyle;rounded=0;orthogonalLoop=1;jettySize=auto;html=1;strokeColor=default;align=center;verticalAlign=middle;fontFamily=Helvetica;fontSize=11;fontColor=default;labelBackgroundColor=default;endArrow=block;endFill=0;" edge="1" parent="n43T59U6szoglEBWc39S-182" source="n43T59U6szoglEBWc39S-60" target="n43T59U6szoglEBWc39S-10">
          <mxGeometry relative="1" as="geometry">
            <Array as="points">
              <mxPoint x="2800" y="1015" />
              <mxPoint x="1040" y="1015" />
            </Array>
          </mxGeometry>
        </mxCell>
        <mxCell id="n43T59U6szoglEBWc39S-60" value="&amp;lt;&amp;lt;boundary&amp;gt;&amp;gt;&lt;br&gt;&lt;b&gt;LoseOverlay&lt;/b&gt;" style="swimlane;fontStyle=0;align=center;verticalAlign=top;childLayout=stackLayout;horizontal=1;startSize=40;horizontalStack=0;resizeParent=1;resizeParentMax=0;resizeLast=0;collapsible=0;marginBottom=0;html=1;whiteSpace=wrap;" parent="n43T59U6szoglEBWc39S-182" vertex="1">
          <mxGeometry x="2700" y="1065" width="200" height="110" as="geometry" />
        </mxCell>
        <mxCell id="n43T59U6szoglEBWc39S-61" value="attributes" style="text;html=1;strokeColor=none;fillColor=none;align=center;verticalAlign=middle;spacingLeft=4;spacingRight=4;overflow=hidden;rotatable=0;points=[[0,0.5],[1,0.5]];portConstraint=eastwest;whiteSpace=wrap;" parent="n43T59U6szoglEBWc39S-60" vertex="1">
          <mxGeometry y="40" width="200" height="20" as="geometry" />
        </mxCell>
        <mxCell id="n43T59U6szoglEBWc39S-62" value="" style="line;strokeWidth=1;fillColor=none;align=left;verticalAlign=middle;spacingTop=-1;spacingLeft=3;spacingRight=3;rotatable=0;labelPosition=right;points=[];portConstraint=eastwest;" parent="n43T59U6szoglEBWc39S-60" vertex="1">
          <mxGeometry y="60" width="200" height="8" as="geometry" />
        </mxCell>
        <mxCell id="n43T59U6szoglEBWc39S-63" value="operations" style="text;html=1;strokeColor=none;fillColor=none;align=center;verticalAlign=middle;spacingLeft=4;spacingRight=4;overflow=hidden;rotatable=0;points=[[0,0.5],[1,0.5]];portConstraint=eastwest;whiteSpace=wrap;" parent="n43T59U6szoglEBWc39S-60" vertex="1">
          <mxGeometry y="68" width="200" height="20" as="geometry" />
        </mxCell>
        <mxCell id="n43T59U6szoglEBWc39S-64" value="&lt;div&gt;+showLoseOverlay():void&lt;/div&gt;" style="text;html=1;strokeColor=none;fillColor=none;align=left;verticalAlign=middle;spacingLeft=4;spacingRight=4;overflow=hidden;rotatable=0;points=[[0,0.5],[1,0.5]];portConstraint=eastwest;whiteSpace=wrap;" parent="n43T59U6szoglEBWc39S-60" vertex="1">
          <mxGeometry y="88" width="200" height="22" as="geometry" />
        </mxCell>
        <mxCell id="n43T59U6szoglEBWc39S-201" style="edgeStyle=orthogonalEdgeStyle;rounded=0;orthogonalLoop=1;jettySize=auto;html=1;strokeColor=default;align=center;verticalAlign=middle;fontFamily=Helvetica;fontSize=11;fontColor=default;labelBackgroundColor=default;endArrow=block;endFill=0;" edge="1" parent="n43T59U6szoglEBWc39S-182" source="n43T59U6szoglEBWc39S-70" target="n43T59U6szoglEBWc39S-10">
          <mxGeometry relative="1" as="geometry">
            <Array as="points">
              <mxPoint x="200" y="215" />
            </Array>
          </mxGeometry>
        </mxCell>
        <mxCell id="eGYr3inBb00eLCrS8vDI-19" style="edgeStyle=orthogonalEdgeStyle;rounded=0;orthogonalLoop=1;jettySize=auto;html=1;strokeColor=default;align=center;verticalAlign=middle;fontFamily=Helvetica;fontSize=11;fontColor=default;labelBackgroundColor=default;startArrow=cross;startFill=0;endArrow=open;endFill=0;" edge="1" parent="n43T59U6szoglEBWc39S-182" source="n43T59U6szoglEBWc39S-70" target="7mrXc6vzGn_HgA6qBizn-0">
          <mxGeometry relative="1" as="geometry">
            <Array as="points">
              <mxPoint x="40" y="415" />
              <mxPoint x="40" y="275" />
              <mxPoint x="820" y="275" />
            </Array>
          </mxGeometry>
        </mxCell>
        <mxCell id="n43T59U6szoglEBWc39S-70" value="&amp;lt;&amp;lt;boundary&amp;gt;&amp;gt;&lt;br&gt;&lt;b&gt;LevelNameOverlay&lt;/b&gt;" style="swimlane;fontStyle=0;align=center;verticalAlign=top;childLayout=stackLayout;horizontal=1;startSize=40;horizontalStack=0;resizeParent=1;resizeParentMax=0;resizeLast=0;collapsible=0;marginBottom=0;html=1;whiteSpace=wrap;" parent="n43T59U6szoglEBWc39S-182" vertex="1">
          <mxGeometry x="60" y="335" width="200" height="160" as="geometry" />
        </mxCell>
        <mxCell id="n43T59U6szoglEBWc39S-71" value="attributes" style="text;html=1;strokeColor=none;fillColor=none;align=center;verticalAlign=middle;spacingLeft=4;spacingRight=4;overflow=hidden;rotatable=0;points=[[0,0.5],[1,0.5]];portConstraint=eastwest;whiteSpace=wrap;" parent="n43T59U6szoglEBWc39S-70" vertex="1">
          <mxGeometry y="40" width="200" height="20" as="geometry" />
        </mxCell>
        <mxCell id="n43T59U6szoglEBWc39S-179" value="-levelName: char[20] = &quot;untitled{0}&quot;" style="text;html=1;strokeColor=none;fillColor=none;align=left;verticalAlign=middle;spacingLeft=4;spacingRight=4;overflow=hidden;rotatable=0;points=[[0,0.5],[1,0.5]];portConstraint=eastwest;whiteSpace=wrap;" vertex="1" parent="n43T59U6szoglEBWc39S-70">
          <mxGeometry y="60" width="200" height="20" as="geometry" />
        </mxCell>
        <mxCell id="n43T59U6szoglEBWc39S-72" value="" style="line;strokeWidth=1;fillColor=none;align=left;verticalAlign=middle;spacingTop=-1;spacingLeft=3;spacingRight=3;rotatable=0;labelPosition=right;points=[];portConstraint=eastwest;" parent="n43T59U6szoglEBWc39S-70" vertex="1">
          <mxGeometry y="80" width="200" height="8" as="geometry" />
        </mxCell>
        <mxCell id="n43T59U6szoglEBWc39S-73" value="operations" style="text;html=1;strokeColor=none;fillColor=none;align=center;verticalAlign=middle;spacingLeft=4;spacingRight=4;overflow=hidden;rotatable=0;points=[[0,0.5],[1,0.5]];portConstraint=eastwest;whiteSpace=wrap;" parent="n43T59U6szoglEBWc39S-70" vertex="1">
          <mxGeometry y="88" width="200" height="20" as="geometry" />
        </mxCell>
        <mxCell id="n43T59U6szoglEBWc39S-74" value="&lt;div&gt;+showLevelNameOverlay():void&lt;/div&gt;&lt;div&gt;&lt;span style=&quot;background-color: initial;&quot;&gt;+setLevelName(name):void&lt;/span&gt;&lt;/div&gt;&lt;div&gt;+getLevelName():void&lt;/div&gt;" style="text;html=1;strokeColor=none;fillColor=none;align=left;verticalAlign=middle;spacingLeft=4;spacingRight=4;overflow=hidden;rotatable=0;points=[[0,0.5],[1,0.5]];portConstraint=eastwest;whiteSpace=wrap;" parent="n43T59U6szoglEBWc39S-70" vertex="1">
          <mxGeometry y="108" width="200" height="52" as="geometry" />
        </mxCell>
        <mxCell id="eGYr3inBb00eLCrS8vDI-0" value="QMainWindow&lt;br&gt;&lt;b&gt;MainWindow&lt;/b&gt;" style="html=1;whiteSpace=wrap;" vertex="1" parent="n43T59U6szoglEBWc39S-182">
          <mxGeometry x="985" y="75" width="110" height="50" as="geometry" />
        </mxCell>
        <mxCell id="n43T59U6szoglEBWc39S-228" style="edgeStyle=orthogonalEdgeStyle;rounded=0;orthogonalLoop=1;jettySize=auto;html=1;strokeColor=default;align=center;verticalAlign=middle;fontFamily=Helvetica;fontSize=11;fontColor=default;labelBackgroundColor=default;endArrow=block;endFill=0;" edge="1" parent="n43T59U6szoglEBWc39S-182" source="n43T59U6szoglEBWc39S-80" target="n43T59U6szoglEBWc39S-225">
          <mxGeometry relative="1" as="geometry">
            <Array as="points">
              <mxPoint x="1690" y="665" />
              <mxPoint x="1690" y="1110" />
            </Array>
          </mxGeometry>
        </mxCell>
        <mxCell id="n43T59U6szoglEBWc39S-238" style="edgeStyle=orthogonalEdgeStyle;rounded=0;orthogonalLoop=1;jettySize=auto;html=1;strokeColor=default;align=center;verticalAlign=middle;fontFamily=Helvetica;fontSize=11;fontColor=default;labelBackgroundColor=default;endArrow=diamondThin;endFill=0;endSize=24;" edge="1" parent="n43T59U6szoglEBWc39S-182" source="n43T59U6szoglEBWc39S-80" target="n43T59U6szoglEBWc39S-35">
          <mxGeometry relative="1" as="geometry">
            <Array as="points">
              <mxPoint x="1450" y="665" />
              <mxPoint x="1450" y="575" />
              <mxPoint x="1560" y="575" />
            </Array>
          </mxGeometry>
        </mxCell>
        <mxCell id="n43T59U6szoglEBWc39S-80" value="&amp;lt;&amp;lt;interface&amp;gt;&amp;gt;&lt;br&gt;&lt;b&gt;ImageSelectionButton&lt;/b&gt;" style="swimlane;fontStyle=0;align=center;verticalAlign=top;childLayout=stackLayout;horizontal=1;startSize=40;horizontalStack=0;resizeParent=1;resizeParentMax=0;resizeLast=0;collapsible=0;marginBottom=0;html=1;whiteSpace=wrap;" vertex="1" parent="n43T59U6szoglEBWc39S-182">
          <mxGeometry x="1460" y="595" width="200" height="140" as="geometry" />
        </mxCell>
        <mxCell id="n43T59U6szoglEBWc39S-81" value="attributes" style="text;html=1;strokeColor=none;fillColor=none;align=center;verticalAlign=middle;spacingLeft=4;spacingRight=4;overflow=hidden;rotatable=0;points=[[0,0.5],[1,0.5]];portConstraint=eastwest;whiteSpace=wrap;" vertex="1" parent="n43T59U6szoglEBWc39S-80">
          <mxGeometry y="40" width="200" height="20" as="geometry" />
        </mxCell>
        <mxCell id="n43T59U6szoglEBWc39S-82" value="-imgId: int" style="text;html=1;strokeColor=none;fillColor=none;align=left;verticalAlign=middle;spacingLeft=4;spacingRight=4;overflow=hidden;rotatable=0;points=[[0,0.5],[1,0.5]];portConstraint=eastwest;whiteSpace=wrap;" vertex="1" parent="n43T59U6szoglEBWc39S-80">
          <mxGeometry y="60" width="200" height="20" as="geometry" />
        </mxCell>
        <mxCell id="n43T59U6szoglEBWc39S-85" value="" style="line;strokeWidth=1;fillColor=none;align=left;verticalAlign=middle;spacingTop=-1;spacingLeft=3;spacingRight=3;rotatable=0;labelPosition=right;points=[];portConstraint=eastwest;" vertex="1" parent="n43T59U6szoglEBWc39S-80">
          <mxGeometry y="80" width="200" height="8" as="geometry" />
        </mxCell>
        <mxCell id="n43T59U6szoglEBWc39S-86" value="operations" style="text;html=1;strokeColor=none;fillColor=none;align=center;verticalAlign=middle;spacingLeft=4;spacingRight=4;overflow=hidden;rotatable=0;points=[[0,0.5],[1,0.5]];portConstraint=eastwest;whiteSpace=wrap;" vertex="1" parent="n43T59U6szoglEBWc39S-80">
          <mxGeometry y="88" width="200" height="20" as="geometry" />
        </mxCell>
        <mxCell id="n43T59U6szoglEBWc39S-87" value="+pressImage():void&lt;div&gt;+getId():int&lt;/div&gt;" style="text;html=1;strokeColor=none;fillColor=none;align=left;verticalAlign=middle;spacingLeft=4;spacingRight=4;overflow=hidden;rotatable=0;points=[[0,0.5],[1,0.5]];portConstraint=eastwest;whiteSpace=wrap;" vertex="1" parent="n43T59U6szoglEBWc39S-80">
          <mxGeometry y="108" width="200" height="32" as="geometry" />
        </mxCell>
        <mxCell id="n43T59U6szoglEBWc39S-220" style="edgeStyle=orthogonalEdgeStyle;rounded=0;orthogonalLoop=1;jettySize=auto;html=1;strokeColor=default;align=center;verticalAlign=middle;fontFamily=Helvetica;fontSize=11;fontColor=default;labelBackgroundColor=default;endArrow=block;endFill=0;" edge="1" parent="n43T59U6szoglEBWc39S-182" source="n43T59U6szoglEBWc39S-88" target="n43T59U6szoglEBWc39S-219">
          <mxGeometry relative="1" as="geometry">
            <Array as="points">
              <mxPoint x="1680" y="830" />
              <mxPoint x="1680" y="1035" />
            </Array>
          </mxGeometry>
        </mxCell>
        <mxCell id="n43T59U6szoglEBWc39S-239" style="edgeStyle=orthogonalEdgeStyle;rounded=0;orthogonalLoop=1;jettySize=auto;html=1;strokeColor=default;align=center;verticalAlign=middle;fontFamily=Helvetica;fontSize=11;fontColor=default;labelBackgroundColor=default;endArrow=diamondThin;endFill=0;endSize=24;" edge="1" parent="n43T59U6szoglEBWc39S-182" source="n43T59U6szoglEBWc39S-88" target="n43T59U6szoglEBWc39S-35">
          <mxGeometry relative="1" as="geometry">
            <Array as="points">
              <mxPoint x="1450" y="830" />
              <mxPoint x="1450" y="575" />
              <mxPoint x="1560" y="575" />
            </Array>
          </mxGeometry>
        </mxCell>
        <mxCell id="n43T59U6szoglEBWc39S-88" value="&amp;lt;&amp;lt;interface&amp;gt;&amp;gt;&lt;br&gt;&lt;b&gt;UsernameTextbox&lt;/b&gt;" style="swimlane;fontStyle=0;align=center;verticalAlign=top;childLayout=stackLayout;horizontal=1;startSize=40;horizontalStack=0;resizeParent=1;resizeParentMax=0;resizeLast=0;collapsible=0;marginBottom=0;html=1;whiteSpace=wrap;" vertex="1" parent="n43T59U6szoglEBWc39S-182">
          <mxGeometry x="1460" y="755" width="200" height="150" as="geometry" />
        </mxCell>
        <mxCell id="n43T59U6szoglEBWc39S-89" value="attributes" style="text;html=1;strokeColor=none;fillColor=none;align=center;verticalAlign=middle;spacingLeft=4;spacingRight=4;overflow=hidden;rotatable=0;points=[[0,0.5],[1,0.5]];portConstraint=eastwest;whiteSpace=wrap;" vertex="1" parent="n43T59U6szoglEBWc39S-88">
          <mxGeometry y="40" width="200" height="20" as="geometry" />
        </mxCell>
        <mxCell id="n43T59U6szoglEBWc39S-90" value="-name: char[20]" style="text;html=1;strokeColor=none;fillColor=none;align=left;verticalAlign=middle;spacingLeft=4;spacingRight=4;overflow=hidden;rotatable=0;points=[[0,0.5],[1,0.5]];portConstraint=eastwest;whiteSpace=wrap;" vertex="1" parent="n43T59U6szoglEBWc39S-88">
          <mxGeometry y="60" width="200" height="20" as="geometry" />
        </mxCell>
        <mxCell id="n43T59U6szoglEBWc39S-91" value="" style="line;strokeWidth=1;fillColor=none;align=left;verticalAlign=middle;spacingTop=-1;spacingLeft=3;spacingRight=3;rotatable=0;labelPosition=right;points=[];portConstraint=eastwest;" vertex="1" parent="n43T59U6szoglEBWc39S-88">
          <mxGeometry y="80" width="200" height="8" as="geometry" />
        </mxCell>
        <mxCell id="n43T59U6szoglEBWc39S-92" value="operations" style="text;html=1;strokeColor=none;fillColor=none;align=center;verticalAlign=middle;spacingLeft=4;spacingRight=4;overflow=hidden;rotatable=0;points=[[0,0.5],[1,0.5]];portConstraint=eastwest;whiteSpace=wrap;" vertex="1" parent="n43T59U6szoglEBWc39S-88">
          <mxGeometry y="88" width="200" height="20" as="geometry" />
        </mxCell>
        <mxCell id="n43T59U6szoglEBWc39S-93" value="&lt;div&gt;+getName():char[20]&lt;/div&gt;&lt;div&gt;+setName():void&lt;/div&gt;" style="text;html=1;strokeColor=none;fillColor=none;align=left;verticalAlign=middle;spacingLeft=4;spacingRight=4;overflow=hidden;rotatable=0;points=[[0,0.5],[1,0.5]];portConstraint=eastwest;whiteSpace=wrap;" vertex="1" parent="n43T59U6szoglEBWc39S-88">
          <mxGeometry y="108" width="200" height="42" as="geometry" />
        </mxCell>
        <mxCell id="n43T59U6szoglEBWc39S-209" style="edgeStyle=orthogonalEdgeStyle;rounded=0;orthogonalLoop=1;jettySize=auto;html=1;strokeColor=default;align=center;verticalAlign=middle;fontFamily=Helvetica;fontSize=11;fontColor=default;labelBackgroundColor=default;endArrow=block;endFill=0;" edge="1" parent="n43T59U6szoglEBWc39S-182" source="n43T59U6szoglEBWc39S-94" target="n43T59U6szoglEBWc39S-34">
          <mxGeometry relative="1" as="geometry">
            <Array as="points">
              <mxPoint x="1730" y="650" />
              <mxPoint x="1730" y="965" />
            </Array>
          </mxGeometry>
        </mxCell>
        <mxCell id="n43T59U6szoglEBWc39S-240" style="edgeStyle=orthogonalEdgeStyle;rounded=0;orthogonalLoop=1;jettySize=auto;html=1;strokeColor=default;align=center;verticalAlign=middle;fontFamily=Helvetica;fontSize=11;fontColor=default;labelBackgroundColor=default;endArrow=diamondThin;endFill=0;endSize=24;" edge="1" parent="n43T59U6szoglEBWc39S-182" source="n43T59U6szoglEBWc39S-94" target="n43T59U6szoglEBWc39S-40">
          <mxGeometry relative="1" as="geometry">
            <Array as="points">
              <mxPoint x="1950" y="650" />
              <mxPoint x="1950" y="555" />
              <mxPoint x="1840" y="555" />
            </Array>
          </mxGeometry>
        </mxCell>
        <mxCell id="n43T59U6szoglEBWc39S-94" value="&amp;lt;&amp;lt;interface&amp;gt;&amp;gt;&lt;br&gt;&lt;b&gt;ConfirmButton&lt;/b&gt;" style="swimlane;fontStyle=0;align=center;verticalAlign=top;childLayout=stackLayout;horizontal=1;startSize=40;horizontalStack=0;resizeParent=1;resizeParentMax=0;resizeLast=0;collapsible=0;marginBottom=0;html=1;whiteSpace=wrap;" vertex="1" parent="n43T59U6szoglEBWc39S-182">
          <mxGeometry x="1740" y="595" width="200" height="110" as="geometry" />
        </mxCell>
        <mxCell id="n43T59U6szoglEBWc39S-95" value="attributes" style="text;html=1;strokeColor=none;fillColor=none;align=center;verticalAlign=middle;spacingLeft=4;spacingRight=4;overflow=hidden;rotatable=0;points=[[0,0.5],[1,0.5]];portConstraint=eastwest;whiteSpace=wrap;" vertex="1" parent="n43T59U6szoglEBWc39S-94">
          <mxGeometry y="40" width="200" height="20" as="geometry" />
        </mxCell>
        <mxCell id="n43T59U6szoglEBWc39S-96" value="" style="line;strokeWidth=1;fillColor=none;align=left;verticalAlign=middle;spacingTop=-1;spacingLeft=3;spacingRight=3;rotatable=0;labelPosition=right;points=[];portConstraint=eastwest;" vertex="1" parent="n43T59U6szoglEBWc39S-94">
          <mxGeometry y="60" width="200" height="8" as="geometry" />
        </mxCell>
        <mxCell id="n43T59U6szoglEBWc39S-97" value="operations" style="text;html=1;strokeColor=none;fillColor=none;align=center;verticalAlign=middle;spacingLeft=4;spacingRight=4;overflow=hidden;rotatable=0;points=[[0,0.5],[1,0.5]];portConstraint=eastwest;whiteSpace=wrap;" vertex="1" parent="n43T59U6szoglEBWc39S-94">
          <mxGeometry y="68" width="200" height="20" as="geometry" />
        </mxCell>
        <mxCell id="n43T59U6szoglEBWc39S-98" value="+pressConfirm():void" style="text;html=1;strokeColor=none;fillColor=none;align=left;verticalAlign=middle;spacingLeft=4;spacingRight=4;overflow=hidden;rotatable=0;points=[[0,0.5],[1,0.5]];portConstraint=eastwest;whiteSpace=wrap;" vertex="1" parent="n43T59U6szoglEBWc39S-94">
          <mxGeometry y="88" width="200" height="22" as="geometry" />
        </mxCell>
        <mxCell id="n43T59U6szoglEBWc39S-210" style="edgeStyle=orthogonalEdgeStyle;rounded=0;orthogonalLoop=1;jettySize=auto;html=1;strokeColor=default;align=center;verticalAlign=middle;fontFamily=Helvetica;fontSize=11;fontColor=default;labelBackgroundColor=default;endArrow=block;endFill=0;" edge="1" parent="n43T59U6szoglEBWc39S-182" source="n43T59U6szoglEBWc39S-99" target="n43T59U6szoglEBWc39S-34">
          <mxGeometry relative="1" as="geometry">
            <Array as="points">
              <mxPoint x="1730" y="770" />
              <mxPoint x="1730" y="965" />
            </Array>
          </mxGeometry>
        </mxCell>
        <mxCell id="n43T59U6szoglEBWc39S-241" style="edgeStyle=orthogonalEdgeStyle;rounded=0;orthogonalLoop=1;jettySize=auto;html=1;strokeColor=default;align=center;verticalAlign=middle;fontFamily=Helvetica;fontSize=11;fontColor=default;labelBackgroundColor=default;endArrow=diamondThin;endFill=0;endSize=24;" edge="1" parent="n43T59U6szoglEBWc39S-182" source="n43T59U6szoglEBWc39S-99" target="n43T59U6szoglEBWc39S-40">
          <mxGeometry relative="1" as="geometry">
            <Array as="points">
              <mxPoint x="1950" y="770" />
              <mxPoint x="1950" y="555" />
              <mxPoint x="1840" y="555" />
            </Array>
          </mxGeometry>
        </mxCell>
        <mxCell id="n43T59U6szoglEBWc39S-99" value="&amp;lt;&amp;lt;interface&amp;gt;&amp;gt;&lt;br&gt;&lt;b&gt;CancelButton&lt;/b&gt;" style="swimlane;fontStyle=0;align=center;verticalAlign=top;childLayout=stackLayout;horizontal=1;startSize=40;horizontalStack=0;resizeParent=1;resizeParentMax=0;resizeLast=0;collapsible=0;marginBottom=0;html=1;whiteSpace=wrap;" vertex="1" parent="n43T59U6szoglEBWc39S-182">
          <mxGeometry x="1740" y="715" width="200" height="110" as="geometry" />
        </mxCell>
        <mxCell id="n43T59U6szoglEBWc39S-100" value="attributes" style="text;html=1;strokeColor=none;fillColor=none;align=center;verticalAlign=middle;spacingLeft=4;spacingRight=4;overflow=hidden;rotatable=0;points=[[0,0.5],[1,0.5]];portConstraint=eastwest;whiteSpace=wrap;" vertex="1" parent="n43T59U6szoglEBWc39S-99">
          <mxGeometry y="40" width="200" height="20" as="geometry" />
        </mxCell>
        <mxCell id="n43T59U6szoglEBWc39S-101" value="" style="line;strokeWidth=1;fillColor=none;align=left;verticalAlign=middle;spacingTop=-1;spacingLeft=3;spacingRight=3;rotatable=0;labelPosition=right;points=[];portConstraint=eastwest;" vertex="1" parent="n43T59U6szoglEBWc39S-99">
          <mxGeometry y="60" width="200" height="8" as="geometry" />
        </mxCell>
        <mxCell id="n43T59U6szoglEBWc39S-102" value="operations" style="text;html=1;strokeColor=none;fillColor=none;align=center;verticalAlign=middle;spacingLeft=4;spacingRight=4;overflow=hidden;rotatable=0;points=[[0,0.5],[1,0.5]];portConstraint=eastwest;whiteSpace=wrap;" vertex="1" parent="n43T59U6szoglEBWc39S-99">
          <mxGeometry y="68" width="200" height="20" as="geometry" />
        </mxCell>
        <mxCell id="n43T59U6szoglEBWc39S-103" value="+pressCancel():void" style="text;html=1;strokeColor=none;fillColor=none;align=left;verticalAlign=middle;spacingLeft=4;spacingRight=4;overflow=hidden;rotatable=0;points=[[0,0.5],[1,0.5]];portConstraint=eastwest;whiteSpace=wrap;" vertex="1" parent="n43T59U6szoglEBWc39S-99">
          <mxGeometry y="88" width="200" height="22" as="geometry" />
        </mxCell>
        <mxCell id="n43T59U6szoglEBWc39S-229" style="edgeStyle=orthogonalEdgeStyle;rounded=0;orthogonalLoop=1;jettySize=auto;html=1;strokeColor=default;align=center;verticalAlign=middle;fontFamily=Helvetica;fontSize=11;fontColor=default;labelBackgroundColor=default;endArrow=block;endFill=0;" edge="1" parent="n43T59U6szoglEBWc39S-182" source="n43T59U6szoglEBWc39S-104" target="n43T59U6szoglEBWc39S-225">
          <mxGeometry relative="1" as="geometry">
            <Array as="points">
              <mxPoint x="2050" y="665" />
              <mxPoint x="2050" y="1110" />
            </Array>
          </mxGeometry>
        </mxCell>
        <mxCell id="n43T59U6szoglEBWc39S-242" style="edgeStyle=orthogonalEdgeStyle;rounded=0;orthogonalLoop=1;jettySize=auto;html=1;strokeColor=default;align=center;verticalAlign=middle;fontFamily=Helvetica;fontSize=11;fontColor=default;labelBackgroundColor=default;endArrow=diamondThin;endFill=0;endSize=24;" edge="1" parent="n43T59U6szoglEBWc39S-182" source="n43T59U6szoglEBWc39S-104" target="n43T59U6szoglEBWc39S-45">
          <mxGeometry relative="1" as="geometry" />
        </mxCell>
        <mxCell id="n43T59U6szoglEBWc39S-104" value="&amp;lt;&amp;lt;interface&amp;gt;&amp;gt;&lt;br&gt;&lt;b&gt;DifficultySelectionButton&lt;/b&gt;" style="swimlane;fontStyle=0;align=center;verticalAlign=top;childLayout=stackLayout;horizontal=1;startSize=40;horizontalStack=0;resizeParent=1;resizeParentMax=0;resizeLast=0;collapsible=0;marginBottom=0;html=1;whiteSpace=wrap;" vertex="1" parent="n43T59U6szoglEBWc39S-182">
          <mxGeometry x="2260" y="595" width="200" height="140" as="geometry" />
        </mxCell>
        <mxCell id="n43T59U6szoglEBWc39S-105" value="attributes" style="text;html=1;strokeColor=none;fillColor=none;align=center;verticalAlign=middle;spacingLeft=4;spacingRight=4;overflow=hidden;rotatable=0;points=[[0,0.5],[1,0.5]];portConstraint=eastwest;whiteSpace=wrap;" vertex="1" parent="n43T59U6szoglEBWc39S-104">
          <mxGeometry y="40" width="200" height="20" as="geometry" />
        </mxCell>
        <mxCell id="n43T59U6szoglEBWc39S-106" value="-difficulty: int" style="text;html=1;strokeColor=none;fillColor=none;align=left;verticalAlign=middle;spacingLeft=4;spacingRight=4;overflow=hidden;rotatable=0;points=[[0,0.5],[1,0.5]];portConstraint=eastwest;whiteSpace=wrap;" vertex="1" parent="n43T59U6szoglEBWc39S-104">
          <mxGeometry y="60" width="200" height="20" as="geometry" />
        </mxCell>
        <mxCell id="n43T59U6szoglEBWc39S-107" value="" style="line;strokeWidth=1;fillColor=none;align=left;verticalAlign=middle;spacingTop=-1;spacingLeft=3;spacingRight=3;rotatable=0;labelPosition=right;points=[];portConstraint=eastwest;" vertex="1" parent="n43T59U6szoglEBWc39S-104">
          <mxGeometry y="80" width="200" height="8" as="geometry" />
        </mxCell>
        <mxCell id="n43T59U6szoglEBWc39S-108" value="operations" style="text;html=1;strokeColor=none;fillColor=none;align=center;verticalAlign=middle;spacingLeft=4;spacingRight=4;overflow=hidden;rotatable=0;points=[[0,0.5],[1,0.5]];portConstraint=eastwest;whiteSpace=wrap;" vertex="1" parent="n43T59U6szoglEBWc39S-104">
          <mxGeometry y="88" width="200" height="20" as="geometry" />
        </mxCell>
        <mxCell id="n43T59U6szoglEBWc39S-109" value="+pressDifficulty():void&lt;div&gt;+getDifficulty():int&lt;/div&gt;" style="text;html=1;strokeColor=none;fillColor=none;align=left;verticalAlign=middle;spacingLeft=4;spacingRight=4;overflow=hidden;rotatable=0;points=[[0,0.5],[1,0.5]];portConstraint=eastwest;whiteSpace=wrap;" vertex="1" parent="n43T59U6szoglEBWc39S-104">
          <mxGeometry y="108" width="200" height="32" as="geometry" />
        </mxCell>
        <mxCell id="n43T59U6szoglEBWc39S-197" style="edgeStyle=orthogonalEdgeStyle;rounded=0;orthogonalLoop=1;jettySize=auto;html=1;strokeColor=default;align=center;verticalAlign=middle;fontFamily=Helvetica;fontSize=11;fontColor=default;labelBackgroundColor=default;endArrow=block;endFill=0;" edge="1" parent="n43T59U6szoglEBWc39S-182" source="n43T59U6szoglEBWc39S-121" target="n43T59U6szoglEBWc39S-10">
          <mxGeometry relative="1" as="geometry">
            <Array as="points">
              <mxPoint x="2220" y="1015" />
              <mxPoint x="1040" y="1015" />
            </Array>
          </mxGeometry>
        </mxCell>
        <mxCell id="eGYr3inBb00eLCrS8vDI-8" style="edgeStyle=orthogonalEdgeStyle;rounded=0;orthogonalLoop=1;jettySize=auto;html=1;strokeColor=default;align=center;verticalAlign=middle;fontFamily=Helvetica;fontSize=11;fontColor=default;labelBackgroundColor=default;endArrow=open;endFill=0;startArrow=cross;startFill=0;" edge="1" parent="n43T59U6szoglEBWc39S-182" source="n43T59U6szoglEBWc39S-153" target="n43T59U6szoglEBWc39S-55">
          <mxGeometry relative="1" as="geometry">
            <Array as="points">
              <mxPoint x="2350" y="1335" />
              <mxPoint x="2350" y="1120" />
            </Array>
          </mxGeometry>
        </mxCell>
        <mxCell id="eGYr3inBb00eLCrS8vDI-9" style="edgeStyle=orthogonalEdgeStyle;rounded=0;orthogonalLoop=1;jettySize=auto;html=1;strokeColor=default;align=center;verticalAlign=middle;fontFamily=Helvetica;fontSize=11;fontColor=default;labelBackgroundColor=default;endArrow=open;endFill=0;startArrow=cross;startFill=0;" edge="1" parent="n43T59U6szoglEBWc39S-182" source="n43T59U6szoglEBWc39S-153" target="n43T59U6szoglEBWc39S-60">
          <mxGeometry relative="1" as="geometry">
            <Array as="points">
              <mxPoint x="2350" y="1335" />
              <mxPoint x="2350" y="915" />
              <mxPoint x="2670" y="915" />
              <mxPoint x="2670" y="1120" />
            </Array>
          </mxGeometry>
        </mxCell>
        <mxCell id="n43T59U6szoglEBWc39S-121" value="&amp;lt;&amp;lt;boundary&amp;gt;&amp;gt;&lt;br&gt;&lt;b&gt;PlayScreen&lt;/b&gt;" style="swimlane;fontStyle=0;align=center;verticalAlign=top;childLayout=stackLayout;horizontal=1;startSize=40;horizontalStack=0;resizeParent=1;resizeParentMax=0;resizeLast=0;collapsible=0;marginBottom=0;html=1;whiteSpace=wrap;" vertex="1" parent="n43T59U6szoglEBWc39S-182">
          <mxGeometry x="2120" y="1065" width="200" height="230" as="geometry" />
        </mxCell>
        <mxCell id="n43T59U6szoglEBWc39S-122" value="attributes" style="text;html=1;strokeColor=none;fillColor=none;align=center;verticalAlign=middle;spacingLeft=4;spacingRight=4;overflow=hidden;rotatable=0;points=[[0,0.5],[1,0.5]];portConstraint=eastwest;whiteSpace=wrap;" vertex="1" parent="n43T59U6szoglEBWc39S-121">
          <mxGeometry y="40" width="200" height="20" as="geometry" />
        </mxCell>
        <mxCell id="n43T59U6szoglEBWc39S-123" value="-level: int[n][n]" style="text;html=1;strokeColor=none;fillColor=none;align=left;verticalAlign=middle;spacingLeft=4;spacingRight=4;overflow=hidden;rotatable=0;points=[[0,0.5],[1,0.5]];portConstraint=eastwest;whiteSpace=wrap;" vertex="1" parent="n43T59U6szoglEBWc39S-121">
          <mxGeometry y="60" width="200" height="20" as="geometry" />
        </mxCell>
        <mxCell id="n43T59U6szoglEBWc39S-124" value="" style="line;strokeWidth=1;fillColor=none;align=left;verticalAlign=middle;spacingTop=-1;spacingLeft=3;spacingRight=3;rotatable=0;labelPosition=right;points=[];portConstraint=eastwest;" vertex="1" parent="n43T59U6szoglEBWc39S-121">
          <mxGeometry y="80" width="200" height="8" as="geometry" />
        </mxCell>
        <mxCell id="n43T59U6szoglEBWc39S-125" value="operations" style="text;html=1;strokeColor=none;fillColor=none;align=center;verticalAlign=middle;spacingLeft=4;spacingRight=4;overflow=hidden;rotatable=0;points=[[0,0.5],[1,0.5]];portConstraint=eastwest;whiteSpace=wrap;" vertex="1" parent="n43T59U6szoglEBWc39S-121">
          <mxGeometry y="88" width="200" height="20" as="geometry" />
        </mxCell>
        <mxCell id="n43T59U6szoglEBWc39S-126" value="+createPlayScreen(param):void&lt;div&gt;&lt;span style=&quot;background-color: initial;&quot;&gt;+colorSquare(row, col):void&lt;/span&gt;&lt;br&gt;&lt;/div&gt;&lt;div&gt;+decolorSquare(&lt;span style=&quot;background-color: initial;&quot;&gt;row, col&lt;/span&gt;&lt;span style=&quot;background-color: initial;&quot;&gt;):void&lt;/span&gt;&lt;/div&gt;&lt;div&gt;+markSquare(&lt;span style=&quot;background-color: initial;&quot;&gt;row, col&lt;/span&gt;&lt;span style=&quot;background-color: initial;&quot;&gt;):void&lt;/span&gt;&lt;/div&gt;&lt;div&gt;&lt;div&gt;-leftClick():void&lt;/div&gt;&lt;div&gt;-rightClick():void&lt;/div&gt;&lt;div&gt;-middleClick():void&lt;/div&gt;&lt;/div&gt;&lt;div&gt;-getcoord():int, int&lt;/div&gt;" style="text;html=1;strokeColor=none;fillColor=none;align=left;verticalAlign=middle;spacingLeft=4;spacingRight=4;overflow=hidden;rotatable=0;points=[[0,0.5],[1,0.5]];portConstraint=eastwest;whiteSpace=wrap;" vertex="1" parent="n43T59U6szoglEBWc39S-121">
          <mxGeometry y="108" width="200" height="122" as="geometry" />
        </mxCell>
        <mxCell id="n43T59U6szoglEBWc39S-221" style="edgeStyle=orthogonalEdgeStyle;rounded=0;orthogonalLoop=1;jettySize=auto;html=1;strokeColor=default;align=center;verticalAlign=middle;fontFamily=Helvetica;fontSize=11;fontColor=default;labelBackgroundColor=default;endArrow=block;endFill=0;" edge="1" parent="n43T59U6szoglEBWc39S-182" source="n43T59U6szoglEBWc39S-127" target="n43T59U6szoglEBWc39S-219">
          <mxGeometry relative="1" as="geometry">
            <Array as="points">
              <mxPoint x="40" y="670" />
              <mxPoint x="40" y="1035" />
            </Array>
          </mxGeometry>
        </mxCell>
        <mxCell id="n43T59U6szoglEBWc39S-251" value="" style="edgeStyle=orthogonalEdgeStyle;rounded=0;orthogonalLoop=1;jettySize=auto;html=1;strokeColor=default;align=center;verticalAlign=middle;fontFamily=Helvetica;fontSize=11;fontColor=default;labelBackgroundColor=default;endArrow=diamondThin;endFill=0;endSize=24;" edge="1" parent="n43T59U6szoglEBWc39S-182" source="n43T59U6szoglEBWc39S-127" target="n43T59U6szoglEBWc39S-74">
          <mxGeometry relative="1" as="geometry">
            <Array as="points">
              <mxPoint x="180" y="555" />
              <mxPoint x="180" y="555" />
            </Array>
          </mxGeometry>
        </mxCell>
        <mxCell id="n43T59U6szoglEBWc39S-127" value="&amp;lt;&amp;lt;interface&amp;gt;&amp;gt;&lt;br&gt;&lt;b&gt;LevelNameTextbox&lt;/b&gt;" style="swimlane;fontStyle=0;align=center;verticalAlign=top;childLayout=stackLayout;horizontal=1;startSize=40;horizontalStack=0;resizeParent=1;resizeParentMax=0;resizeLast=0;collapsible=0;marginBottom=0;html=1;whiteSpace=wrap;" vertex="1" parent="n43T59U6szoglEBWc39S-182">
          <mxGeometry x="60" y="595" width="200" height="150" as="geometry" />
        </mxCell>
        <mxCell id="n43T59U6szoglEBWc39S-128" value="attributes" style="text;html=1;strokeColor=none;fillColor=none;align=center;verticalAlign=middle;spacingLeft=4;spacingRight=4;overflow=hidden;rotatable=0;points=[[0,0.5],[1,0.5]];portConstraint=eastwest;whiteSpace=wrap;" vertex="1" parent="n43T59U6szoglEBWc39S-127">
          <mxGeometry y="40" width="200" height="20" as="geometry" />
        </mxCell>
        <mxCell id="n43T59U6szoglEBWc39S-129" value="-name: char[20]" style="text;html=1;strokeColor=none;fillColor=none;align=left;verticalAlign=middle;spacingLeft=4;spacingRight=4;overflow=hidden;rotatable=0;points=[[0,0.5],[1,0.5]];portConstraint=eastwest;whiteSpace=wrap;" vertex="1" parent="n43T59U6szoglEBWc39S-127">
          <mxGeometry y="60" width="200" height="20" as="geometry" />
        </mxCell>
        <mxCell id="n43T59U6szoglEBWc39S-130" value="" style="line;strokeWidth=1;fillColor=none;align=left;verticalAlign=middle;spacingTop=-1;spacingLeft=3;spacingRight=3;rotatable=0;labelPosition=right;points=[];portConstraint=eastwest;" vertex="1" parent="n43T59U6szoglEBWc39S-127">
          <mxGeometry y="80" width="200" height="8" as="geometry" />
        </mxCell>
        <mxCell id="n43T59U6szoglEBWc39S-131" value="operations" style="text;html=1;strokeColor=none;fillColor=none;align=center;verticalAlign=middle;spacingLeft=4;spacingRight=4;overflow=hidden;rotatable=0;points=[[0,0.5],[1,0.5]];portConstraint=eastwest;whiteSpace=wrap;" vertex="1" parent="n43T59U6szoglEBWc39S-127">
          <mxGeometry y="88" width="200" height="20" as="geometry" />
        </mxCell>
        <mxCell id="n43T59U6szoglEBWc39S-132" value="&lt;div&gt;+getName():char[20]&lt;/div&gt;&lt;div&gt;+setName():void&lt;/div&gt;" style="text;html=1;strokeColor=none;fillColor=none;align=left;verticalAlign=middle;spacingLeft=4;spacingRight=4;overflow=hidden;rotatable=0;points=[[0,0.5],[1,0.5]];portConstraint=eastwest;whiteSpace=wrap;" vertex="1" parent="n43T59U6szoglEBWc39S-127">
          <mxGeometry y="108" width="200" height="42" as="geometry" />
        </mxCell>
        <mxCell id="n43T59U6szoglEBWc39S-213" style="edgeStyle=orthogonalEdgeStyle;rounded=0;orthogonalLoop=1;jettySize=auto;html=1;strokeColor=default;align=center;verticalAlign=middle;fontFamily=Helvetica;fontSize=11;fontColor=default;labelBackgroundColor=default;endArrow=block;endFill=0;" edge="1" parent="n43T59U6szoglEBWc39S-182" source="n43T59U6szoglEBWc39S-133" target="n43T59U6szoglEBWc39S-34">
          <mxGeometry relative="1" as="geometry">
            <Array as="points">
              <mxPoint x="2380" y="1380" />
              <mxPoint x="2380" y="965" />
            </Array>
          </mxGeometry>
        </mxCell>
        <mxCell id="n43T59U6szoglEBWc39S-245" style="edgeStyle=orthogonalEdgeStyle;rounded=0;orthogonalLoop=1;jettySize=auto;html=1;strokeColor=default;align=center;verticalAlign=middle;fontFamily=Helvetica;fontSize=11;fontColor=default;labelBackgroundColor=default;endArrow=diamondThin;endFill=0;endSize=24;" edge="1" parent="n43T59U6szoglEBWc39S-182" source="n43T59U6szoglEBWc39S-133" target="n43T59U6szoglEBWc39S-55">
          <mxGeometry relative="1" as="geometry">
            <Array as="points">
              <mxPoint x="2610" y="1380" />
              <mxPoint x="2610" y="1305" />
              <mxPoint x="2500" y="1305" />
            </Array>
          </mxGeometry>
        </mxCell>
        <mxCell id="eGYr3inBb00eLCrS8vDI-26" style="edgeStyle=orthogonalEdgeStyle;rounded=0;orthogonalLoop=1;jettySize=auto;html=1;strokeColor=default;align=center;verticalAlign=middle;fontFamily=Helvetica;fontSize=11;fontColor=default;labelBackgroundColor=default;startArrow=cross;startFill=0;endArrow=open;endFill=0;" edge="1" parent="n43T59U6szoglEBWc39S-182" source="n43T59U6szoglEBWc39S-133" target="n43T59U6szoglEBWc39S-121">
          <mxGeometry relative="1" as="geometry">
            <Array as="points">
              <mxPoint x="2290" y="1380" />
            </Array>
          </mxGeometry>
        </mxCell>
        <mxCell id="n43T59U6szoglEBWc39S-133" value="&amp;lt;&amp;lt;interface&amp;gt;&amp;gt;&lt;br&gt;&lt;b&gt;AgainButton&lt;/b&gt;" style="swimlane;fontStyle=0;align=center;verticalAlign=top;childLayout=stackLayout;horizontal=1;startSize=40;horizontalStack=0;resizeParent=1;resizeParentMax=0;resizeLast=0;collapsible=0;marginBottom=0;html=1;whiteSpace=wrap;" vertex="1" parent="n43T59U6szoglEBWc39S-182">
          <mxGeometry x="2400" y="1325" width="200" height="110" as="geometry" />
        </mxCell>
        <mxCell id="n43T59U6szoglEBWc39S-134" value="attributes" style="text;html=1;strokeColor=none;fillColor=none;align=center;verticalAlign=middle;spacingLeft=4;spacingRight=4;overflow=hidden;rotatable=0;points=[[0,0.5],[1,0.5]];portConstraint=eastwest;whiteSpace=wrap;" vertex="1" parent="n43T59U6szoglEBWc39S-133">
          <mxGeometry y="40" width="200" height="20" as="geometry" />
        </mxCell>
        <mxCell id="n43T59U6szoglEBWc39S-135" value="" style="line;strokeWidth=1;fillColor=none;align=left;verticalAlign=middle;spacingTop=-1;spacingLeft=3;spacingRight=3;rotatable=0;labelPosition=right;points=[];portConstraint=eastwest;" vertex="1" parent="n43T59U6szoglEBWc39S-133">
          <mxGeometry y="60" width="200" height="8" as="geometry" />
        </mxCell>
        <mxCell id="n43T59U6szoglEBWc39S-136" value="operations" style="text;html=1;strokeColor=none;fillColor=none;align=center;verticalAlign=middle;spacingLeft=4;spacingRight=4;overflow=hidden;rotatable=0;points=[[0,0.5],[1,0.5]];portConstraint=eastwest;whiteSpace=wrap;" vertex="1" parent="n43T59U6szoglEBWc39S-133">
          <mxGeometry y="68" width="200" height="20" as="geometry" />
        </mxCell>
        <mxCell id="n43T59U6szoglEBWc39S-137" value="+pressAgain():void" style="text;html=1;strokeColor=none;fillColor=none;align=left;verticalAlign=middle;spacingLeft=4;spacingRight=4;overflow=hidden;rotatable=0;points=[[0,0.5],[1,0.5]];portConstraint=eastwest;whiteSpace=wrap;" vertex="1" parent="n43T59U6szoglEBWc39S-133">
          <mxGeometry y="88" width="200" height="22" as="geometry" />
        </mxCell>
        <mxCell id="n43T59U6szoglEBWc39S-214" style="edgeStyle=orthogonalEdgeStyle;rounded=0;orthogonalLoop=1;jettySize=auto;html=1;strokeColor=default;align=center;verticalAlign=middle;fontFamily=Helvetica;fontSize=11;fontColor=default;labelBackgroundColor=default;endArrow=block;endFill=0;" edge="1" parent="n43T59U6szoglEBWc39S-182" source="n43T59U6szoglEBWc39S-138" target="n43T59U6szoglEBWc39S-34">
          <mxGeometry relative="1" as="geometry">
            <Array as="points">
              <mxPoint x="2380" y="1495" />
              <mxPoint x="2380" y="965" />
            </Array>
          </mxGeometry>
        </mxCell>
        <mxCell id="n43T59U6szoglEBWc39S-246" style="edgeStyle=orthogonalEdgeStyle;rounded=0;orthogonalLoop=1;jettySize=auto;html=1;strokeColor=default;align=center;verticalAlign=middle;fontFamily=Helvetica;fontSize=11;fontColor=default;labelBackgroundColor=default;endArrow=diamondThin;endFill=0;endSize=24;" edge="1" parent="n43T59U6szoglEBWc39S-182" source="n43T59U6szoglEBWc39S-138" target="n43T59U6szoglEBWc39S-55">
          <mxGeometry relative="1" as="geometry">
            <Array as="points">
              <mxPoint x="2610" y="1500" />
              <mxPoint x="2610" y="1305" />
              <mxPoint x="2500" y="1305" />
            </Array>
          </mxGeometry>
        </mxCell>
        <mxCell id="n43T59U6szoglEBWc39S-138" value="&amp;lt;&amp;lt;interface&amp;gt;&amp;gt;&lt;br&gt;&lt;b&gt;ExitButton&lt;/b&gt;" style="swimlane;fontStyle=0;align=center;verticalAlign=top;childLayout=stackLayout;horizontal=1;startSize=40;horizontalStack=0;resizeParent=1;resizeParentMax=0;resizeLast=0;collapsible=0;marginBottom=0;html=1;whiteSpace=wrap;" vertex="1" parent="n43T59U6szoglEBWc39S-182">
          <mxGeometry x="2400" y="1445" width="200" height="110" as="geometry" />
        </mxCell>
        <mxCell id="n43T59U6szoglEBWc39S-139" value="attributes" style="text;html=1;strokeColor=none;fillColor=none;align=center;verticalAlign=middle;spacingLeft=4;spacingRight=4;overflow=hidden;rotatable=0;points=[[0,0.5],[1,0.5]];portConstraint=eastwest;whiteSpace=wrap;" vertex="1" parent="n43T59U6szoglEBWc39S-138">
          <mxGeometry y="40" width="200" height="20" as="geometry" />
        </mxCell>
        <mxCell id="n43T59U6szoglEBWc39S-140" value="" style="line;strokeWidth=1;fillColor=none;align=left;verticalAlign=middle;spacingTop=-1;spacingLeft=3;spacingRight=3;rotatable=0;labelPosition=right;points=[];portConstraint=eastwest;" vertex="1" parent="n43T59U6szoglEBWc39S-138">
          <mxGeometry y="60" width="200" height="8" as="geometry" />
        </mxCell>
        <mxCell id="n43T59U6szoglEBWc39S-141" value="operations" style="text;html=1;strokeColor=none;fillColor=none;align=center;verticalAlign=middle;spacingLeft=4;spacingRight=4;overflow=hidden;rotatable=0;points=[[0,0.5],[1,0.5]];portConstraint=eastwest;whiteSpace=wrap;" vertex="1" parent="n43T59U6szoglEBWc39S-138">
          <mxGeometry y="68" width="200" height="20" as="geometry" />
        </mxCell>
        <mxCell id="n43T59U6szoglEBWc39S-142" value="+pressExit():void" style="text;html=1;strokeColor=none;fillColor=none;align=left;verticalAlign=middle;spacingLeft=4;spacingRight=4;overflow=hidden;rotatable=0;points=[[0,0.5],[1,0.5]];portConstraint=eastwest;whiteSpace=wrap;" vertex="1" parent="n43T59U6szoglEBWc39S-138">
          <mxGeometry y="88" width="200" height="22" as="geometry" />
        </mxCell>
        <mxCell id="n43T59U6szoglEBWc39S-215" style="edgeStyle=orthogonalEdgeStyle;rounded=0;orthogonalLoop=1;jettySize=auto;html=1;strokeColor=default;align=center;verticalAlign=middle;fontFamily=Helvetica;fontSize=11;fontColor=default;labelBackgroundColor=default;endArrow=block;endFill=0;" edge="1" parent="n43T59U6szoglEBWc39S-182" source="n43T59U6szoglEBWc39S-143" target="n43T59U6szoglEBWc39S-34">
          <mxGeometry relative="1" as="geometry">
            <Array as="points">
              <mxPoint x="2680" y="1380" />
              <mxPoint x="2680" y="965" />
            </Array>
          </mxGeometry>
        </mxCell>
        <mxCell id="n43T59U6szoglEBWc39S-247" style="edgeStyle=orthogonalEdgeStyle;rounded=0;orthogonalLoop=1;jettySize=auto;html=1;strokeColor=default;align=center;verticalAlign=middle;fontFamily=Helvetica;fontSize=11;fontColor=default;labelBackgroundColor=default;endArrow=diamondThin;endFill=0;endSize=24;" edge="1" parent="n43T59U6szoglEBWc39S-182" source="n43T59U6szoglEBWc39S-143" target="n43T59U6szoglEBWc39S-60">
          <mxGeometry relative="1" as="geometry">
            <Array as="points">
              <mxPoint x="2910" y="1380" />
              <mxPoint x="2910" y="1305" />
              <mxPoint x="2800" y="1305" />
            </Array>
          </mxGeometry>
        </mxCell>
        <mxCell id="eGYr3inBb00eLCrS8vDI-27" style="edgeStyle=orthogonalEdgeStyle;rounded=0;orthogonalLoop=1;jettySize=auto;html=1;strokeColor=default;align=center;verticalAlign=middle;fontFamily=Helvetica;fontSize=11;fontColor=default;labelBackgroundColor=default;startArrow=cross;startFill=0;endArrow=open;endFill=0;" edge="1" parent="n43T59U6szoglEBWc39S-182" source="n43T59U6szoglEBWc39S-143" target="n43T59U6szoglEBWc39S-121">
          <mxGeometry relative="1" as="geometry">
            <Array as="points">
              <mxPoint x="2750" y="1225" />
            </Array>
          </mxGeometry>
        </mxCell>
        <mxCell id="n43T59U6szoglEBWc39S-143" value="&amp;lt;&amp;lt;interface&amp;gt;&amp;gt;&lt;br&gt;&lt;b&gt;RetryButton&lt;/b&gt;" style="swimlane;fontStyle=0;align=center;verticalAlign=top;childLayout=stackLayout;horizontal=1;startSize=40;horizontalStack=0;resizeParent=1;resizeParentMax=0;resizeLast=0;collapsible=0;marginBottom=0;html=1;whiteSpace=wrap;" vertex="1" parent="n43T59U6szoglEBWc39S-182">
          <mxGeometry x="2700" y="1325" width="200" height="110" as="geometry" />
        </mxCell>
        <mxCell id="n43T59U6szoglEBWc39S-144" value="attributes" style="text;html=1;strokeColor=none;fillColor=none;align=center;verticalAlign=middle;spacingLeft=4;spacingRight=4;overflow=hidden;rotatable=0;points=[[0,0.5],[1,0.5]];portConstraint=eastwest;whiteSpace=wrap;" vertex="1" parent="n43T59U6szoglEBWc39S-143">
          <mxGeometry y="40" width="200" height="20" as="geometry" />
        </mxCell>
        <mxCell id="n43T59U6szoglEBWc39S-145" value="" style="line;strokeWidth=1;fillColor=none;align=left;verticalAlign=middle;spacingTop=-1;spacingLeft=3;spacingRight=3;rotatable=0;labelPosition=right;points=[];portConstraint=eastwest;" vertex="1" parent="n43T59U6szoglEBWc39S-143">
          <mxGeometry y="60" width="200" height="8" as="geometry" />
        </mxCell>
        <mxCell id="n43T59U6szoglEBWc39S-146" value="operations" style="text;html=1;strokeColor=none;fillColor=none;align=center;verticalAlign=middle;spacingLeft=4;spacingRight=4;overflow=hidden;rotatable=0;points=[[0,0.5],[1,0.5]];portConstraint=eastwest;whiteSpace=wrap;" vertex="1" parent="n43T59U6szoglEBWc39S-143">
          <mxGeometry y="68" width="200" height="20" as="geometry" />
        </mxCell>
        <mxCell id="n43T59U6szoglEBWc39S-147" value="+pressRetry():void" style="text;html=1;strokeColor=none;fillColor=none;align=left;verticalAlign=middle;spacingLeft=4;spacingRight=4;overflow=hidden;rotatable=0;points=[[0,0.5],[1,0.5]];portConstraint=eastwest;whiteSpace=wrap;" vertex="1" parent="n43T59U6szoglEBWc39S-143">
          <mxGeometry y="88" width="200" height="22" as="geometry" />
        </mxCell>
        <mxCell id="n43T59U6szoglEBWc39S-216" style="edgeStyle=orthogonalEdgeStyle;rounded=0;orthogonalLoop=1;jettySize=auto;html=1;strokeColor=default;align=center;verticalAlign=middle;fontFamily=Helvetica;fontSize=11;fontColor=default;labelBackgroundColor=default;endArrow=block;endFill=0;" edge="1" parent="n43T59U6szoglEBWc39S-182" source="n43T59U6szoglEBWc39S-148" target="n43T59U6szoglEBWc39S-34">
          <mxGeometry relative="1" as="geometry">
            <Array as="points">
              <mxPoint x="2680" y="1500" />
              <mxPoint x="2680" y="965" />
            </Array>
          </mxGeometry>
        </mxCell>
        <mxCell id="n43T59U6szoglEBWc39S-248" style="edgeStyle=orthogonalEdgeStyle;rounded=0;orthogonalLoop=1;jettySize=auto;html=1;strokeColor=default;align=center;verticalAlign=middle;fontFamily=Helvetica;fontSize=11;fontColor=default;labelBackgroundColor=default;endArrow=diamondThin;endFill=0;endSize=24;" edge="1" parent="n43T59U6szoglEBWc39S-182" source="n43T59U6szoglEBWc39S-148" target="n43T59U6szoglEBWc39S-60">
          <mxGeometry relative="1" as="geometry">
            <Array as="points">
              <mxPoint x="2910" y="1500" />
              <mxPoint x="2910" y="1305" />
              <mxPoint x="2800" y="1305" />
            </Array>
          </mxGeometry>
        </mxCell>
        <mxCell id="n43T59U6szoglEBWc39S-148" value="&amp;lt;&amp;lt;interface&amp;gt;&amp;gt;&lt;br&gt;&lt;b&gt;ExitButton&lt;/b&gt;" style="swimlane;fontStyle=0;align=center;verticalAlign=top;childLayout=stackLayout;horizontal=1;startSize=40;horizontalStack=0;resizeParent=1;resizeParentMax=0;resizeLast=0;collapsible=0;marginBottom=0;html=1;whiteSpace=wrap;" vertex="1" parent="n43T59U6szoglEBWc39S-182">
          <mxGeometry x="2700" y="1445" width="200" height="110" as="geometry" />
        </mxCell>
        <mxCell id="n43T59U6szoglEBWc39S-149" value="attributes" style="text;html=1;strokeColor=none;fillColor=none;align=center;verticalAlign=middle;spacingLeft=4;spacingRight=4;overflow=hidden;rotatable=0;points=[[0,0.5],[1,0.5]];portConstraint=eastwest;whiteSpace=wrap;" vertex="1" parent="n43T59U6szoglEBWc39S-148">
          <mxGeometry y="40" width="200" height="20" as="geometry" />
        </mxCell>
        <mxCell id="n43T59U6szoglEBWc39S-150" value="" style="line;strokeWidth=1;fillColor=none;align=left;verticalAlign=middle;spacingTop=-1;spacingLeft=3;spacingRight=3;rotatable=0;labelPosition=right;points=[];portConstraint=eastwest;" vertex="1" parent="n43T59U6szoglEBWc39S-148">
          <mxGeometry y="60" width="200" height="8" as="geometry" />
        </mxCell>
        <mxCell id="n43T59U6szoglEBWc39S-151" value="operations" style="text;html=1;strokeColor=none;fillColor=none;align=center;verticalAlign=middle;spacingLeft=4;spacingRight=4;overflow=hidden;rotatable=0;points=[[0,0.5],[1,0.5]];portConstraint=eastwest;whiteSpace=wrap;" vertex="1" parent="n43T59U6szoglEBWc39S-148">
          <mxGeometry y="68" width="200" height="20" as="geometry" />
        </mxCell>
        <mxCell id="n43T59U6szoglEBWc39S-152" value="+pressExit():void" style="text;html=1;strokeColor=none;fillColor=none;align=left;verticalAlign=middle;spacingLeft=4;spacingRight=4;overflow=hidden;rotatable=0;points=[[0,0.5],[1,0.5]];portConstraint=eastwest;whiteSpace=wrap;" vertex="1" parent="n43T59U6szoglEBWc39S-148">
          <mxGeometry y="88" width="200" height="22" as="geometry" />
        </mxCell>
        <mxCell id="n43T59U6szoglEBWc39S-243" style="edgeStyle=orthogonalEdgeStyle;rounded=0;orthogonalLoop=1;jettySize=auto;html=1;strokeColor=default;align=center;verticalAlign=middle;fontFamily=Helvetica;fontSize=11;fontColor=default;labelBackgroundColor=default;endArrow=diamondThin;endFill=0;endSize=24;" edge="1" parent="n43T59U6szoglEBWc39S-182" source="n43T59U6szoglEBWc39S-153" target="n43T59U6szoglEBWc39S-121">
          <mxGeometry relative="1" as="geometry">
            <Array as="points">
              <mxPoint x="2230" y="1380" />
            </Array>
          </mxGeometry>
        </mxCell>
        <mxCell id="n43T59U6szoglEBWc39S-153" value="&amp;lt;&amp;lt;interface&amp;gt;&amp;gt;&lt;br&gt;&lt;b&gt;FinishButton&lt;/b&gt;" style="swimlane;fontStyle=0;align=center;verticalAlign=top;childLayout=stackLayout;horizontal=1;startSize=40;horizontalStack=0;resizeParent=1;resizeParentMax=0;resizeLast=0;collapsible=0;marginBottom=0;html=1;whiteSpace=wrap;" vertex="1" parent="n43T59U6szoglEBWc39S-182">
          <mxGeometry x="2000" y="1315" width="200" height="110" as="geometry" />
        </mxCell>
        <mxCell id="n43T59U6szoglEBWc39S-154" value="attributes" style="text;html=1;strokeColor=none;fillColor=none;align=center;verticalAlign=middle;spacingLeft=4;spacingRight=4;overflow=hidden;rotatable=0;points=[[0,0.5],[1,0.5]];portConstraint=eastwest;whiteSpace=wrap;" vertex="1" parent="n43T59U6szoglEBWc39S-153">
          <mxGeometry y="40" width="200" height="20" as="geometry" />
        </mxCell>
        <mxCell id="n43T59U6szoglEBWc39S-155" value="" style="line;strokeWidth=1;fillColor=none;align=left;verticalAlign=middle;spacingTop=-1;spacingLeft=3;spacingRight=3;rotatable=0;labelPosition=right;points=[];portConstraint=eastwest;" vertex="1" parent="n43T59U6szoglEBWc39S-153">
          <mxGeometry y="60" width="200" height="8" as="geometry" />
        </mxCell>
        <mxCell id="n43T59U6szoglEBWc39S-156" value="operations" style="text;html=1;strokeColor=none;fillColor=none;align=center;verticalAlign=middle;spacingLeft=4;spacingRight=4;overflow=hidden;rotatable=0;points=[[0,0.5],[1,0.5]];portConstraint=eastwest;whiteSpace=wrap;" vertex="1" parent="n43T59U6szoglEBWc39S-153">
          <mxGeometry y="68" width="200" height="20" as="geometry" />
        </mxCell>
        <mxCell id="n43T59U6szoglEBWc39S-157" value="+pressFinish():void" style="text;html=1;strokeColor=none;fillColor=none;align=left;verticalAlign=middle;spacingLeft=4;spacingRight=4;overflow=hidden;rotatable=0;points=[[0,0.5],[1,0.5]];portConstraint=eastwest;whiteSpace=wrap;" vertex="1" parent="n43T59U6szoglEBWc39S-153">
          <mxGeometry y="88" width="200" height="22" as="geometry" />
        </mxCell>
        <mxCell id="n43T59U6szoglEBWc39S-200" style="edgeStyle=orthogonalEdgeStyle;rounded=0;orthogonalLoop=1;jettySize=auto;html=1;strokeColor=default;align=center;verticalAlign=middle;fontFamily=Helvetica;fontSize=11;fontColor=default;labelBackgroundColor=default;endArrow=block;endFill=0;" edge="1" parent="n43T59U6szoglEBWc39S-182" source="n43T59U6szoglEBWc39S-158" target="n43T59U6szoglEBWc39S-10">
          <mxGeometry relative="1" as="geometry">
            <Array as="points">
              <mxPoint x="540" y="215" />
            </Array>
          </mxGeometry>
        </mxCell>
        <mxCell id="eGYr3inBb00eLCrS8vDI-10" style="edgeStyle=orthogonalEdgeStyle;rounded=0;orthogonalLoop=1;jettySize=auto;html=1;strokeColor=default;align=center;verticalAlign=middle;fontFamily=Helvetica;fontSize=11;fontColor=default;labelBackgroundColor=default;endArrow=open;endFill=0;startArrow=cross;startFill=0;" edge="1" parent="n43T59U6szoglEBWc39S-182" source="n43T59U6szoglEBWc39S-169" target="n43T59U6szoglEBWc39S-70">
          <mxGeometry relative="1" as="geometry">
            <Array as="points">
              <mxPoint x="310" y="635" />
              <mxPoint x="310" y="415" />
            </Array>
          </mxGeometry>
        </mxCell>
        <mxCell id="n43T59U6szoglEBWc39S-158" value="&amp;lt;&amp;lt;boundary&amp;gt;&amp;gt;&lt;br&gt;&lt;b&gt;LevelEditorScreen&lt;/b&gt;" style="swimlane;fontStyle=0;align=center;verticalAlign=top;childLayout=stackLayout;horizontal=1;startSize=40;horizontalStack=0;resizeParent=1;resizeParentMax=0;resizeLast=0;collapsible=0;marginBottom=0;html=1;whiteSpace=wrap;" vertex="1" parent="n43T59U6szoglEBWc39S-182">
          <mxGeometry x="419" y="335" width="200" height="260" as="geometry" />
        </mxCell>
        <mxCell id="n43T59U6szoglEBWc39S-159" value="attributes" style="text;html=1;strokeColor=none;fillColor=none;align=center;verticalAlign=middle;spacingLeft=4;spacingRight=4;overflow=hidden;rotatable=0;points=[[0,0.5],[1,0.5]];portConstraint=eastwest;whiteSpace=wrap;" vertex="1" parent="n43T59U6szoglEBWc39S-158">
          <mxGeometry y="40" width="200" height="20" as="geometry" />
        </mxCell>
        <mxCell id="n43T59U6szoglEBWc39S-160" value="-level: int[n][n]" style="text;html=1;strokeColor=none;fillColor=none;align=left;verticalAlign=middle;spacingLeft=4;spacingRight=4;overflow=hidden;rotatable=0;points=[[0,0.5],[1,0.5]];portConstraint=eastwest;whiteSpace=wrap;" vertex="1" parent="n43T59U6szoglEBWc39S-158">
          <mxGeometry y="60" width="200" height="20" as="geometry" />
        </mxCell>
        <mxCell id="n43T59U6szoglEBWc39S-161" value="" style="line;strokeWidth=1;fillColor=none;align=left;verticalAlign=middle;spacingTop=-1;spacingLeft=3;spacingRight=3;rotatable=0;labelPosition=right;points=[];portConstraint=eastwest;" vertex="1" parent="n43T59U6szoglEBWc39S-158">
          <mxGeometry y="80" width="200" height="8" as="geometry" />
        </mxCell>
        <mxCell id="n43T59U6szoglEBWc39S-162" value="operations" style="text;html=1;strokeColor=none;fillColor=none;align=center;verticalAlign=middle;spacingLeft=4;spacingRight=4;overflow=hidden;rotatable=0;points=[[0,0.5],[1,0.5]];portConstraint=eastwest;whiteSpace=wrap;" vertex="1" parent="n43T59U6szoglEBWc39S-158">
          <mxGeometry y="88" width="200" height="20" as="geometry" />
        </mxCell>
        <mxCell id="n43T59U6szoglEBWc39S-163" value="&lt;div&gt;&lt;span style=&quot;background-color: initial;&quot;&gt;+showLevelEditorScreen():void&lt;/span&gt;&lt;/div&gt;&lt;div&gt;&lt;span style=&quot;background-color: initial;&quot;&gt;+updateLevelEditor(param):void&lt;/span&gt;&lt;/div&gt;&lt;div&gt;&lt;span style=&quot;background-color: initial;&quot;&gt;+colorSquare(row, col):void&lt;/span&gt;&lt;br&gt;&lt;/div&gt;&lt;div&gt;+decolorSquare(&lt;span style=&quot;background-color: initial;&quot;&gt;row, col&lt;/span&gt;&lt;span style=&quot;background-color: initial;&quot;&gt;):void&lt;/span&gt;&lt;/div&gt;&lt;div&gt;+markSquare(&lt;span style=&quot;background-color: initial;&quot;&gt;row, col&lt;/span&gt;&lt;span style=&quot;background-color: initial;&quot;&gt;):void&lt;/span&gt;&lt;/div&gt;&lt;div&gt;&lt;div&gt;-leftClick():void&lt;/div&gt;&lt;div&gt;-rightClick():void&lt;/div&gt;&lt;div&gt;-middleClick():void&lt;/div&gt;&lt;/div&gt;&lt;div&gt;-getcoord():int, int&lt;/div&gt;&lt;div&gt;+getLevel():level&lt;/div&gt;" style="text;html=1;strokeColor=none;fillColor=none;align=left;verticalAlign=middle;spacingLeft=4;spacingRight=4;overflow=hidden;rotatable=0;points=[[0,0.5],[1,0.5]];portConstraint=eastwest;whiteSpace=wrap;" vertex="1" parent="n43T59U6szoglEBWc39S-158">
          <mxGeometry y="108" width="200" height="152" as="geometry" />
        </mxCell>
        <mxCell id="n43T59U6szoglEBWc39S-212" style="edgeStyle=orthogonalEdgeStyle;rounded=0;orthogonalLoop=1;jettySize=auto;html=1;strokeColor=default;align=center;verticalAlign=middle;fontFamily=Helvetica;fontSize=11;fontColor=default;labelBackgroundColor=default;endArrow=block;endFill=0;" edge="1" parent="n43T59U6szoglEBWc39S-182" source="n43T59U6szoglEBWc39S-164" target="n43T59U6szoglEBWc39S-34">
          <mxGeometry relative="1" as="geometry">
            <Array as="points">
              <mxPoint x="1980" y="1485" />
              <mxPoint x="1980" y="965" />
            </Array>
          </mxGeometry>
        </mxCell>
        <mxCell id="n43T59U6szoglEBWc39S-244" style="edgeStyle=orthogonalEdgeStyle;rounded=0;orthogonalLoop=1;jettySize=auto;html=1;strokeColor=default;align=center;verticalAlign=middle;fontFamily=Helvetica;fontSize=11;fontColor=default;labelBackgroundColor=default;endArrow=diamondThin;endFill=0;endSize=24;" edge="1" parent="n43T59U6szoglEBWc39S-182" source="n43T59U6szoglEBWc39S-164" target="n43T59U6szoglEBWc39S-121">
          <mxGeometry relative="1" as="geometry">
            <Array as="points">
              <mxPoint x="2230" y="1500" />
            </Array>
          </mxGeometry>
        </mxCell>
        <mxCell id="n43T59U6szoglEBWc39S-164" value="&amp;lt;&amp;lt;interface&amp;gt;&amp;gt;&lt;br&gt;&lt;b&gt;ExitButton&lt;/b&gt;" style="swimlane;fontStyle=0;align=center;verticalAlign=top;childLayout=stackLayout;horizontal=1;startSize=40;horizontalStack=0;resizeParent=1;resizeParentMax=0;resizeLast=0;collapsible=0;marginBottom=0;html=1;whiteSpace=wrap;" vertex="1" parent="n43T59U6szoglEBWc39S-182">
          <mxGeometry x="2000" y="1435" width="200" height="110" as="geometry" />
        </mxCell>
        <mxCell id="n43T59U6szoglEBWc39S-165" value="attributes" style="text;html=1;strokeColor=none;fillColor=none;align=center;verticalAlign=middle;spacingLeft=4;spacingRight=4;overflow=hidden;rotatable=0;points=[[0,0.5],[1,0.5]];portConstraint=eastwest;whiteSpace=wrap;" vertex="1" parent="n43T59U6szoglEBWc39S-164">
          <mxGeometry y="40" width="200" height="20" as="geometry" />
        </mxCell>
        <mxCell id="n43T59U6szoglEBWc39S-166" value="" style="line;strokeWidth=1;fillColor=none;align=left;verticalAlign=middle;spacingTop=-1;spacingLeft=3;spacingRight=3;rotatable=0;labelPosition=right;points=[];portConstraint=eastwest;" vertex="1" parent="n43T59U6szoglEBWc39S-164">
          <mxGeometry y="60" width="200" height="8" as="geometry" />
        </mxCell>
        <mxCell id="n43T59U6szoglEBWc39S-167" value="operations" style="text;html=1;strokeColor=none;fillColor=none;align=center;verticalAlign=middle;spacingLeft=4;spacingRight=4;overflow=hidden;rotatable=0;points=[[0,0.5],[1,0.5]];portConstraint=eastwest;whiteSpace=wrap;" vertex="1" parent="n43T59U6szoglEBWc39S-164">
          <mxGeometry y="68" width="200" height="20" as="geometry" />
        </mxCell>
        <mxCell id="n43T59U6szoglEBWc39S-168" value="+pressExit():void" style="text;html=1;strokeColor=none;fillColor=none;align=left;verticalAlign=middle;spacingLeft=4;spacingRight=4;overflow=hidden;rotatable=0;points=[[0,0.5],[1,0.5]];portConstraint=eastwest;whiteSpace=wrap;" vertex="1" parent="n43T59U6szoglEBWc39S-164">
          <mxGeometry y="88" width="200" height="22" as="geometry" />
        </mxCell>
        <mxCell id="n43T59U6szoglEBWc39S-249" value="" style="edgeStyle=orthogonalEdgeStyle;rounded=0;orthogonalLoop=1;jettySize=auto;html=1;strokeColor=default;align=center;verticalAlign=middle;fontFamily=Helvetica;fontSize=11;fontColor=default;labelBackgroundColor=default;endArrow=diamondThin;endFill=0;endSize=24;" edge="1" parent="n43T59U6szoglEBWc39S-182" source="n43T59U6szoglEBWc39S-169" target="n43T59U6szoglEBWc39S-158">
          <mxGeometry relative="1" as="geometry">
            <Array as="points">
              <mxPoint x="369" y="665" />
              <mxPoint x="369" y="455" />
            </Array>
          </mxGeometry>
        </mxCell>
        <mxCell id="n43T59U6szoglEBWc39S-169" value="&amp;lt;&amp;lt;interface&amp;gt;&amp;gt;&lt;br&gt;&lt;b&gt;PublishButton&lt;/b&gt;" style="swimlane;fontStyle=0;align=center;verticalAlign=top;childLayout=stackLayout;horizontal=1;startSize=40;horizontalStack=0;resizeParent=1;resizeParentMax=0;resizeLast=0;collapsible=0;marginBottom=0;html=1;whiteSpace=wrap;" vertex="1" parent="n43T59U6szoglEBWc39S-182">
          <mxGeometry x="419" y="615" width="200" height="110" as="geometry" />
        </mxCell>
        <mxCell id="n43T59U6szoglEBWc39S-170" value="attributes" style="text;html=1;strokeColor=none;fillColor=none;align=center;verticalAlign=middle;spacingLeft=4;spacingRight=4;overflow=hidden;rotatable=0;points=[[0,0.5],[1,0.5]];portConstraint=eastwest;whiteSpace=wrap;" vertex="1" parent="n43T59U6szoglEBWc39S-169">
          <mxGeometry y="40" width="200" height="20" as="geometry" />
        </mxCell>
        <mxCell id="n43T59U6szoglEBWc39S-171" value="" style="line;strokeWidth=1;fillColor=none;align=left;verticalAlign=middle;spacingTop=-1;spacingLeft=3;spacingRight=3;rotatable=0;labelPosition=right;points=[];portConstraint=eastwest;" vertex="1" parent="n43T59U6szoglEBWc39S-169">
          <mxGeometry y="60" width="200" height="8" as="geometry" />
        </mxCell>
        <mxCell id="n43T59U6szoglEBWc39S-172" value="operations" style="text;html=1;strokeColor=none;fillColor=none;align=center;verticalAlign=middle;spacingLeft=4;spacingRight=4;overflow=hidden;rotatable=0;points=[[0,0.5],[1,0.5]];portConstraint=eastwest;whiteSpace=wrap;" vertex="1" parent="n43T59U6szoglEBWc39S-169">
          <mxGeometry y="68" width="200" height="20" as="geometry" />
        </mxCell>
        <mxCell id="n43T59U6szoglEBWc39S-173" value="+pressPublish():void" style="text;html=1;strokeColor=none;fillColor=none;align=left;verticalAlign=middle;spacingLeft=4;spacingRight=4;overflow=hidden;rotatable=0;points=[[0,0.5],[1,0.5]];portConstraint=eastwest;whiteSpace=wrap;" vertex="1" parent="n43T59U6szoglEBWc39S-169">
          <mxGeometry y="88" width="200" height="22" as="geometry" />
        </mxCell>
        <mxCell id="n43T59U6szoglEBWc39S-218" style="edgeStyle=orthogonalEdgeStyle;rounded=0;orthogonalLoop=1;jettySize=auto;html=1;strokeColor=default;align=center;verticalAlign=middle;fontFamily=Helvetica;fontSize=11;fontColor=default;labelBackgroundColor=default;endArrow=block;endFill=0;" edge="1" parent="n43T59U6szoglEBWc39S-182" source="n43T59U6szoglEBWc39S-169" target="n43T59U6szoglEBWc39S-34">
          <mxGeometry relative="1" as="geometry">
            <Array as="points">
              <mxPoint x="660" y="665" />
              <mxPoint x="660" y="970" />
            </Array>
            <mxPoint x="3030" y="905" as="sourcePoint" />
          </mxGeometry>
        </mxCell>
        <mxCell id="n43T59U6szoglEBWc39S-250" style="edgeStyle=orthogonalEdgeStyle;rounded=0;orthogonalLoop=1;jettySize=auto;html=1;strokeColor=default;align=center;verticalAlign=middle;fontFamily=Helvetica;fontSize=11;fontColor=default;labelBackgroundColor=default;endArrow=diamondThin;endFill=0;endSize=24;" edge="1" parent="n43T59U6szoglEBWc39S-182" source="n43T59U6szoglEBWc39S-174" target="n43T59U6szoglEBWc39S-158">
          <mxGeometry relative="1" as="geometry">
            <Array as="points">
              <mxPoint x="369" y="790" />
              <mxPoint x="369" y="455" />
            </Array>
          </mxGeometry>
        </mxCell>
        <mxCell id="n43T59U6szoglEBWc39S-174" value="&amp;lt;&amp;lt;interface&amp;gt;&amp;gt;&lt;br&gt;&lt;b&gt;ExitButton&lt;/b&gt;" style="swimlane;fontStyle=0;align=center;verticalAlign=top;childLayout=stackLayout;horizontal=1;startSize=40;horizontalStack=0;resizeParent=1;resizeParentMax=0;resizeLast=0;collapsible=0;marginBottom=0;html=1;whiteSpace=wrap;" vertex="1" parent="n43T59U6szoglEBWc39S-182">
          <mxGeometry x="419" y="735" width="200" height="110" as="geometry" />
        </mxCell>
        <mxCell id="n43T59U6szoglEBWc39S-175" value="attributes" style="text;html=1;strokeColor=none;fillColor=none;align=center;verticalAlign=middle;spacingLeft=4;spacingRight=4;overflow=hidden;rotatable=0;points=[[0,0.5],[1,0.5]];portConstraint=eastwest;whiteSpace=wrap;" vertex="1" parent="n43T59U6szoglEBWc39S-174">
          <mxGeometry y="40" width="200" height="20" as="geometry" />
        </mxCell>
        <mxCell id="n43T59U6szoglEBWc39S-176" value="" style="line;strokeWidth=1;fillColor=none;align=left;verticalAlign=middle;spacingTop=-1;spacingLeft=3;spacingRight=3;rotatable=0;labelPosition=right;points=[];portConstraint=eastwest;" vertex="1" parent="n43T59U6szoglEBWc39S-174">
          <mxGeometry y="60" width="200" height="8" as="geometry" />
        </mxCell>
        <mxCell id="n43T59U6szoglEBWc39S-177" value="operations" style="text;html=1;strokeColor=none;fillColor=none;align=center;verticalAlign=middle;spacingLeft=4;spacingRight=4;overflow=hidden;rotatable=0;points=[[0,0.5],[1,0.5]];portConstraint=eastwest;whiteSpace=wrap;" vertex="1" parent="n43T59U6szoglEBWc39S-174">
          <mxGeometry y="68" width="200" height="20" as="geometry" />
        </mxCell>
        <mxCell id="n43T59U6szoglEBWc39S-178" value="+pressExit():void" style="text;html=1;strokeColor=none;fillColor=none;align=left;verticalAlign=middle;spacingLeft=4;spacingRight=4;overflow=hidden;rotatable=0;points=[[0,0.5],[1,0.5]];portConstraint=eastwest;whiteSpace=wrap;" vertex="1" parent="n43T59U6szoglEBWc39S-174">
          <mxGeometry y="88" width="200" height="22" as="geometry" />
        </mxCell>
        <mxCell id="n43T59U6szoglEBWc39S-203" style="edgeStyle=orthogonalEdgeStyle;rounded=0;orthogonalLoop=1;jettySize=auto;html=1;strokeColor=default;align=center;verticalAlign=middle;fontFamily=Helvetica;fontSize=11;fontColor=default;labelBackgroundColor=default;endArrow=block;endFill=0;" edge="1" parent="n43T59U6szoglEBWc39S-182" source="n43T59U6szoglEBWc39S-0" target="n43T59U6szoglEBWc39S-34">
          <mxGeometry relative="1" as="geometry">
            <Array as="points">
              <mxPoint x="990" y="650" />
              <mxPoint x="990" y="965" />
            </Array>
          </mxGeometry>
        </mxCell>
        <mxCell id="n43T59U6szoglEBWc39S-207" style="edgeStyle=orthogonalEdgeStyle;rounded=0;orthogonalLoop=1;jettySize=auto;html=1;strokeColor=default;align=center;verticalAlign=middle;fontFamily=Helvetica;fontSize=11;fontColor=default;labelBackgroundColor=default;endArrow=block;endFill=0;" edge="1" parent="n43T59U6szoglEBWc39S-182" source="n43T59U6szoglEBWc39S-29" target="n43T59U6szoglEBWc39S-34">
          <mxGeometry relative="1" as="geometry">
            <Array as="points">
              <mxPoint x="1370" y="885" />
              <mxPoint x="1370" y="965" />
            </Array>
          </mxGeometry>
        </mxCell>
        <mxCell id="n43T59U6szoglEBWc39S-211" style="edgeStyle=orthogonalEdgeStyle;rounded=0;orthogonalLoop=1;jettySize=auto;html=1;strokeColor=default;align=center;verticalAlign=middle;fontFamily=Helvetica;fontSize=11;fontColor=default;labelBackgroundColor=default;endArrow=block;endFill=0;" edge="1" parent="n43T59U6szoglEBWc39S-182" source="n43T59U6szoglEBWc39S-154" target="n43T59U6szoglEBWc39S-34">
          <mxGeometry relative="1" as="geometry">
            <Array as="points">
              <mxPoint x="1980" y="1375" />
              <mxPoint x="1980" y="965" />
            </Array>
          </mxGeometry>
        </mxCell>
        <mxCell id="n43T59U6szoglEBWc39S-219" value="QLineEdit&lt;br&gt;&lt;b&gt;Inputbox&lt;/b&gt;" style="html=1;whiteSpace=wrap;" vertex="1" parent="n43T59U6szoglEBWc39S-182">
          <mxGeometry x="770" y="1015" width="110" height="50" as="geometry" />
        </mxCell>
        <mxCell id="n43T59U6szoglEBWc39S-222" value="QButtonGroup&lt;br&gt;&lt;b&gt;ButtonGroup&lt;/b&gt;" style="html=1;whiteSpace=wrap;" vertex="1" parent="n43T59U6szoglEBWc39S-182">
          <mxGeometry x="770" y="1085" width="110" height="50" as="geometry" />
        </mxCell>
        <mxCell id="n43T59U6szoglEBWc39S-225" value="QPushButton&lt;br&gt;&lt;b&gt;Button&lt;/b&gt;" style="html=1;whiteSpace=wrap;" vertex="1" parent="n43T59U6szoglEBWc39S-182">
          <mxGeometry x="1290" y="1085" width="110" height="50" as="geometry" />
        </mxCell>
        <mxCell id="n43T59U6szoglEBWc39S-226" value="" style="endArrow=diamondThin;endFill=1;endSize=24;html=1;rounded=0;strokeColor=default;align=center;verticalAlign=middle;fontFamily=Helvetica;fontSize=11;fontColor=default;labelBackgroundColor=default;edgeStyle=orthogonalEdgeStyle;" edge="1" parent="n43T59U6szoglEBWc39S-182" source="n43T59U6szoglEBWc39S-225" target="n43T59U6szoglEBWc39S-222">
          <mxGeometry width="160" relative="1" as="geometry">
            <mxPoint x="1140" y="1175" as="sourcePoint" />
            <mxPoint x="1300" y="1175" as="targetPoint" />
          </mxGeometry>
        </mxCell>
        <mxCell id="eGYr3inBb00eLCrS8vDI-4" value="+GroupedBy" style="edgeLabel;html=1;align=center;verticalAlign=middle;resizable=0;points=[];fontFamily=Helvetica;fontSize=11;fontColor=default;labelBackgroundColor=default;" vertex="1" connectable="0" parent="n43T59U6szoglEBWc39S-226">
          <mxGeometry x="0.4934" y="-2" relative="1" as="geometry">
            <mxPoint x="-44" y="-13" as="offset" />
          </mxGeometry>
        </mxCell>
        <mxCell id="eGYr3inBb00eLCrS8vDI-5" value="#Contains" style="edgeLabel;html=1;align=center;verticalAlign=middle;resizable=0;points=[];fontFamily=Helvetica;fontSize=11;fontColor=default;labelBackgroundColor=default;" vertex="1" connectable="0" parent="n43T59U6szoglEBWc39S-226">
          <mxGeometry x="-0.4844" relative="1" as="geometry">
            <mxPoint x="76" y="-15" as="offset" />
          </mxGeometry>
        </mxCell>
        <mxCell id="eGYr3inBb00eLCrS8vDI-6" value="1" style="edgeLabel;html=1;align=center;verticalAlign=middle;resizable=0;points=[];fontFamily=Helvetica;fontSize=11;fontColor=default;labelBackgroundColor=default;" vertex="1" connectable="0" parent="n43T59U6szoglEBWc39S-226">
          <mxGeometry x="0.4247" y="-3" relative="1" as="geometry">
            <mxPoint x="-78" y="18" as="offset" />
          </mxGeometry>
        </mxCell>
        <mxCell id="eGYr3inBb00eLCrS8vDI-7" value="1..*" style="edgeLabel;html=1;align=center;verticalAlign=middle;resizable=0;points=[];fontFamily=Helvetica;fontSize=11;fontColor=default;labelBackgroundColor=default;" vertex="1" connectable="0" parent="n43T59U6szoglEBWc39S-226">
          <mxGeometry x="-0.742" y="-1" relative="1" as="geometry">
            <mxPoint x="33" y="16" as="offset" />
          </mxGeometry>
        </mxCell>
        <mxCell id="n43T59U6szoglEBWc39S-231" value="" style="endArrow=diamondThin;endFill=0;endSize=24;html=1;rounded=0;strokeColor=default;align=center;verticalAlign=middle;fontFamily=Helvetica;fontSize=11;fontColor=default;labelBackgroundColor=default;edgeStyle=orthogonalEdgeStyle;" edge="1" parent="n43T59U6szoglEBWc39S-182" source="n43T59U6szoglEBWc39S-0" target="7mrXc6vzGn_HgA6qBizn-0">
          <mxGeometry width="160" relative="1" as="geometry">
            <mxPoint x="705" y="485" as="sourcePoint" />
            <mxPoint x="865" y="485" as="targetPoint" />
            <Array as="points">
              <mxPoint x="750" y="650" />
              <mxPoint x="750" y="555" />
              <mxPoint x="875" y="555" />
            </Array>
          </mxGeometry>
        </mxCell>
        <mxCell id="eGYr3inBb00eLCrS8vDI-2" style="edgeStyle=orthogonalEdgeStyle;rounded=0;orthogonalLoop=1;jettySize=auto;html=1;strokeColor=default;align=center;verticalAlign=middle;fontFamily=Helvetica;fontSize=11;fontColor=default;labelBackgroundColor=default;endArrow=block;endFill=0;" edge="1" parent="n43T59U6szoglEBWc39S-182" source="n43T59U6szoglEBWc39S-175" target="n43T59U6szoglEBWc39S-34">
          <mxGeometry relative="1" as="geometry">
            <Array as="points">
              <mxPoint x="660" y="785" />
              <mxPoint x="660" y="970" />
            </Array>
          </mxGeometry>
        </mxCell>
        <mxCell id="eGYr3inBb00eLCrS8vDI-20" style="edgeStyle=orthogonalEdgeStyle;rounded=0;orthogonalLoop=1;jettySize=auto;html=1;strokeColor=default;align=center;verticalAlign=middle;fontFamily=Helvetica;fontSize=11;fontColor=default;labelBackgroundColor=default;startArrow=cross;startFill=0;endArrow=open;endFill=0;" edge="1" parent="n43T59U6szoglEBWc39S-182" source="n43T59U6szoglEBWc39S-174" target="7mrXc6vzGn_HgA6qBizn-0">
          <mxGeometry relative="1" as="geometry">
            <mxPoint x="70" y="425" as="sourcePoint" />
            <mxPoint x="830" y="345" as="targetPoint" />
            <Array as="points">
              <mxPoint x="340" y="745" />
              <mxPoint x="340" y="275" />
              <mxPoint x="820" y="275" />
            </Array>
          </mxGeometry>
        </mxCell>
        <mxCell id="eGYr3inBb00eLCrS8vDI-21" style="edgeStyle=orthogonalEdgeStyle;rounded=0;orthogonalLoop=1;jettySize=auto;html=1;strokeColor=default;align=center;verticalAlign=middle;fontFamily=Helvetica;fontSize=11;fontColor=default;labelBackgroundColor=default;startArrow=cross;startFill=0;endArrow=open;endFill=0;" edge="1" parent="n43T59U6szoglEBWc39S-182" source="n43T59U6szoglEBWc39S-99" target="7mrXc6vzGn_HgA6qBizn-8">
          <mxGeometry relative="1" as="geometry">
            <mxPoint x="1950" y="625" as="sourcePoint" />
            <mxPoint x="1170" y="405" as="targetPoint" />
            <Array as="points">
              <mxPoint x="1980" y="725" />
              <mxPoint x="1980" y="275" />
              <mxPoint x="1100" y="275" />
              <mxPoint x="1100" y="355" />
            </Array>
          </mxGeometry>
        </mxCell>
        <mxCell id="eGYr3inBb00eLCrS8vDI-24" style="edgeStyle=orthogonalEdgeStyle;rounded=0;orthogonalLoop=1;jettySize=auto;html=1;strokeColor=default;align=center;verticalAlign=middle;fontFamily=Helvetica;fontSize=11;fontColor=default;labelBackgroundColor=default;startArrow=cross;startFill=0;endArrow=open;endFill=0;" edge="1" parent="n43T59U6szoglEBWc39S-182" source="n43T59U6szoglEBWc39S-138" target="n43T59U6szoglEBWc39S-45">
          <mxGeometry relative="1" as="geometry">
            <Array as="points">
              <mxPoint x="2500" y="1610" />
              <mxPoint x="2640" y="1610" />
              <mxPoint x="2640" y="290" />
              <mxPoint x="2400" y="290" />
            </Array>
          </mxGeometry>
        </mxCell>
        <mxCell id="eGYr3inBb00eLCrS8vDI-25" style="edgeStyle=orthogonalEdgeStyle;rounded=0;orthogonalLoop=1;jettySize=auto;html=1;strokeColor=default;align=center;verticalAlign=middle;fontFamily=Helvetica;fontSize=11;fontColor=default;labelBackgroundColor=default;startArrow=cross;startFill=0;endArrow=open;endFill=0;" edge="1" parent="n43T59U6szoglEBWc39S-182" source="n43T59U6szoglEBWc39S-148" target="n43T59U6szoglEBWc39S-45">
          <mxGeometry relative="1" as="geometry">
            <Array as="points">
              <mxPoint x="2800" y="1610" />
              <mxPoint x="2640" y="1610" />
              <mxPoint x="2640" y="290" />
              <mxPoint x="2400" y="290" />
            </Array>
          </mxGeometry>
        </mxCell>
        <mxCell id="eGYr3inBb00eLCrS8vDI-23" style="edgeStyle=orthogonalEdgeStyle;rounded=0;orthogonalLoop=1;jettySize=auto;html=1;strokeColor=default;align=center;verticalAlign=middle;fontFamily=Helvetica;fontSize=11;fontColor=default;labelBackgroundColor=default;startArrow=cross;startFill=0;endArrow=open;endFill=0;curved=0;" edge="1" parent="n43T59U6szoglEBWc39S-182" source="n43T59U6szoglEBWc39S-164" target="n43T59U6szoglEBWc39S-45">
          <mxGeometry relative="1" as="geometry">
            <Array as="points">
              <mxPoint x="2100" y="1610" />
              <mxPoint x="2640" y="1610" />
              <mxPoint x="2640" y="290" />
              <mxPoint x="2400" y="290" />
            </Array>
          </mxGeometry>
        </mxCell>
        <mxCell id="eGYr3inBb00eLCrS8vDI-36" style="edgeStyle=orthogonalEdgeStyle;rounded=0;orthogonalLoop=1;jettySize=auto;html=1;strokeColor=default;align=center;verticalAlign=middle;fontFamily=Helvetica;fontSize=11;fontColor=default;labelBackgroundColor=default;startArrow=cross;startFill=0;endArrow=open;endFill=0;" edge="1" parent="WIyWlLk6GJQsqaUBKTNV-1" source="n43T59U6szoglEBWc39S-35" target="eGYr3inBb00eLCrS8vDI-28">
          <mxGeometry relative="1" as="geometry">
            <Array as="points">
              <mxPoint x="600" y="200" />
              <mxPoint x="1070" y="200" />
              <mxPoint x="1070" y="-90" />
            </Array>
          </mxGeometry>
        </mxCell>
        <mxCell id="eGYr3inBb00eLCrS8vDI-35" style="edgeStyle=orthogonalEdgeStyle;rounded=0;orthogonalLoop=1;jettySize=auto;html=1;strokeColor=default;align=center;verticalAlign=middle;fontFamily=Helvetica;fontSize=11;fontColor=default;labelBackgroundColor=default;startArrow=cross;startFill=0;endArrow=open;endFill=0;" edge="1" parent="WIyWlLk6GJQsqaUBKTNV-1" source="n43T59U6szoglEBWc39S-94" target="eGYr3inBb00eLCrS8vDI-28">
          <mxGeometry relative="1" as="geometry">
            <Array as="points">
              <mxPoint x="1070" y="630" />
              <mxPoint x="1070" y="-90" />
              <mxPoint x="900" y="-90" />
            </Array>
          </mxGeometry>
        </mxCell>
        <mxCell id="eGYr3inBb00eLCrS8vDI-43" style="edgeStyle=orthogonalEdgeStyle;rounded=0;orthogonalLoop=1;jettySize=auto;html=1;strokeColor=default;align=center;verticalAlign=middle;fontFamily=Helvetica;fontSize=11;fontColor=default;labelBackgroundColor=default;startArrow=cross;startFill=0;endArrow=open;endFill=0;" edge="1" parent="WIyWlLk6GJQsqaUBKTNV-1" source="n43T59U6szoglEBWc39S-121" target="eGYr3inBb00eLCrS8vDI-37">
          <mxGeometry relative="1" as="geometry">
            <Array as="points">
              <mxPoint x="1130" y="1125" />
              <mxPoint x="1130" y="90" />
              <mxPoint x="420" y="90" />
            </Array>
          </mxGeometry>
        </mxCell>
        <mxCell id="eGYr3inBb00eLCrS8vDI-44" style="edgeStyle=orthogonalEdgeStyle;rounded=0;orthogonalLoop=1;jettySize=auto;html=1;strokeColor=default;align=center;verticalAlign=middle;fontFamily=Helvetica;fontSize=11;fontColor=default;labelBackgroundColor=default;startArrow=cross;startFill=0;endArrow=open;endFill=0;" edge="1" parent="WIyWlLk6GJQsqaUBKTNV-1" source="n43T59U6szoglEBWc39S-158" target="eGYr3inBb00eLCrS8vDI-37">
          <mxGeometry relative="1" as="geometry">
            <Array as="points">
              <mxPoint x="-441" y="50" />
              <mxPoint x="420" y="50" />
            </Array>
          </mxGeometry>
        </mxCell>
        <mxCell id="eGYr3inBb00eLCrS8vDI-87" style="edgeStyle=orthogonalEdgeStyle;rounded=0;orthogonalLoop=1;jettySize=auto;html=1;strokeColor=default;align=center;verticalAlign=middle;fontFamily=Helvetica;fontSize=11;fontColor=default;labelBackgroundColor=default;startArrow=cross;startFill=0;endArrow=open;endFill=0;" edge="1" parent="WIyWlLk6GJQsqaUBKTNV-1" source="eGYr3inBb00eLCrS8vDI-37" target="eGYr3inBb00eLCrS8vDI-76">
          <mxGeometry relative="1" as="geometry">
            <Array as="points">
              <mxPoint x="440" y="-930" />
            </Array>
          </mxGeometry>
        </mxCell>
        <mxCell id="eGYr3inBb00eLCrS8vDI-120" style="edgeStyle=orthogonalEdgeStyle;rounded=0;orthogonalLoop=1;jettySize=auto;html=1;strokeColor=default;align=center;verticalAlign=middle;fontFamily=Helvetica;fontSize=11;fontColor=default;labelBackgroundColor=default;startArrow=cross;startFill=0;endArrow=open;endFill=0;" edge="1" parent="WIyWlLk6GJQsqaUBKTNV-1" source="eGYr3inBb00eLCrS8vDI-37" target="eGYr3inBb00eLCrS8vDI-88">
          <mxGeometry relative="1" as="geometry">
            <Array as="points">
              <mxPoint x="420" y="-1110" />
            </Array>
          </mxGeometry>
        </mxCell>
        <mxCell id="eGYr3inBb00eLCrS8vDI-73" style="edgeStyle=orthogonalEdgeStyle;rounded=0;orthogonalLoop=1;jettySize=auto;html=1;strokeColor=default;align=center;verticalAlign=middle;fontFamily=Helvetica;fontSize=11;fontColor=default;labelBackgroundColor=default;startArrow=none;startFill=0;endArrow=open;endFill=0;dashed=1;" edge="1" parent="WIyWlLk6GJQsqaUBKTNV-1" source="eGYr3inBb00eLCrS8vDI-45" target="eGYr3inBb00eLCrS8vDI-67">
          <mxGeometry relative="1" as="geometry">
            <Array as="points">
              <mxPoint x="1460" y="-480" />
              <mxPoint x="1460" y="-1205" />
            </Array>
          </mxGeometry>
        </mxCell>
        <mxCell id="eGYr3inBb00eLCrS8vDI-96" value="" style="edgeStyle=orthogonalEdgeStyle;rounded=0;orthogonalLoop=1;jettySize=auto;html=1;strokeColor=default;align=center;verticalAlign=middle;fontFamily=Helvetica;fontSize=11;fontColor=default;labelBackgroundColor=default;startArrow=none;startFill=0;endArrow=open;endFill=0;dashed=1;" edge="1" parent="WIyWlLk6GJQsqaUBKTNV-1" source="eGYr3inBb00eLCrS8vDI-55" target="eGYr3inBb00eLCrS8vDI-93">
          <mxGeometry relative="1" as="geometry">
            <Array as="points">
              <mxPoint x="1320" y="-900" />
              <mxPoint x="190" y="-900" />
            </Array>
          </mxGeometry>
        </mxCell>
        <mxCell id="eGYr3inBb00eLCrS8vDI-86" style="edgeStyle=orthogonalEdgeStyle;rounded=0;orthogonalLoop=1;jettySize=auto;html=1;strokeColor=default;align=center;verticalAlign=middle;fontFamily=Helvetica;fontSize=11;fontColor=default;labelBackgroundColor=default;startArrow=none;startFill=0;endArrow=open;endFill=0;dashed=1;" edge="1" parent="WIyWlLk6GJQsqaUBKTNV-1" source="eGYr3inBb00eLCrS8vDI-60" target="eGYr3inBb00eLCrS8vDI-76">
          <mxGeometry relative="1" as="geometry">
            <mxPoint x="1460" y="-745" as="sourcePoint" />
            <mxPoint x="830" y="-1069.9999999999995" as="targetPoint" />
            <Array as="points">
              <mxPoint x="1440" y="-600" />
              <mxPoint x="1440" y="-950" />
              <mxPoint x="770" y="-950" />
            </Array>
          </mxGeometry>
        </mxCell>
        <mxCell id="eGYr3inBb00eLCrS8vDI-65" style="edgeStyle=orthogonalEdgeStyle;rounded=0;orthogonalLoop=1;jettySize=auto;html=1;strokeColor=default;align=center;verticalAlign=middle;fontFamily=Helvetica;fontSize=11;fontColor=default;labelBackgroundColor=default;startArrow=none;startFill=0;endArrow=open;endFill=0;dashed=1;" edge="1" parent="WIyWlLk6GJQsqaUBKTNV-1" source="eGYr3inBb00eLCrS8vDI-37" target="eGYr3inBb00eLCrS8vDI-55">
          <mxGeometry relative="1" as="geometry" />
        </mxCell>
        <mxCell id="eGYr3inBb00eLCrS8vDI-66" style="edgeStyle=orthogonalEdgeStyle;rounded=0;orthogonalLoop=1;jettySize=auto;html=1;strokeColor=default;align=center;verticalAlign=middle;fontFamily=Helvetica;fontSize=11;fontColor=default;labelBackgroundColor=default;startArrow=none;startFill=0;endArrow=open;endFill=0;dashed=1;" edge="1" parent="WIyWlLk6GJQsqaUBKTNV-1" source="eGYr3inBb00eLCrS8vDI-37" target="eGYr3inBb00eLCrS8vDI-60">
          <mxGeometry relative="1" as="geometry" />
        </mxCell>
        <mxCell id="eGYr3inBb00eLCrS8vDI-54" value="" style="edgeStyle=orthogonalEdgeStyle;rounded=0;orthogonalLoop=1;jettySize=auto;html=1;strokeColor=default;align=center;verticalAlign=middle;fontFamily=Helvetica;fontSize=11;fontColor=default;labelBackgroundColor=default;startArrow=none;startFill=0;endArrow=open;endFill=0;dashed=1;" edge="1" parent="WIyWlLk6GJQsqaUBKTNV-1" source="eGYr3inBb00eLCrS8vDI-28" target="eGYr3inBb00eLCrS8vDI-50">
          <mxGeometry relative="1" as="geometry">
            <Array as="points">
              <mxPoint x="880" y="-416" />
            </Array>
          </mxGeometry>
        </mxCell>
      </root>
    </mxGraphModel>
  </diagram>
</mxfile>
